<?xml version="1.0" standalone="no"?>
<!DOCTYPE svg PUBLIC "-//W3C//DTD SVG 20010904//EN"
 "http://www.w3.org/TR/2001/REC-SVG-20010904/DTD/svg10.dtd">
<svg version="1.0" xmlns="http://www.w3.org/2000/svg"
 width="2322.000000pt" height="2322.000000pt" viewBox="0 0 2322.000000 2322.000000"
 preserveAspectRatio="xMidYMid meet">
<metadata>
Created by potrace 1.14, written by Peter Selinger 2001-2017
</metadata>
<g transform="translate(0.000000,2322.000000) scale(0.100000,-0.100000)"
fill="#000000" stroke="none">
<path d="M2570 23214 c0 -3 43 -82 95 -175 l96 -170 6 -1359 c3 -748 3 -1360
0 -1360 -4 0 -501 153 -1105 341 -603 187 -1224 380 -1380 429 l-282 87 0 -83
0 -83 93 -29 c50 -16 836 -260 1745 -542 1040 -323 1647 -516 1635 -521 -10
-3 -795 -213 -1745 -465 l-1728 -459 0 -33 c0 -26 4 -33 15 -29 8 4 209 58
447 121 238 63 613 163 833 221 220 59 654 174 965 256 683 182 1238 330 1264
337 16 4 18 1 12 -34 -3 -21 -33 -248 -66 -504 -33 -256 -62 -479 -65 -497
l-6 -31 -352 -87 c-336 -83 -800 -197 -1972 -486 -291 -72 -651 -161 -800
-198 l-270 -67 -3 -66 -3 -66 193 48 c106 26 414 102 683 169 270 66 746 184
1060 261 314 78 660 163 770 190 110 27 402 99 649 160 248 61 454 109 458
108 5 -2 -71 -111 -170 -243 -491 -661 -883 -1187 -1149 -1545 -117 -157 -293
-393 -392 -525 -98 -132 -304 -409 -458 -616 l-280 -376 -89 -6 c-49 -3 -356
-21 -681 -39 l-593 -33 0 -23 0 -24 113 6 c117 7 200 12 352 21 246 15 606 35
735 41 80 3 149 7 154 8 8 1 100 -134 1560 -2319 500 -748 1164 -1740 1474
-2204 l565 -844 -219 7 c-195 6 -1721 49 -3194 91 -289 8 -592 17 -675 20 -82
2 -249 7 -370 10 -121 3 -282 8 -357 11 l-138 6 0 -61 0 -61 105 0 c102 0 105
-1 105 -22 0 -13 -47 -386 -105 -830 l-105 -807 2 -256 c3 -238 4 -255 20
-243 13 10 22 56 41 200 13 104 26 191 29 194 7 6 1586 -191 1634 -204 17 -5
285 -184 595 -397 310 -214 767 -528 1014 -698 248 -171 663 -457 924 -636
l475 -326 -45 -3 c-24 -2 -798 -36 -1719 -75 l-1675 -73 -20 22 c-11 11 -301
321 -645 689 -558 596 -625 665 -628 640 -3 -21 8 -39 55 -88 325 -343 1197
-1283 1195 -1289 -1 -5 -284 -508 -628 -1120 -558 -992 -625 -1115 -622 -1149
3 -34 61 66 647 1107 354 629 646 1146 650 1148 3 2 67 7 141 10 281 13 339
16 465 21 72 3 180 7 240 10 61 3 169 7 240 10 72 3 175 8 230 10 55 3 154 7
220 10 66 3 170 7 230 10 285 12 350 15 485 20 80 3 177 8 215 10 39 2 151 7
250 10 99 3 203 8 230 10 28 2 138 7 245 11 107 3 205 7 218 9 28 5 28 0 -4
-55 -14 -25 -199 -353 -411 -730 -212 -377 -413 -734 -448 -795 -34 -60 -196
-348 -360 -640 -163 -291 -319 -568 -345 -615 -27 -47 -126 -222 -220 -390
-94 -168 -177 -310 -183 -316 -7 -6 -201 -49 -432 -97 -526 -108 -1483 -305
-1930 -398 -187 -38 -348 -72 -357 -75 -14 -4 -18 -16 -18 -50 0 -24 2 -44 3
-44 2 0 287 59 633 131 346 71 672 139 724 149 52 11 205 42 340 70 314 65
502 104 827 171 l262 54 442 785 441 785 220 114 c121 62 221 111 223 109 2
-2 -34 -66 -79 -143 -46 -77 -148 -250 -228 -385 -80 -135 -263 -445 -408
-690 -145 -245 -350 -591 -455 -770 -395 -668 -686 -1161 -791 -1339 l-109
-183 -270 -88 c-148 -49 -436 -143 -640 -209 -203 -66 -417 -136 -475 -155
l-105 -34 120 -1 c97 -1 130 3 172 19 29 11 60 17 69 13 12 -4 15 -3 10 5 -4
7 -1 12 6 13 7 0 39 2 71 3 32 2 63 9 70 16 10 10 8 12 -8 6 -27 -10 -91 -18
-83 -11 3 3 17 7 30 9 13 1 29 6 36 10 7 4 25 10 40 12 15 3 40 11 55 19 15 8
35 11 44 8 12 -5 14 -3 8 7 -6 10 -2 11 21 6 16 -4 30 -11 32 -16 2 -5 10 -6
19 -3 12 5 9 9 -13 20 -16 7 -21 11 -12 8 10 -2 18 -1 18 3 0 4 16 12 35 18
19 6 35 7 35 3 0 -5 8 -9 18 -9 13 0 14 2 4 9 -10 6 -2 13 27 25 46 18 64 21
41 6 -12 -8 -10 -10 8 -10 13 0 21 4 17 9 -3 5 5 12 17 16 13 4 38 13 56 21
18 9 40 14 50 12 9 -1 29 6 44 16 35 23 119 45 169 44 22 0 43 3 47 7 4 4 -5
5 -21 3 -15 -3 -27 -1 -27 3 0 5 8 10 18 11 32 2 37 4 50 11 10 7 128 49 156
56 5 2 13 -3 17 -11 7 -10 9 -8 9 7 1 20 1 20 15 1 8 -11 15 -14 15 -8 0 9 5
9 20 0 11 -7 20 -15 20 -19 0 -3 23 -30 51 -60 106 -114 123 -136 108 -145 -8
-5 -10 -3 -4 6 5 9 4 11 -4 6 -8 -6 -9 -12 -2 -20 6 -7 7 -17 3 -21 -4 -5 -2
-5 4 -2 6 4 19 -2 29 -13 9 -10 23 -16 31 -13 8 3 14 0 14 -7 0 -6 5 -8 12 -4
6 4 8 3 5 -3 -4 -6 0 -16 8 -23 8 -7 13 -16 10 -20 -3 -5 0 -12 6 -16 8 -5 9
-3 4 6 -5 8 -3 11 6 8 8 -3 13 -10 12 -16 -2 -6 6 -16 16 -22 14 -7 754 -9
2322 -8 l2302 3 138 364 c76 200 136 368 133 373 -3 4 -108 123 -235 265 -126
141 -229 263 -229 271 0 7 45 359 100 780 55 422 111 857 125 967 14 110 34
263 45 340 10 77 28 214 40 305 31 244 52 395 55 398 2 2 86 -39 187 -91 101
-52 287 -147 413 -212 127 -65 307 -157 400 -205 94 -48 265 -136 380 -195
116 -59 291 -149 390 -200 99 -51 275 -141 390 -200 116 -59 282 -145 370
-190 88 -45 264 -135 390 -200 127 -65 298 -152 380 -195 83 -42 276 -142 430
-220 154 -79 281 -144 282 -144 1 -1 -9 -85 -22 -186 -84 -650 -108 -826 -113
-831 -4 -4 -160 -44 -346 -90 l-340 -82 -95 -87 c-53 -47 -259 -231 -459 -409
-199 -177 -362 -324 -362 -327 0 -2 44 -4 98 -4 l97 1 401 358 401 357 169 42
c228 56 1133 279 1814 447 2228 550 2975 733 2976 732 2 -1 -68 -97 -154 -212
-287 -384 -967 -1297 -1117 -1500 -81 -110 -152 -206 -158 -212 -7 -10 -1 -13
24 -13 33 0 41 10 239 276 113 152 304 410 426 573 122 163 350 469 507 679
l285 384 364 -544 c200 -299 487 -729 638 -955 l275 -412 386 -1 386 0 903
980 c496 540 904 980 905 978 1 -2 25 -46 52 -98 28 -52 75 -142 106 -200 30
-58 131 -249 224 -425 93 -176 225 -426 293 -555 375 -712 354 -675 390 -678
l32 -3 -35 63 c-61 111 -987 1866 -994 1884 -5 13 2 12 38 -9 111 -63 420
-236 1418 -793 l1073 -599 212 -272 211 -273 88 0 89 0 -30 37 c-154 197 -313
405 -310 407 2 1 71 33 153 71 83 37 184 84 225 103 343 158 599 276 618 283
13 5 22 17 22 29 0 11 -38 163 -85 337 -46 174 -82 319 -80 323 3 4 24 10 47
14 24 4 60 11 81 17 36 9 37 11 37 54 0 25 -2 45 -3 45 -2 0 -233 -47 -512
-105 -280 -58 -514 -104 -521 -103 -7 2 215 406 513 935 466 829 524 937 521
970 -3 34 -27 -6 -292 -478 -159 -283 -324 -575 -366 -649 -42 -74 -156 -278
-254 -453 -98 -175 -182 -316 -186 -315 -5 2 -80 98 -167 213 -159 212 -532
705 -1099 1455 -169 223 -448 593 -621 822 l-315 417 98 173 c53 95 166 295
249 443 84 149 347 617 585 1040 238 424 434 771 435 773 11 13 1473 662 1485
660 9 -2 112 -106 230 -232 193 -206 215 -227 218 -203 3 23 -27 59 -195 238
-109 116 -198 216 -198 221 0 5 88 48 195 96 l195 88 1 230 2 229 -23 -168
c-13 -93 -25 -170 -27 -172 -7 -7 -3303 -1483 -3306 -1481 -2 3 138 1084 439
3396 50 382 93 697 95 699 2 2 367 100 811 218 630 168 808 211 814 201 4 -7
149 -224 322 -483 l314 -470 74 -6 c41 -4 167 -9 282 -12 l207 -6 0 58 0 58
-142 6 c-79 4 -193 7 -254 7 l-110 0 -950 1420 c-522 781 -1261 1886 -1642
2456 -380 570 -692 1040 -692 1045 0 5 35 9 78 9 42 1 93 3 112 5 19 2 127 9
240 15 113 6 239 13 280 15 41 3 359 21 705 40 347 19 668 37 715 40 47 3 166
9 265 15 99 5 218 12 265 15 47 3 168 10 270 15 196 10 318 17 440 25 41 3
122 7 180 10 209 10 240 15 240 36 0 16 -8 19 -52 19 -29 0 -883 -47 -1898
-105 -1014 -57 -1846 -103 -1847 -101 -3 2 2576 2302 2636 2351 34 27 96 44
599 169 l562 138 0 64 c0 35 -2 64 -4 64 -2 0 -104 -24 -227 -54 -123 -30
-224 -54 -225 -53 -2 4 126 972 130 983 2 6 60 25 128 42 213 55 198 49 198
82 0 17 -4 30 -9 30 -5 0 -84 -20 -176 -45 l-167 -44 -882 452 c-485 249
-1382 709 -1994 1022 -611 314 -1112 572 -1112 575 0 3 325 38 723 78 397 39
1165 117 1707 172 l985 99 460 -143 460 -143 3 80 c2 44 1 81 -1 83 -2 3 -206
67 -453 144 l-449 140 -245 -26 c-549 -56 -1115 -112 -1117 -110 -2 1 70 330
158 730 91 411 158 731 153 736 -7 7 -706 296 -1284 532 -24 10 -23 12 35 39
l60 28 -1796 1 c-1630 0 -1797 -1 -1803 -16 -3 -9 -6 -24 -6 -35 0 -10 -4 -19
-10 -19 -5 0 -7 -21 -3 -50 4 -36 2 -50 -6 -50 -9 0 -11 -10 -6 -32 5 -25 4
-29 -5 -18 -8 11 -9 2 -5 -38 2 -29 0 -64 -6 -79 -5 -14 -10 -52 -10 -82 -1
-31 -7 -68 -15 -83 -8 -15 -12 -39 -10 -53 3 -14 2 -25 -1 -25 -11 0 -83 56
-88 69 -4 11 -1 10 13 -2 10 -9 22 -17 26 -17 5 0 -2 9 -15 21 -21 18 -22 20
-4 14 16 -5 17 -4 8 6 -10 10 -17 9 -35 -7 -13 -10 -20 -15 -15 -10 4 6 -11
18 -33 28 -23 11 -44 26 -47 33 -3 8 -10 12 -16 8 -6 -4 -8 0 -5 9 4 8 0 15
-8 15 -7 0 -10 -5 -7 -11 4 -6 -1 -5 -10 3 -9 7 -14 18 -10 24 3 6 1 7 -6 3
-14 -9 -43 12 -35 25 3 5 -3 6 -12 2 -13 -5 -15 -3 -9 7 6 10 4 12 -8 7 -10
-4 -21 1 -29 12 -7 10 -17 19 -23 20 -5 0 -19 9 -30 18 -11 10 -25 18 -32 19
-6 1 -25 12 -41 24 -28 21 -30 24 -16 44 13 21 12 22 -17 20 -17 -1 -33 -5
-36 -7 -3 -3 -10 -2 -17 4 -6 5 -28 22 -48 38 -21 15 -35 31 -33 35 3 3 2 4
-2 1 -3 -3 -14 2 -24 11 -9 8 -24 16 -31 18 -8 1 -34 16 -58 34 -36 26 -40 33
-26 38 11 4 14 9 7 13 -12 8 -251 15 -251 7 0 -3 75 -56 168 -119 92 -63 238
-164 324 -223 86 -60 229 -158 317 -219 88 -60 158 -111 156 -113 -2 -2 -774
-37 -1717 -77 l-1713 -74 -21 22 c-11 12 -186 199 -388 415 -303 324 -372 392
-393 392 l-27 0 25 -27 c14 -16 193 -207 397 -425 l371 -397 -46 -83 c-26 -46
-557 -989 -1179 -2096 l-1132 -2013 -139 183 c-77 101 -427 563 -778 1028
-858 1135 -954 1262 -1132 1497 -84 111 -153 205 -153 208 0 3 255 459 567
1013 312 554 580 1031 596 1060 l29 52 -49 0 -48 0 -41 -73 c-22 -39 -199
-355 -394 -702 -194 -346 -370 -659 -390 -695 -49 -88 -260 -463 -326 -580
-30 -52 -54 -97 -54 -100 0 -5 128 -176 396 -530 93 -124 262 -346 374 -495
l204 -270 -140 130 c-76 71 -168 157 -204 191 -36 34 -77 72 -91 85 -15 13
-82 76 -150 139 -68 63 -196 182 -284 264 -88 82 -168 156 -177 165 -15 14
-29 141 -98 936 -44 506 -89 1017 -100 1135 -10 118 -18 216 -16 217 1 1 66
-38 145 -87 l143 -89 41 19 c23 10 103 46 177 80 74 33 233 105 353 158 l218
97 -155 3 -155 3 -211 -96 c-116 -52 -214 -95 -217 -95 -5 0 -1 41 13 148 6
40 5 42 -19 42 -29 0 -32 -9 -43 -122 -3 -38 -9 -68 -13 -68 -4 0 -76 43 -160
95 l-153 95 -2559 0 -2558 0 -3 -100 -3 -101 -55 100 c-54 100 -55 101 -92
101 -21 0 -38 -3 -38 -6z m13040 -9 c0 -7 -30 -13 -34 -7 -3 4 4 9 15 9 10 1
19 0 19 -2z m5000 -475 c245 -100 448 -185 452 -189 7 -6 -495 -94 -2712 -475
-179 -31 -452 -78 -608 -104 l-282 -49 -56 35 c-31 19 -52 38 -47 42 4 5 94
46 198 93 105 47 327 147 495 222 168 75 409 183 535 240 201 90 305 136 485
217 25 11 77 35 115 53 39 17 180 80 315 140 135 59 249 112 253 116 5 4 100
-30 210 -76 111 -45 402 -164 647 -265z m-4721 269 c-15 -9 -32 -2 -24 11 3 5
13 6 21 3 12 -4 13 -8 3 -14z m451 -503 c0 -4 -748 -1338 -960 -1711 -37 -66
-150 -266 -250 -445 -101 -179 -255 -453 -343 -610 -88 -157 -222 -395 -298
-530 l-137 -245 -759 -157 c-417 -86 -812 -168 -878 -182 -66 -14 -329 -68
-585 -121 -689 -142 -1026 -211 -1310 -271 -140 -29 -256 -51 -258 -49 -2 2
78 149 179 327 100 177 211 375 247 438 61 109 168 300 314 560 36 63 146 259
245 435 203 361 591 1049 726 1290 49 88 141 252 205 365 63 113 143 256 178
318 98 172 188 331 220 389 20 37 36 54 54 57 14 3 104 8 200 11 96 3 195 8
220 10 25 2 135 7 245 10 110 3 220 8 245 10 25 2 126 7 225 10 99 3 207 8
240 10 33 3 137 7 230 10 94 3 197 8 230 10 33 2 137 7 230 10 94 3 195 7 225
10 30 2 138 7 240 10 102 4 208 8 235 10 28 2 140 7 250 11 110 3 201 7 203 9
5 5 192 6 192 1z m16 -203 c-2 -16 -5 -30 -6 -33 -2 -3 -5 -16 -7 -30 -2 -14
-5 -41 -8 -60 -3 -19 -7 -54 -9 -77 -3 -23 -8 -52 -12 -65 -6 -20 -14 -104
-15 -167 -1 -17 -3 -20 -9 -11 -5 7 -7 -9 -5 -37 3 -34 0 -50 -8 -49 -12 0
-44 29 -49 43 -2 4 -11 8 -20 8 -10 1 -14 -3 -11 -9 9 -14 -29 15 -44 34 -6 8
-9 19 -6 23 3 5 -5 3 -18 -3 -13 -7 -21 -9 -17 -5 4 5 3 14 -3 22 -9 9 -8 13
0 13 6 0 10 6 9 13 -2 6 3 11 10 9 8 -1 11 2 8 7 -4 5 -1 13 5 16 5 4 8 14 4
22 -4 13 -3 14 10 3 9 -7 18 -10 22 -6 3 3 1 6 -5 6 -7 0 -12 6 -12 13 0 16
38 97 46 97 3 0 2 -5 -2 -12 -4 -7 -3 -8 4 -4 7 4 12 17 12 30 0 12 6 31 14
41 14 19 15 19 37 0 l23 -20 -17 27 c-16 25 -16 31 -3 62 8 19 24 44 35 55 12
12 18 21 15 21 -3 0 2 7 10 16 9 8 14 20 11 25 -4 5 -2 9 4 9 5 0 8 -12 7 -27z
m3199 -1933 c6 -4 172 -89 370 -190 198 -101 410 -209 470 -240 61 -32 214
-110 340 -175 367 -188 677 -346 1225 -628 460 -235 573 -294 718 -369 l153
-80 -5 -37 c-3 -20 -30 -227 -61 -461 -30 -234 -57 -445 -61 -470 l-6 -46
-341 -84 c-302 -75 -346 -89 -377 -115 -32 -27 -1336 -1188 -2054 -1828 -177
-158 -307 -266 -316 -264 -12 3 -1166 720 -1177 731 -2 2 107 294 243 650 217
572 244 650 231 665 -8 9 -114 128 -236 265 l-222 249 6 51 c4 28 8 62 10 76
3 14 11 79 19 145 8 66 29 226 46 355 17 129 60 458 95 730 35 272 71 547 79
610 70 529 106 812 106 825 0 12 100 -34 368 -171 202 -102 372 -190 377 -194z
m-3833 288 c-22 -37 -535 -904 -735 -1243 -71 -121 -224 -380 -340 -575 -116
-195 -226 -382 -245 -415 -20 -33 -137 -231 -260 -440 -335 -566 -454 -767
-471 -796 -12 -21 -36 -33 -115 -58 -89 -28 -400 -129 -1036 -336 -107 -35
-285 -93 -395 -129 -110 -35 -368 -120 -574 -187 -316 -103 -376 -119 -385
-107 -37 49 -211 273 -262 337 -33 42 -105 135 -159 206 -54 72 -112 145 -128
164 -16 18 -25 37 -20 41 4 5 175 85 378 178 204 94 429 197 500 230 72 33
131 66 133 74 1 7 -21 101 -49 208 -28 107 -67 253 -85 324 -19 71 -32 131
-30 133 3 3 67 18 143 34 76 15 478 98 893 184 415 86 895 185 1065 220 171
35 431 89 580 120 148 30 273 59 277 63 6 6 241 423 588 1042 54 96 142 253
197 349 l98 174 225 117 c124 65 226 118 228 119 2 0 -5 -14 -16 -31z m-7927
-2140 c32 -62 61 -117 65 -123 4 -5 40 -73 80 -150 40 -77 171 -324 290 -550
119 -225 284 -536 365 -690 81 -154 164 -311 185 -350 21 -38 66 -124 100
-190 54 -104 226 -428 365 -690 23 -44 93 -176 155 -293 l112 -213 -38 -45
c-146 -168 -2800 -3040 -2806 -3035 -6 5 -94 210 -453 1056 -70 165 -171 404
-225 530 -589 1383 -861 2028 -858 2035 5 14 2591 2820 2599 2820 3 0 32 -51
64 -112z m352 -77 c186 -103 622 -347 968 -541 347 -194 763 -427 925 -517
162 -91 303 -176 313 -189 10 -13 121 -156 246 -316 281 -363 799 -1032 1117
-1443 132 -170 411 -531 620 -800 209 -270 383 -496 387 -502 6 -10 2 -11 -20
-2 -28 11 -1517 558 -2563 941 l-576 211 -386 731 c-1202 2275 -1378 2608
-1378 2612 0 2 2 4 5 4 3 0 157 -85 342 -189z m-3494 -1011 l767 -1150 -181
-197 c-100 -109 -198 -215 -217 -235 l-35 -37 21 -53 c11 -29 79 -190 150
-358 115 -269 536 -1263 983 -2316 82 -193 149 -358 149 -366 0 -8 -53 -129
-119 -269 -116 -248 -168 -361 -444 -954 -775 -1667 -723 -1556 -733 -1557 -9
-1 -88 116 -1298 1927 -478 715 -1186 1773 -1573 2352 -387 578 -703 1056
-703 1062 0 9 265 367 1635 2206 287 385 587 789 668 898 81 108 150 197 154
197 5 -1 353 -518 776 -1150z m6669 553 c36 -137 64 -249 63 -251 -2 -2 -12 5
-22 15 -11 10 -73 68 -138 128 -212 195 -290 270 -293 280 -2 8 251 69 308 74
12 1 31 -55 82 -246z m2366 -916 c6 -5 12 -17 12 -29 0 -14 5 -18 15 -15 18 7
30 -9 14 -19 -8 -5 -9 -3 -4 6 5 9 4 11 -4 6 -6 -4 -18 -3 -26 4 -11 9 -13 7
-11 -7 2 -12 12 -18 32 -18 39 -1 64 -14 64 -32 0 -8 -4 -12 -8 -9 -4 2 -8 -4
-9 -14 -1 -11 2 -22 8 -25 5 -3 6 1 3 10 -5 11 -2 14 12 8 12 -4 15 -3 10 5
-4 7 -5 12 -2 12 3 0 10 -10 17 -21 9 -17 8 -20 -3 -14 -7 5 -2 -5 12 -21 14
-16 27 -31 29 -34 2 -3 0 6 -4 20 -6 23 -5 22 13 -5 10 -17 54 -65 97 -108 44
-42 76 -77 73 -77 -3 0 12 -17 33 -39 39 -39 47 -74 25 -110 -13 -20 9 -35 24
-16 7 8 8 15 3 15 -5 0 -9 10 -7 23 1 12 3 25 3 29 1 4 16 -9 35 -30 23 -25
31 -39 23 -44 -11 -7 -10 -8 8 -8 5 0 45 -38 45 -43 0 -2 -10 -3 -22 -3 -13 1
-24 -2 -25 -6 -2 -5 -1 -7 0 -5 2 1 12 -5 23 -13 17 -14 18 -14 6 1 -11 15
-10 17 12 15 13 0 22 -4 20 -8 -2 -4 5 -10 17 -13 11 -4 18 -9 15 -12 -3 -3 2
-12 10 -20 8 -8 12 -19 9 -24 -4 -5 0 -6 7 -4 8 3 24 -6 36 -20 24 -27 29 -40
10 -29 -7 5 -8 3 -4 -5 5 -7 15 -10 23 -7 10 4 13 2 10 -7 -3 -8 -1 -20 4 -28
7 -11 9 -11 9 0 0 7 13 -1 30 -19 24 -25 28 -36 20 -50 -9 -16 -7 -18 10 -15
12 2 30 -5 40 -15 11 -11 17 -20 13 -20 -4 0 3 -7 15 -16 12 -8 19 -21 16 -27
-4 -7 -4 -9 0 -5 9 7 89 -62 81 -70 -2 -2 6 -13 18 -23 12 -10 19 -18 15 -19
-5 0 0 -8 10 -18 9 -11 20 -17 25 -15 7 4 11 -12 8 -30 -1 -5 3 -6 7 -3 12 7
44 -28 40 -45 -2 -7 3 -13 10 -14 18 0 99 -90 94 -105 -3 -7 0 -10 5 -7 15 9
77 -59 68 -74 -6 -8 -4 -10 5 -4 13 8 33 -11 71 -70 10 -16 19 -26 19 -22 0 5
5 5 10 2 7 -4 6 -14 -1 -28 -9 -18 -9 -20 1 -10 10 9 16 8 27 -3 8 -7 12 -18
9 -22 -8 -13 40 -55 53 -48 7 4 8 1 5 -8 -4 -11 0 -16 11 -16 10 0 15 -5 12
-14 -3 -8 1 -13 11 -12 11 1 18 -8 20 -22 2 -12 7 -20 12 -17 9 5 117 -111
136 -146 5 -11 12 -17 15 -14 3 3 5 -5 5 -18 -1 -15 9 -27 29 -37 36 -19 73
-49 85 -71 14 -25 -30 -17 -52 11 -10 12 -21 21 -23 18 -3 -2 4 -14 15 -26 23
-25 25 -33 6 -26 -8 3 -17 1 -20 -4 -4 -6 5 -8 21 -5 52 9 77 5 90 -13 7 -10
11 -25 8 -33 -4 -11 -2 -11 8 -3 11 9 18 5 33 -16 32 -43 39 -56 26 -48 -7 4
-12 2 -12 -4 0 -6 -5 -8 -11 -4 -8 5 -8 1 0 -13 6 -11 7 -24 3 -28 -4 -5 -2
-5 5 -1 7 4 10 13 7 20 -3 8 3 16 15 19 23 6 80 -46 62 -57 -6 -4 -11 -13 -10
-19 0 -9 2 -9 6 0 3 10 8 10 19 -1 8 -8 14 -19 14 -25 0 -6 4 -11 10 -11 14 0
80 -63 80 -76 0 -7 7 -15 16 -18 9 -4 14 -13 10 -22 -3 -9 -2 -12 4 -9 14 9
43 -22 34 -36 -4 -7 -3 -9 3 -6 16 10 46 -29 38 -51 -3 -12 -1 -24 6 -28 7 -4
9 -3 6 3 -4 6 1 17 10 24 12 10 14 10 9 2 -4 -8 -2 -13 5 -13 7 0 9 -3 6 -6
-4 -4 16 -28 43 -53 28 -26 50 -51 50 -56 0 -6 -5 -3 -11 5 -9 13 -10 13 -6 0
2 -8 10 -14 17 -12 7 2 21 -5 32 -15 22 -20 46 -59 30 -49 -5 3 -8 -9 -5 -29
3 -35 -11 -49 -20 -20 -4 11 -4 10 -3 -2 1 -13 10 -18 32 -18 17 0 31 5 31 12
0 6 -6 9 -12 6 -16 -5 -28 24 -13 33 15 10 58 -40 48 -57 -11 -18 -3 -30 16
-22 16 6 74 -42 74 -61 0 -5 -6 -2 -13 8 -12 16 -13 16 -13 -3 0 -11 3 -19 6
-19 3 0 13 0 24 -1 15 -1 16 -4 6 -16 -7 -8 -16 -13 -20 -10 -16 10 -20 -13
-5 -25 15 -12 16 -11 19 12 0 6 7 13 14 16 7 2 10 -2 7 -10 -4 -9 0 -15 9 -15
8 0 12 5 9 11 -3 6 6 0 21 -14 14 -13 24 -30 22 -37 -3 -8 1 -10 12 -6 15 6
15 4 -1 -14 -14 -16 -15 -23 -6 -29 7 -4 10 -3 5 4 -3 6 -2 13 3 16 5 3 11 -1
15 -9 3 -8 13 -15 22 -15 10 0 15 -3 11 -6 -3 -4 18 -30 46 -59 29 -29 51 -57
50 -62 -2 -6 3 -16 12 -23 13 -11 15 -10 9 6 -5 17 -4 17 7 -1 7 -11 26 -34
43 -51 47 -48 78 -93 71 -103 -3 -5 1 -13 8 -18 8 -4 19 -17 25 -28 10 -17 11
-17 12 -3 0 9 -9 23 -21 31 -11 8 -16 18 -11 21 5 3 22 -11 38 -31 15 -20 22
-33 14 -28 -9 5 -11 4 -6 -3 4 -7 14 -12 23 -12 9 0 14 -2 11 -5 -3 -3 26 -38
64 -78 73 -75 114 -139 102 -160 -4 -7 1 -5 12 4 18 16 20 15 43 -15 l25 -31
-25 20 c-21 17 -21 16 2 -7 15 -14 24 -29 21 -33 -4 -4 1 -5 10 -3 9 1 17 0
17 -4 1 -5 10 -17 21 -28 12 -12 18 -26 14 -32 -4 -7 -3 -8 4 -4 7 4 12 3 12
-3 0 -5 -5 -13 -10 -16 -16 -10 7 -34 30 -32 15 1 16 5 9 19 -12 22 -21 24
-13 3 4 -8 1 -15 -4 -15 -18 0 -23 17 -8 29 11 9 18 6 35 -17 11 -16 18 -32
14 -36 -3 -3 -1 -6 6 -6 7 0 9 -4 6 -10 -3 -5 0 -7 8 -5 7 3 21 -3 30 -13 17
-18 17 -20 0 -33 -15 -12 -16 -12 -8 1 7 13 6 13 -7 2 -21 -17 -78 -33 -78
-22 0 4 -7 11 -16 14 -14 5 -15 4 -4 -9 10 -12 10 -16 -1 -19 -36 -11 -58 -13
-53 -5 8 13 -10 11 -24 -3 -13 -13 -28 -18 -87 -25 -22 -3 -45 -9 -51 -14 -6
-5 -20 -6 -29 -2 -14 5 -16 3 -10 -7 5 -8 4 -11 -3 -6 -6 3 -23 1 -39 -5 -47
-18 -183 -47 -177 -38 3 5 0 9 -5 9 -6 0 -11 -4 -11 -9 0 -9 -31 -17 -100 -27
-19 -3 -44 -9 -55 -14 -36 -17 -135 -39 -150 -34 -7 3 -24 -1 -37 -10 -23 -15
-60 -25 -109 -31 -14 -1 -36 -8 -47 -14 -25 -13 -35 -14 -27 -2 3 5 0 13 -6
17 -7 4 -9 3 -6 -3 9 -15 -26 -30 -93 -40 -19 -3 -41 -10 -49 -17 -12 -9 -13
-8 -8 7 9 23 -2 22 -24 -4 -13 -15 -24 -19 -40 -14 -14 5 -19 3 -15 -3 4 -7
-8 -9 -36 -7 -29 3 -38 1 -28 -5 8 -5 12 -10 8 -10 -3 0 -14 -3 -24 -7 -12 -4
-15 -3 -10 5 10 16 1 15 -42 -7 -20 -10 -57 -21 -82 -24 -45 -6 -45 -6 -15 8
17 8 25 14 19 15 -7 0 -38 -13 -69 -30 -40 -21 -64 -28 -82 -23 -19 4 -24 3
-19 -6 6 -9 0 -10 -20 -5 -17 4 -25 3 -21 -3 7 -10 -7 -13 -77 -16 -19 -1 -32
-5 -30 -9 4 -6 -72 -28 -108 -31 -10 -1 -18 -5 -18 -10 0 -4 -8 -7 -17 -5 -10
1 -24 -2 -32 -6 -11 -7 -13 -5 -9 5 10 25 -41 17 -61 -10 -11 -15 -23 -21 -31
-16 -7 4 -16 2 -20 -5 -6 -9 -13 -9 -28 -1 -13 7 -29 8 -44 2 -13 -6 -18 -10
-13 -10 6 -1 -3 -8 -19 -16 -15 -8 -32 -13 -37 -10 -4 3 -24 -1 -44 -9 -20 -9
-33 -11 -30 -6 9 14 -9 12 -23 -2 -6 -6 -20 -13 -29 -14 -10 -1 -27 -5 -38
-10 -18 -7 -18 -6 -6 9 7 9 10 17 7 17 -10 0 -36 -27 -31 -32 2 -2 -12 -5 -32
-6 -19 -2 -52 -10 -72 -18 -20 -9 -56 -17 -81 -19 -25 -2 -79 -14 -120 -25
-107 -30 -201 -51 -230 -51 -20 1 -22 -1 -10 -9 12 -8 8 -10 -15 -11 -43 -3
-47 -3 -75 4 -14 4 -19 4 -12 1 6 -3 12 -10 12 -15 0 -6 -4 -8 -9 -4 -5 3 -12
1 -16 -5 -3 -5 -11 -10 -17 -10 -7 0 -6 5 1 14 10 12 8 13 -8 9 -12 -3 -19 -9
-16 -13 3 -4 -10 -11 -28 -15 -17 -4 -36 -9 -42 -11 -34 -10 -63 -16 -82 -15
-13 0 -23 -3 -23 -7 0 -9 -17 -12 -57 -12 -13 0 -23 -4 -23 -9 0 -4 -11 -6
-25 -3 -14 2 -45 -5 -70 -17 -49 -23 -59 -25 -51 -12 3 5 -10 1 -30 -10 -26
-13 -51 -17 -87 -14 -41 3 -46 2 -22 -4 35 -10 17 -14 -55 -13 -36 1 -40 -1
-20 -7 22 -6 17 -9 -35 -20 -33 -7 -72 -12 -87 -12 -15 0 -30 -4 -33 -9 -4 -6
-19 -10 -34 -10 -15 0 -31 -4 -37 -10 -5 -5 -23 -11 -39 -12 -17 -1 -35 -6
-42 -11 -7 -5 -22 -6 -34 -2 -16 5 -19 4 -14 -5 5 -8 3 -11 -6 -8 -8 3 -22 1
-31 -4 -12 -5 -18 -5 -18 2 0 5 -10 10 -22 9 -22 0 -22 -1 -3 -9 11 -5 16 -9
10 -10 -18 -4 -30 -7 -35 -10 -9 -5 -55 -11 -83 -10 -20 0 -26 -3 -21 -12 4
-7 4 -10 0 -6 -4 3 -23 0 -41 -8 -51 -21 -55 -17 -10 11 22 13 36 24 30 24 -5
0 -19 -6 -29 -14 -11 -8 -31 -15 -45 -15 -16 0 -21 -3 -14 -8 7 -5 -1 -11 -23
-18 -23 -8 -34 -8 -34 -1 0 7 -5 6 -12 -1 -7 -7 -20 -12 -29 -12 -10 0 -30 -5
-46 -12 -34 -14 -50 -18 -83 -22 -14 -1 -38 -9 -55 -16 -16 -7 -49 -13 -73
-13 -28 0 -38 -3 -30 -9 8 -6 4 -7 -12 -3 -14 4 -31 14 -38 24 -30 39 -70 79
-75 75 -3 -3 -8 4 -12 15 -3 12 -10 21 -14 21 -7 0 -186 198 -216 239 -5 7
-26 29 -45 49 -19 19 -29 32 -23 28 9 -5 11 -2 7 8 -3 9 -9 14 -13 12 -4 -3
-15 6 -25 19 -35 47 -48 61 -41 45 3 -8 -2 -4 -12 9 -10 13 -28 33 -40 45 -17
18 -19 25 -10 42 23 39 70 94 81 94 6 0 4 -5 -4 -11 -13 -9 -13 -10 0 -6 8 2
14 11 12 21 -2 9 2 17 8 17 5 1 15 2 22 3 6 0 12 9 14 20 1 10 12 25 23 33 12
8 19 18 17 22 -3 4 1 8 9 8 11 0 12 -3 3 -14 -7 -9 -8 -17 -1 -24 7 -7 15 -4
24 8 13 16 12 17 -3 4 -22 -17 -23 -4 -2 20 12 13 12 19 3 25 -8 4 -10 3 -5
-4 4 -7 5 -12 2 -12 -16 0 -13 20 6 36 12 11 18 13 14 7 -11 -19 9 -15 25 5 8
9 21 30 29 46 19 38 140 167 151 161 4 -3 11 0 15 6 4 8 3 9 -4 5 -7 -4 -12
-2 -12 3 0 6 7 11 16 11 8 0 13 4 10 8 -3 5 8 21 23 36 18 18 31 24 35 17 4
-6 5 -15 1 -20 -3 -5 -1 -12 5 -16 5 -3 10 -11 10 -17 0 -6 -7 -5 -17 3 -16
13 -17 12 -4 -4 16 -20 39 -7 25 14 -21 35 -1 109 29 109 6 0 0 -12 -14 -27
-23 -27 -23 -27 9 1 30 28 45 55 22 41 -23 -14 -8 4 16 20 15 9 23 12 20 6 -4
-6 -2 -11 4 -11 6 0 9 8 6 18 -6 18 32 65 50 61 20 -3 26 2 15 14 -8 10 -4 20
20 43 30 28 30 28 36 6 3 -12 9 -22 15 -22 5 0 4 8 -2 19 -5 11 -10 24 -10 29
0 6 32 43 70 83 39 40 70 76 70 81 0 4 5 8 11 8 5 0 7 -6 3 -12 -4 -8 -3 -10
2 -5 5 5 9 14 9 20 1 7 7 11 14 9 7 -1 11 3 9 10 -2 6 4 21 13 33 10 11 25 29
34 40 9 13 14 15 12 5 -2 -8 -2 -12 0 -7 3 4 8 5 12 3 4 -3 7 5 7 17 -1 17 4
21 23 19 20 -2 22 0 11 13 -11 13 -9 19 5 13 3 -2 14 11 25 29 16 27 24 32 49
28 28 -3 29 -2 20 22 -5 14 -8 27 -7 28 13 10 55 29 61 27 5 -1 6 2 2 8 -5 8
-12 7 -23 -2 -10 -7 -3 2 13 20 32 33 61 46 31 13 -13 -14 -14 -21 -5 -27 7
-4 10 -3 6 3 -4 6 0 16 8 23 7 6 11 18 9 25 -3 7 5 24 18 36 13 13 28 35 34
48 7 17 13 21 18 13 4 -7 3 -12 -3 -12 -6 0 -8 -6 -5 -14 3 -8 1 -17 -5 -21
-6 -3 -11 -12 -11 -18 0 -7 5 -4 11 6 6 9 14 15 19 12 4 -3 6 5 2 17 -4 16 -2
19 9 13 8 -5 4 3 -8 17 -27 29 -30 46 -5 27 9 -7 14 -10 10 -5 -4 4 -3 18 2
31 8 20 6 22 -18 18 -15 -2 -32 -5 -39 -5 -7 -1 -10 -5 -7 -10 3 -4 13 -4 23
2 18 9 31 4 31 -12 0 -4 -3 -7 -7 -7 -22 4 -33 -2 -27 -13 5 -9 4 -10 -4 -3
-10 10 -52 82 -52 90 0 3 5 5 11 5 5 0 7 -5 3 -12 -5 -7 -3 -8 5 -3 9 5 10 10
2 18 -7 7 -15 6 -27 -4 -10 -8 -15 -9 -11 -3 4 7 -4 19 -18 28 -14 9 -23 21
-20 26 4 6 2 10 -4 10 -5 0 -25 21 -42 48 -18 26 -38 50 -45 55 -7 4 -10 15
-7 24 4 10 2 14 -4 10 -6 -4 -16 6 -22 23 -5 17 -13 30 -16 30 -3 0 -3 -5 1
-12 4 -7 3 -8 -4 -4 -7 4 -12 13 -12 21 0 8 -5 17 -12 21 -7 5 -8 3 -3 -6 5
-9 4 -11 -3 -6 -7 4 -12 14 -12 22 0 8 -4 14 -10 14 -5 0 -7 7 -3 16 5 13 8
13 15 2 8 -10 9 -10 5 2 -2 8 -13 15 -25 15 -11 0 -27 6 -33 13 -7 6 -9 12 -5
12 5 0 3 6 -3 14 -8 10 -9 16 -1 21 5 3 10 11 10 18 0 6 -7 2 -15 -9 -13 -16
-16 -17 -25 -4 -5 8 -8 20 -5 27 2 7 -2 10 -11 6 -7 -3 -14 0 -14 7 0 7 -8 19
-17 27 -11 9 -12 12 -3 7 8 -4 5 4 -7 18 -13 13 -23 30 -23 37 0 7 -4 10 -9 6
-11 -6 -112 115 -106 126 3 4 -1 12 -9 18 -15 13 -16 28 -2 49 4 7 5 16 2 19
-3 4 -6 2 -6 -4 0 -18 -52 -9 -64 11 -18 33 -23 39 -64 86 -30 34 -38 52 -36
75 1 17 0 22 -3 13 -4 -18 -23 -25 -23 -10 0 4 -11 20 -25 35 -14 15 -22 27
-18 27 4 0 0 5 -9 11 -11 6 -15 16 -11 26 4 11 3 14 -5 9 -8 -5 -10 -1 -5 10
5 13 3 16 -9 11 -22 -8 -30 3 -16 20 8 11 7 12 -5 7 -12 -4 -20 2 -27 20 -5
14 -12 26 -15 26 -4 0 -3 -5 1 -12 4 -7 3 -8 -5 -4 -9 6 -9 11 0 22 9 12 9 13
-3 9 -9 -4 -25 8 -43 31 -16 21 -22 34 -14 29 12 -7 -64 81 -81 95 -4 3 -6 15
-5 27 1 19 -1 21 -14 11 -9 -7 -13 -9 -10 -5 4 5 -4 19 -17 32 -13 13 -24 31
-24 40 0 10 -5 13 -12 9 -9 -5 -8 -2 1 9 8 10 11 20 7 24 -3 3 -6 1 -6 -6 0
-8 -9 -6 -25 6 -14 10 -22 24 -19 33 3 8 2 11 -2 7 -11 -11 -36 31 -28 46 6 8
3 8 -9 -1 -14 -12 -16 -11 -12 8 2 13 1 20 -2 16 -10 -10 -72 54 -67 69 3 7
-6 20 -20 29 -24 15 -39 45 -16 31 20 -12 9 2 -27 36 -26 23 -32 26 -18 8 11
-14 5 -10 -12 9 -29 31 -37 62 -12 46 5 -3 7 -9 5 -13 -3 -4 2 -8 10 -8 10 0
11 4 5 10 -7 7 -7 15 -1 22 6 8 1 11 -20 9 -22 -1 -37 7 -64 37 -19 22 -35 42
-36 44 0 3 0 10 0 15 0 6 -7 10 -16 10 -8 0 -13 4 -10 9 4 5 -17 33 -45 61
-36 36 -49 57 -46 71 3 10 0 22 -5 26 -7 3 -8 1 -4 -5 4 -7 3 -12 -3 -12 -15
0 -24 20 -9 21 7 1 20 3 28 4 8 0 29 7 45 15 17 7 41 15 55 17 13 2 28 9 31
15 4 6 25 11 47 12 22 0 36 3 31 7 -6 3 -1 9 10 12 12 3 21 2 21 -2 0 -4 9 -7
21 -7 19 0 19 1 2 14 -16 13 -15 14 14 10 18 -2 30 -1 27 4 -3 4 0 8 5 8 6 0
11 -6 11 -12 0 -7 7 -3 15 9 11 16 70 43 70 32 0 -1 11 3 24 10 13 7 21 9 17
3 -9 -15 24 -24 40 -11 11 9 18 8 29 -1 9 -7 18 -10 22 -7 3 4 -2 9 -11 13 -9
3 -13 11 -9 18 4 6 -5 3 -20 -6 -30 -21 -40 -22 -35 -7 4 13 78 40 90 33 4 -3
19 3 33 12 24 15 25 15 26 -2 1 -17 2 -17 6 -1 5 18 23 24 23 7 0 -5 9 -1 20
10 11 11 27 20 35 20 8 0 15 4 15 8 0 5 20 6 45 2 24 -4 42 -3 39 2 -3 4 -15
8 -27 9 -15 1 -11 4 13 10 19 5 42 13 50 18 8 4 25 7 37 6 12 -1 20 2 17 6 -2
4 6 11 18 15 13 4 24 2 26 -5 2 -6 8 -11 14 -11 6 0 8 7 5 14 -4 11 -1 13 10
9 12 -5 14 -3 8 7 -5 8 -4 11 3 6 6 -3 13 -2 17 4 3 5 11 10 16 10 6 0 8 -4 5
-9 -4 -5 3 -7 15 -4 14 4 17 8 9 13 -8 5 5 11 31 15 24 4 49 10 54 13 14 9 37
14 62 13 12 0 25 4 28 9 3 6 -2 7 -12 4 -15 -5 -15 -4 -3 4 10 8 18 8 27 0 10
-8 19 -6 36 9 25 23 70 38 125 41 13 1 20 7 17 12 -3 6 -2 10 4 10 5 0 18 3
28 6 15 5 15 4 3 -5 -12 -8 -11 -10 7 -8 12 0 19 5 17 9 -3 4 4 8 14 8 11 0
25 7 32 16 10 11 24 14 54 10 30 -4 35 -3 21 3 -20 10 -7 16 24 12 7 -2 10 2
7 7 -3 6 8 9 28 8 19 -1 32 2 30 6 -2 3 0 9 6 13 5 3 10 2 10 -4 0 -6 7 -8 16
-4 13 5 13 8 2 15 -9 6 -6 7 10 3 12 -4 22 -2 22 4 0 6 7 8 15 5 8 -4 15 -2
15 3 0 9 14 13 53 14 9 0 15 4 12 8 -2 5 16 14 41 20 35 9 49 9 60 0 12 -10
13 -9 8 4 -6 17 26 31 62 27 11 -1 28 -1 39 0 l20 1 -20 8 c-20 8 -20 8 2 15
33 11 66 18 86 19 9 1 17 5 17 9 0 4 17 8 38 8 20 0 44 5 52 10 11 8 7 9 -15
5 -19 -3 -14 1 13 10 24 8 50 11 59 8 11 -4 14 -2 9 5 -5 8 -1 10 10 5 13 -5
15 -3 9 7 -5 7 -4 11 1 8 5 -3 18 -2 29 3 23 9 54 7 73 -4z m-1173 -357 c-3
-5 -11 -10 -16 -10 -6 0 -7 5 -4 10 3 6 11 10 16 10 6 0 7 -4 4 -10z m-6981
-306 c-21 -25 -40 -41 -44 -37 -7 8 -139 206 -154 232 -5 7 46 -24 113 -68
l122 -82 -37 -45z m12937 -500 c41 -27 83 -53 94 -59 34 -19 910 -567 918
-574 6 -6 -195 -195 -236 -222 -5 -4 9 -33 31 -66 l41 -60 -289 -101 c-158
-56 -295 -102 -303 -102 -8 0 -46 13 -83 29 -120 50 -304 127 -459 191 -82 34
-154 66 -158 70 -10 9 -7 16 173 490 73 190 141 371 153 403 12 33 26 56 33
53 6 -2 44 -26 85 -52z m-3381 -406 c0 -12 -6 -9 -26 13 -19 22 -19 22 4 8 12
-8 22 -17 22 -21z m-5295 -356 c121 -44 443 -162 715 -262 272 -100 585 -215
695 -255 110 -40 331 -121 490 -180 853 -312 1035 -380 1035 -387 0 -4 -451
-496 -1002 -1095 -1495 -1623 -1387 -1508 -1412 -1506 -54 7 -3582 687 -3588
692 -6 5 417 467 2061 2251 58 64 254 277 435 473 181 197 334 356 340 354 6
-2 110 -40 231 -85z m5555 63 c11 -13 10 -14 -4 -9 -9 3 -16 10 -16 15 0 13 6
11 20 -6z m-3053 -260 c0 -8 -4 -15 -9 -15 -10 0 -11 14 -1 23 9 10 10 9 10
-8z m460 -1061 c-9 -9 -28 6 -21 18 4 6 10 6 17 -1 6 -6 8 -13 4 -17z m4091
-359 c-3 -3 -9 2 -12 12 -6 14 -5 15 5 6 7 -7 10 -15 7 -18z m-1858 -789 c0
-3 -4 -8 -10 -11 -5 -3 -10 -1 -10 4 0 6 5 11 10 11 6 0 10 -2 10 -4z m-130
-40 c0 -3 -4 -8 -10 -11 -5 -3 -10 -1 -10 4 0 6 5 11 10 11 6 0 10 -2 10 -4z
m285 -216 l-6 -109 103 -52 c57 -28 195 -100 308 -159 113 -59 286 -149 385
-200 99 -51 203 -105 230 -120 28 -15 156 -82 285 -148 359 -185 340 -173 340
-202 0 -14 -7 -77 -15 -140 -9 -63 -45 -338 -80 -610 -36 -272 -83 -634 -105
-805 -64 -491 -200 -1538 -203 -1562 -2 -19 22 -37 142 -112 l144 -90 -79 -37
c-43 -20 -97 -44 -119 -54 -22 -9 -182 -83 -355 -162 -398 -184 -855 -394
-1265 -583 -176 -81 -357 -164 -402 -185 l-83 -39 0 -372 c0 -212 -4 -369 -9
-364 -4 6 -51 87 -103 180 -136 244 -392 700 -598 1065 -98 173 -332 590 -520
925 -188 336 -361 644 -385 685 -199 351 -678 1206 -692 1236 l-15 31 139 224
c577 923 837 1336 851 1350 11 10 162 51 397 107 508 122 1309 314 1525 367
96 24 179 44 184 44 5 1 5 -47 1 -109z m-3295 -299 c151 -170 282 -310 290
-310 8 -1 191 41 405 93 215 52 391 93 392 92 2 -1 -73 -124 -165 -272 -472
-756 -776 -1240 -784 -1249 -8 -9 -2128 -156 -2137 -149 -6 5 121 988 128 996
4 4 90 -9 191 -29 l184 -36 41 46 c22 25 281 307 575 627 l535 580 35 -40 c19
-22 159 -179 310 -349z m-5351 54 c39 -93 75 -176 80 -183 7 -11 660 -141
1834 -364 152 -29 277 -56 277 -59 0 -4 -30 -14 -67 -23 -38 -10 -320 -84
-628 -166 -1260 -335 -1677 -446 -2020 -536 -198 -53 -373 -100 -389 -105 -16
-5 -31 -8 -33 -6 -2 2 23 60 56 129 32 68 70 149 84 179 13 30 161 347 327
704 167 358 312 670 323 695 l20 45 32 -70 c18 -38 64 -146 104 -240z m15105
-722 c207 -309 373 -564 369 -566 -5 -3 -367 -100 -805 -216 l-797 -212 -521
267 c-286 147 -518 269 -516 272 19 18 1882 1030 1887 1024 3 -4 176 -260 383
-569z m-4610 -102 c50 -27 165 -87 256 -134 91 -47 365 -189 610 -317 245
-127 495 -256 556 -287 l110 -56 369 201 c203 111 373 202 377 202 9 0 414
-205 613 -310 50 -26 172 -89 273 -140 l183 -92 -5 -36 c-3 -21 -26 -194 -51
-387 -25 -192 -47 -366 -50 -385 -3 -19 -12 -89 -20 -155 -45 -347 -96 -739
-105 -805 -6 -41 -35 -266 -65 -500 -31 -234 -57 -441 -60 -460 -3 -19 -16
-125 -30 -235 -15 -110 -44 -333 -65 -495 -21 -162 -49 -374 -61 -470 -12 -96
-23 -176 -25 -178 -1 -2 -195 117 -431 264 -235 147 -817 510 -1293 807 -476
297 -1020 637 -1210 755 -190 118 -351 220 -359 228 -15 14 -19 -25 55 539 18
143 36 278 39 300 6 47 77 599 99 765 9 63 25 185 36 270 11 85 33 259 49 385
36 270 60 456 66 505 8 63 27 205 30 225 2 11 4 26 4 33 1 18 5 17 105 -37z
m-4963 -1033 c25 -46 139 -249 254 -453 114 -203 361 -642 548 -975 187 -333
370 -659 408 -725 37 -66 307 -545 600 -1065 l533 -945 4 -1363 c3 -1135 2
-1361 -10 -1357 -7 2 -834 259 -1838 571 l-1825 566 -565 -57 c-717 -72 -789
-79 -795 -73 -3 2 68 332 156 732 89 400 160 728 158 730 -2 2 -298 124 -656
272 -359 147 -650 271 -645 275 4 4 237 109 517 234 281 126 515 233 521 239
6 6 21 88 32 181 26 205 100 776 107 825 7 49 163 1250 180 1390 8 63 19 147
25 185 5 39 12 90 15 115 3 25 10 79 16 120 12 89 11 86 40 315 12 99 27 185
33 191 7 7 143 20 351 33 319 20 378 24 530 36 33 2 110 7 170 10 61 4 126 8
145 10 19 2 82 7 140 11 58 3 249 16 425 29 176 12 334 23 350 24 28 1 34 -5
76 -81z m-6673 -53 c-3 -3 -9 2 -12 12 -6 14 -5 15 5 6 7 -7 10 -15 7 -18z
m-8 -46 c0 -14 -3 -29 -7 -33 -5 -4 -9 -24 -9 -44 -1 -20 -5 -57 -9 -82 -5
-25 -9 -59 -9 -77 -1 -17 -5 -29 -10 -26 -4 3 -5 -5 -1 -17 5 -15 4 -20 -4
-16 -8 5 -8 0 -1 -19 6 -17 7 -24 0 -20 -6 4 -9 -11 -7 -37 2 -24 -4 -85 -14
-137 -9 -52 -15 -101 -12 -108 4 -9 0 -11 -13 -6 -16 5 -17 4 -7 -8 15 -19 11
-72 -7 -95 -10 -11 -10 -15 -2 -10 10 6 12 -1 6 -36 -3 -23 -7 -55 -9 -70 -4
-43 -5 -44 -15 -28 -7 10 -9 -17 -6 -85 3 -61 1 -92 -4 -80 -8 19 -13 -24 -14
-127 -1 -16 -4 -28 -8 -28 -4 0 -7 -19 -8 -42 -1 -89 -5 -113 -18 -110 -10 2
-10 -2 -2 -17 13 -25 13 -41 0 -21 -8 12 -10 10 -10 -8 0 -14 4 -21 11 -16 8
4 8 1 1 -13 -6 -11 -8 -30 -5 -41 3 -12 0 -29 -7 -37 -7 -9 -10 -28 -7 -48 3
-17 3 -26 0 -19 -9 22 -23 13 -15 -10 9 -29 7 -70 -8 -128 -6 -25 -9 -56 -7
-69 3 -14 0 -36 -5 -50 -9 -23 -18 -98 -22 -173 0 -14 -3 -25 -7 -23 -3 2 -5
-15 -4 -38 1 -23 -3 -60 -8 -82 -4 -22 -11 -71 -13 -110 -3 -38 -6 -75 -6 -82
-1 -7 -5 -10 -10 -7 -4 3 -7 -25 -7 -62 1 -36 -3 -69 -9 -73 -5 -3 -9 -22 -9
-41 1 -38 -11 -124 -20 -147 -4 -11 -8 -10 -19 4 -8 10 -5 0 6 -22 17 -34 18
-46 9 -75 -6 -19 -12 -60 -14 -90 -2 -30 -11 -93 -19 -139 -9 -46 -13 -88 -10
-92 8 -14 -8 -60 -19 -56 -6 2 -14 14 -18 28 -5 17 -7 19 -8 6 -1 -11 8 -32
19 -47 16 -22 18 -34 11 -53 -6 -14 -10 -34 -11 -44 0 -18 -5 -58 -16 -140 -3
-24 -7 -60 -9 -80 -2 -21 -6 -54 -9 -73 -4 -19 -9 -57 -11 -85 -10 -107 -14
-127 -25 -140 -8 -9 -10 -28 -6 -49 4 -19 3 -37 -2 -40 -5 -3 -7 -26 -4 -51 3
-28 1 -45 -6 -45 -5 0 -8 -9 -5 -20 3 -11 1 -20 -5 -20 -7 0 -10 -21 -8 -55 2
-31 0 -58 -5 -60 -4 -3 -5 -21 -3 -41 2 -20 -1 -43 -7 -50 -7 -8 -9 -29 -6
-47 3 -19 2 -38 -1 -43 -10 -13 -35 -17 -27 -4 3 5 1 10 -5 10 -6 0 -8 5 -4
12 4 7 3 8 -5 4 -6 -4 -18 -2 -26 4 -8 7 -15 9 -15 6 0 -4 -5 -4 -11 -1 -7 5
-4 13 7 26 13 15 14 19 3 23 -26 8 -47 3 -42 -11 4 -10 9 -11 19 -2 8 7 17 9
20 6 3 -3 -3 -10 -14 -16 -15 -8 -23 -7 -31 3 -6 7 -31 26 -56 42 -25 15 -45
34 -45 41 0 7 -5 13 -11 13 -5 0 -7 -5 -3 -12 4 -6 -4 -3 -18 8 -17 13 -22 21
-14 26 6 5 0 8 -14 8 -26 1 -64 23 -54 32 3 3 -7 9 -21 12 -16 4 -23 11 -19
18 5 7 2 9 -9 5 -17 -7 -41 15 -29 28 4 5 -1 5 -10 2 -20 -7 -25 8 -5 17 6 4
2 4 -10 2 -12 -2 -27 2 -34 10 -11 13 -8 17 9 12 4 -2 6 -6 5 -10 -2 -4 4 -5
12 -1 13 5 13 7 -2 18 -15 11 -21 11 -38 -3 -11 -9 -17 -13 -13 -8 4 5 -11 19
-34 30 -41 21 -65 50 -35 44 9 -2 17 1 19 6 2 5 -7 10 -19 11 -12 1 -22 -1
-21 -4 2 -20 -5 -18 -31 11 -20 23 -26 35 -18 40 9 6 9 8 0 8 -23 0 -24 -21
-1 -41 13 -11 -5 -1 -39 21 -35 23 -63 44 -63 47 0 3 6 0 13 -6 10 -8 14 -7
14 3 0 9 -8 13 -22 10 -14 -2 -30 5 -45 21 -13 13 -28 22 -34 19 -6 -3 -3 1 7
9 16 13 16 15 2 21 -9 3 -13 2 -10 -4 3 -6 2 -10 -4 -10 -5 0 -13 5 -16 10 -4
6 -10 8 -15 5 -10 -6 -32 29 -24 38 3 3 0 8 -7 13 -7 4 -10 3 -6 -3 4 -6 0
-14 -9 -17 -8 -3 -12 -2 -9 4 3 6 -6 15 -20 20 -14 5 -24 14 -21 19 4 5 -2 7
-12 4 -10 -2 -26 5 -36 16 -11 12 -25 21 -31 21 -7 0 -19 8 -26 18 -13 16 -12
16 6 2 15 -10 17 -11 8 0 -10 11 -10 17 0 29 8 9 2 8 -18 -5 -30 -18 -30 -18
-15 0 14 18 14 19 -5 9 -16 -9 -25 -6 -50 15 -16 14 -29 30 -27 35 2 5 -5 7
-15 3 -16 -5 -15 -4 1 9 22 17 40 20 31 5 -4 -6 1 -7 11 -3 15 5 15 7 0 15
-10 6 -27 3 -48 -8 -18 -9 -30 -13 -26 -9 8 8 -17 37 -29 33 -13 -4 -54 28
-45 36 4 5 0 6 -8 5 -8 -2 -32 7 -52 19 -39 24 -47 34 -25 28 6 -1 9 -1 4 1
-4 3 -5 8 -2 12 2 5 -8 7 -23 5 -24 -2 -25 -1 -10 10 15 11 15 13 -2 24 -14 9
-21 9 -26 0 -4 -6 -3 -8 4 -4 6 3 13 2 17 -4 9 -14 -7 -12 -43 6 -39 19 -49
34 -25 34 17 1 17 1 0 11 -10 6 -23 8 -30 6 -20 -7 -49 13 -43 30 5 12 3 13
-6 5 -14 -11 -53 9 -41 21 3 4 1 8 -5 8 -7 1 -16 2 -22 3 -5 0 -10 4 -10 9 0
4 2 6 3 5 2 -2 11 3 20 11 26 21 10 32 -22 13 -27 -15 -30 -15 -55 1 -15 10
-24 22 -21 27 4 6 -1 7 -11 3 -13 -5 -16 -2 -11 9 4 12 1 14 -14 11 -10 -3
-19 0 -19 6 0 6 -7 11 -16 11 -8 0 -12 5 -9 11 5 7 12 6 23 -4 10 -8 23 -12
30 -10 22 8 -19 31 -47 26 -16 -3 -33 5 -55 24 -16 15 -24 19 -16 9 9 -11 -5
-5 -32 14 -40 28 -46 36 -35 49 11 14 10 14 -5 3 -15 -12 -21 -11 -42 6 l-25
19 21 10 22 10 -22 5 c-12 4 -20 3 -17 -2 3 -4 -2 -10 -9 -13 -10 -4 -14 0
-11 12 3 14 -2 17 -21 13 -13 -2 -24 0 -24 4 0 5 -14 15 -30 22 -17 8 -28 18
-24 23 3 5 -2 9 -10 9 -9 0 -16 4 -16 10 0 5 -6 9 -12 7 -7 -1 -12 3 -11 10 2
8 -4 10 -15 6 -14 -6 -15 -4 -4 9 16 20 -3 37 -21 19 -9 -9 -8 -11 3 -8 8 2
12 2 8 0 -10 -6 -18 -4 -17 3 0 4 -17 15 -38 25 -59 29 -108 69 -108 87 0 12
-8 16 -27 14 -15 -1 -30 3 -34 9 -4 7 -3 9 3 6 11 -7 11 29 0 39 -4 4 -1 14 6
23 10 14 10 14 -5 3 -9 -7 -15 -22 -13 -33 4 -22 -7 -25 -27 -6 -7 6 -20 13
-28 15 -24 6 -40 23 -40 43 0 10 -9 21 -20 24 -11 3 -20 11 -20 16 0 6 -7 6
-19 0 -14 -8 -23 -6 -36 9 -10 11 -24 20 -31 20 -7 0 -19 9 -27 20 -8 11 -18
17 -23 13 -5 -4 -4 -2 3 6 12 14 37 6 28 -9 -3 -5 0 -12 6 -16 8 -4 9 -3 5 4
-4 7 -1 12 6 12 7 0 0 9 -17 20 -16 11 -34 20 -40 20 -5 0 -3 -5 5 -10 13 -8
13 -10 -1 -10 -9 0 -33 11 -53 25 -62 42 -101 70 -106 76 -3 3 -13 9 -24 12
-10 4 -16 13 -12 22 3 8 1 17 -5 20 -5 4 -7 10 -4 15 3 5 0 12 -6 16 -8 4 -9
3 -5 -4 9 -15 -6 -16 -21 -1 -8 8 -13 7 -18 -2 -5 -7 -4 -10 1 -6 5 3 20 -3
33 -12 16 -12 20 -21 12 -25 -6 -4 -11 -2 -11 3 0 6 -15 18 -32 26 -61 30 -78
40 -78 46 0 4 -9 5 -20 2 -10 -3 -41 0 -67 6 -26 6 -82 12 -125 13 -42 2 -75
5 -73 8 2 3 -13 6 -33 8 -20 1 -41 7 -46 12 -12 12 -29 13 -23 3 3 -5 -8 -9
-24 -10 -16 -1 -27 1 -25 6 3 4 -5 6 -17 4 -12 -2 -42 1 -67 7 -25 5 -67 12
-95 15 -74 7 -75 7 -75 19 0 8 -3 8 -8 0 -5 -7 -39 -6 -112 3 -58 8 -115 14
-128 13 -14 0 -20 4 -16 11 4 7 -8 9 -39 6 -25 -3 -48 -2 -51 1 -3 3 -34 7
-69 10 -34 2 -72 4 -83 5 -14 1 -20 7 -17 17 3 9 -2 8 -13 -5 -10 -12 -15 -14
-12 -5 3 8 -1 22 -10 30 -14 12 -15 12 -10 -6 4 -17 1 -20 -21 -18 -14 1 -35
3 -46 3 -17 1 -18 3 -5 12 12 8 9 9 -10 4 -31 -8 -31 -8 -105 0 -127 13 -128
14 -113 75 5 25 11 65 12 90 0 28 5 44 13 43 8 -2 9 6 3 26 -4 15 -4 34 0 42
7 13 20 118 24 196 1 18 7 38 14 45 6 6 12 19 11 27 0 12 -3 10 -9 -4 -7 -14
-7 -7 -3 20 4 22 7 51 6 65 -1 14 3 30 8 36 5 6 9 27 9 45 0 32 3 69 15 149 3
19 8 55 10 80 3 25 8 63 11 85 3 22 5 51 5 65 0 14 6 45 14 70 8 25 13 61 11
80 -1 19 4 55 11 80 8 25 11 60 8 78 -4 20 -1 39 6 48 6 8 9 23 6 34 -3 11 -2
20 3 20 4 0 10 18 12 39 2 23 -1 37 -6 34 -5 -4 -7 1 -3 11 4 10 7 25 8 34 0
14 2 13 9 -3 7 -17 9 -14 9 13 1 24 -3 31 -11 26 -9 -5 -10 -4 -3 3 15 16 55
26 55 14 0 -6 7 -7 17 -4 11 4 14 3 9 -5 -4 -7 -2 -10 6 -8 7 2 29 7 48 10 27
5 31 3 20 -5 -12 -9 -12 -10 3 -5 53 17 70 19 62 6 -5 -8 -4 -11 2 -7 14 9
105 17 115 10 5 -3 80 -7 166 -10 86 -2 177 -5 202 -7 25 -2 145 -5 267 -6
122 -2 220 -7 217 -12 -7 -10 -1 -10 30 2 17 6 27 6 32 -1 5 -8 9 -8 13 0 5 8
19 9 47 2 21 -5 30 -9 20 -10 -11 -1 -17 -3 -14 -6 2 -3 25 -1 51 4 31 5 50 5
58 -3 9 -8 10 -8 5 2 -5 9 4 12 33 12 23 0 41 -4 41 -10 0 -5 -6 -10 -12 -10
-7 0 -5 -5 5 -11 10 -6 21 -8 24 -5 4 3 1 6 -5 6 -6 0 -9 6 -7 13 8 19 288 15
312 -4 11 -9 14 -10 9 -1 -5 8 1 12 23 12 16 0 32 -6 34 -12 4 -10 7 -10 14
-1 10 15 236 6 227 -9 -3 -4 0 -8 5 -8 6 0 11 3 11 8 0 10 132 9 148 -1 7 -5
9 -13 6 -19 -4 -7 -2 -8 4 -4 6 4 8 14 5 23 -5 13 -2 15 11 10 10 -4 30 -9 44
-12 23 -5 24 -4 7 4 -26 12 -10 13 37 2 21 -5 38 -5 40 0 2 5 20 4 41 -2 20
-5 42 -7 49 -3 7 5 9 2 5 -9 -4 -11 -2 -14 8 -10 8 3 13 9 10 13 -3 4 13 7 35
6 22 0 40 -4 40 -8 0 -5 5 -8 11 -8 5 0 7 5 4 10 -3 6 1 10 9 10 9 0 16 -5 16
-11 0 -8 4 -8 13 -1 8 7 18 7 27 2 8 -6 24 -9 35 -9 l20 0 -20 10 c-17 8 -16
9 5 3 14 -3 104 -7 200 -10 96 -2 222 -6 280 -9 58 -3 229 -8 380 -12 378 -9
365 -8 363 -19 -1 -7 31 -6 88 1 49 6 89 8 89 4 0 -4 90 -6 201 -5 110 1 225
-1 254 -4 30 -3 51 -2 49 2 -3 4 0 8 6 8 6 0 8 5 4 12 -5 7 -3 8 5 4 7 -5 10
-14 8 -20 -3 -7 1 -13 8 -13 9 0 11 6 6 16 -5 9 -6 22 -3 30 3 8 0 11 -7 7 -7
-5 -9 -1 -5 8 3 9 11 13 17 9 6 -3 7 -1 3 5 -4 7 -4 18 1 25 4 6 8 17 8 22 1
6 6 9 12 8 10 -2 29 51 25 70 -3 10 12 9 24 -3 7 -7 11 -6 11 4 0 8 -4 13 -8
10 -4 -2 -10 0 -14 6 -3 5 -1 10 4 10 6 0 10 3 9 8 -4 14 13 52 24 52 5 0 8 6
5 13 -3 8 -1 20 5 28 7 11 8 9 3 -6 -5 -16 -4 -18 7 -7 7 7 13 23 13 35 0 32
46 138 56 131 8 -5 14 18 10 40 -1 5 6 3 15 -5 16 -13 16 -12 5 9 -7 13 -8 22
-2 22 6 0 8 8 5 18 -5 14 -4 15 5 2 6 -8 11 -27 11 -41z m-892 -506 c-10 -2
-28 -2 -40 0 -13 2 -5 4 17 4 22 1 32 -1 23 -4z m769 -405 c-3 -8 -6 -5 -6 6
-1 11 2 17 5 13 3 -3 4 -12 1 -19z m-2971 -1632 c10 -8 17 -17 14 -19 -3 -3
-16 3 -29 14 -27 22 -15 26 15 5z m18874 -966 c0 -4 -33 -66 -73 -137 -77
-136 -95 -167 -343 -608 -468 -834 -741 -1320 -826 -1472 l-79 -142 342 -453
c189 -249 406 -536 483 -638 138 -182 139 -193 11 -71 -33 31 -195 182 -360
336 -165 153 -359 334 -431 402 l-131 123 -6 62 c-4 35 -32 349 -62 698 -31
349 -73 831 -94 1070 -21 239 -37 437 -35 438 1 2 62 -33 134 -78 72 -44 137
-83 145 -86 14 -6 78 22 510 216 633 285 800 358 807 354 4 -3 8 -9 8 -14z
m-12635 -489 c176 -73 356 -147 400 -165 44 -19 187 -78 318 -131 131 -54 234
-101 230 -105 -4 -4 -93 -22 -198 -40 -275 -46 -699 -119 -1520 -261 -126 -21
-360 -62 -520 -89 -159 -28 -472 -82 -695 -120 -223 -39 -462 -80 -532 -92
l-127 -21 -56 34 c-30 18 -55 36 -55 39 0 3 82 43 183 87 156 69 908 407 1031
462 23 11 174 78 336 151 162 72 333 149 380 170 47 21 164 74 260 117 96 44
186 84 200 90 14 7 30 10 35 8 6 -1 154 -62 330 -134z m-3755 -654 c0 -7 -7
-20 -14 -30 -12 -15 -14 -15 -19 -3 -4 9 0 22 8 30 8 7 11 17 7 21 -4 5 -1 5
6 1 6 -4 12 -13 12 -19z m-50 -97 c-12 -23 -16 -39 -9 -34 9 5 10 2 6 -10 -4
-10 -3 -15 4 -11 5 4 7 16 3 27 -4 14 -2 18 5 14 7 -5 11 2 11 16 0 13 7 32
15 42 14 18 15 18 15 2 0 -9 -5 -27 -12 -39 -6 -12 -16 -67 -21 -122 -5 -55
-10 -111 -11 -125 -2 -14 -4 -33 -4 -42 -3 -24 -22 -23 -22 1 0 11 -4 22 -9
25 -4 3 -6 -6 -3 -21 3 -18 1 -24 -6 -19 -8 5 -10 1 -5 -9 5 -13 7 -14 14 -3
7 10 9 9 9 -4 0 -10 4 -18 9 -18 6 0 6 -11 0 -29 -5 -15 -9 -34 -7 -42 2 -8
-3 -14 -9 -13 -39 3 -44 5 -39 13 3 5 -1 12 -10 15 -10 4 -13 2 -9 -7 4 -6 1
-5 -7 3 -7 8 -22 22 -32 30 -18 13 -19 13 -12 0 4 -9 2 -8 -7 2 -8 10 -16 16
-18 14 -2 -3 -15 3 -28 13 -21 16 -22 19 -7 34 9 9 18 20 19 24 1 4 6 7 10 5
5 -1 6 6 2 17 -4 14 0 23 15 31 14 8 19 17 15 28 -4 12 1 10 18 -6 13 -12 27
-22 33 -22 5 0 -2 9 -15 19 -19 14 -22 24 -17 45 9 35 32 28 29 -9 -1 -15 1
-25 4 -21 10 10 12 67 3 61 -5 -3 -11 -1 -15 5 -3 5 -1 10 4 10 6 0 11 7 11
16 0 14 2 15 17 3 9 -8 14 -9 10 -2 -10 16 3 44 17 36 6 -4 5 0 -2 9 -11 13
-11 21 -1 40 7 13 17 26 23 30 6 4 12 12 12 18 3 22 4 24 15 13 8 -8 5 -23
-11 -53z m7003 -1371 c551 -171 1541 -479 2199 -683 659 -205 1200 -374 1202
-377 5 -5 -3811 -1019 -3834 -1019 -11 0 -2051 1039 -2335 1190 -38 20 -430
221 -869 446 -440 225 -793 410 -785 411 8 2 307 32 664 68 923 93 1879 190
2310 234 204 21 387 39 408 40 24 1 400 -111 1040 -310z m3457 -1131 c-1 -31
-138 -1049 -141 -1052 -4 -3 -272 -69 -1484 -367 -198 -49 -533 -132 -745
-184 -371 -92 -819 -202 -1362 -336 -142 -35 -259 -61 -261 -59 -4 5 122 982
126 986 1 1 277 75 612 164 336 89 887 235 1225 325 338 90 881 234 1205 320
325 86 637 169 695 185 122 33 130 34 130 18z m7724 -1492 c3 -13 33 -124 66
-247 32 -123 58 -224 57 -226 -2 -1 -108 95 -236 215 l-234 216 149 32 c186
40 190 40 198 10z m-20578 -1385 c14 -11 21 -22 16 -25 -5 -3 -20 6 -32 19
-28 30 -18 33 16 6z"/>
<path d="M16275 22170 c-3 -6 1 -7 9 -4 18 7 21 14 7 14 -6 0 -13 -4 -16 -10z"/>
<path d="M16232 22050 c0 -14 2 -19 5 -12 2 6 2 18 0 25 -3 6 -5 1 -5 -13z"/>
<path d="M16190 22008 c0 -9 -6 -19 -12 -21 -10 -4 -10 -6 0 -6 14 -1 28 26
18 36 -3 4 -6 -1 -6 -9z"/>
<path d="M16221 22004 c0 -11 3 -14 6 -6 3 7 2 16 -1 19 -3 4 -6 -2 -5 -13z"/>
<path d="M16252 21965 c0 -16 2 -22 5 -12 2 9 2 23 0 30 -3 6 -5 -1 -5 -18z"/>
<path d="M16271 21904 c0 -11 3 -14 6 -6 3 7 2 16 -1 19 -3 4 -6 -2 -5 -13z"/>
<path d="M13050 16861 c0 -5 -8 -12 -17 -14 -10 -2 -6 -3 10 -1 15 2 27 0 27
-5 0 -5 7 -11 15 -15 20 -7 19 -4 -4 22 -20 23 -31 28 -31 13z"/>
<path d="M13860 16835 c0 -5 5 -17 10 -25 5 -8 10 -10 10 -5 0 6 -5 17 -10 25
-5 8 -10 11 -10 5z"/>
<path d="M12781 16786 c2 -2 18 -6 34 -10 22 -5 26 -4 15 4 -14 9 -59 15 -49
6z"/>
<path d="M13937 16729 c4 -13 8 -18 11 -10 2 7 -1 18 -6 23 -8 8 -9 4 -5 -13z"/>
<path d="M12565 16710 c-19 -8 -19 -9 2 -9 12 -1 25 4 28 9 7 12 -2 12 -30 0z"/>
<path d="M13970 16706 c0 -9 8 -14 20 -13 11 1 20 2 20 4 0 1 -9 7 -20 13 -16
8 -20 8 -20 -4z"/>
<path d="M12578 16683 c7 -3 16 -2 19 1 4 3 -2 6 -13 5 -11 0 -14 -3 -6 -6z"/>
<path d="M13920 16681 c0 -6 4 -13 10 -16 6 -3 7 1 4 9 -7 18 -14 21 -14 7z"/>
<path d="M12615 16670 c-16 -7 -17 -9 -3 -9 9 -1 20 4 23 9 7 11 7 11 -20 0z"/>
<path d="M14045 16636 c15 -14 24 -29 21 -34 -3 -5 1 -9 9 -9 8 0 11 5 8 11
-11 20 -46 56 -55 56 -5 0 3 -11 17 -24z"/>
<path d="M12338 16603 c7 -3 16 -2 19 1 4 3 -2 6 -13 5 -11 0 -14 -3 -6 -6z"/>
<path d="M12085 16550 c-13 -6 -15 -9 -5 -9 8 0 22 4 30 9 18 12 2 12 -25 0z"/>
<path d="M12138 16553 c7 -3 16 -2 19 1 4 3 -2 6 -13 5 -11 0 -14 -3 -6 -6z"/>
<path d="M14129 16541 c8 -5 10 -14 6 -22 -6 -11 -5 -11 5 -2 14 12 6 33 -13
33 -8 0 -7 -3 2 -9z"/>
<path d="M12008 16513 c7 -3 16 -2 19 1 4 3 -2 6 -13 5 -11 0 -14 -3 -6 -6z"/>
<path d="M14254 16366 c0 -12 6 -23 13 -23 9 0 10 4 3 12 -5 7 -7 14 -4 17 3
3 1 8 -3 11 -5 3 -9 -5 -9 -17z"/>
<path d="M11580 16350 c-9 -6 -10 -10 -3 -10 6 0 15 5 18 10 8 12 4 12 -15 0z"/>
<path d="M11330 16296 c0 -2 7 -7 16 -10 8 -3 12 -2 9 4 -6 10 -25 14 -25 6z"/>
<path d="M14323 16287 c0 -8 6 -14 14 -14 9 0 10 4 2 14 -6 7 -12 13 -14 13
-1 0 -2 -6 -2 -13z"/>
<path d="M11300 16280 c0 -6 7 -10 15 -10 8 0 15 2 15 4 0 2 -7 6 -15 10 -8 3
-15 1 -15 -4z"/>
<path d="M11302 16210 c7 -11 17 -20 22 -20 5 0 1 9 -9 20 -10 11 -20 20 -22
20 -2 0 2 -9 9 -20z"/>
<path d="M14406 16203 c-6 -14 -5 -15 5 -6 7 7 10 15 7 18 -3 3 -9 -2 -12 -12z"/>
<path d="M11417 16084 c-8 -8 3 -34 15 -34 7 0 6 5 -1 13 -6 8 -8 17 -4 20 3
4 4 7 1 7 -2 0 -7 -3 -11 -6z"/>
<path d="M14565 16050 c-3 -5 -5 -10 -3 -11 33 -8 38 -7 27 7 -14 17 -16 17
-24 4z"/>
<path d="M14600 16000 c0 -5 5 -10 11 -10 5 0 7 5 4 10 -3 6 -8 10 -11 10 -2
0 -4 -4 -4 -10z"/>
<path d="M14628 15951 c12 -10 18 -22 14 -26 -4 -5 -1 -5 6 -1 11 6 10 12 -4
27 -9 10 -22 19 -27 19 -6 0 0 -8 11 -19z"/>
<path d="M14684 15885 c8 -8 18 -15 22 -15 3 0 1 7 -6 15 -7 8 -17 15 -22 15
-5 0 -3 -7 6 -15z"/>
<path d="M11650 15835 c-7 -8 -9 -15 -6 -15 4 0 14 7 22 15 9 8 11 15 6 15 -5
0 -15 -7 -22 -15z"/>
<path d="M14740 15846 c0 -2 8 -10 18 -17 15 -13 16 -12 3 4 -13 16 -21 21
-21 13z"/>
<path d="M14726 15813 c-4 -10 -4 -14 0 -10 4 4 13 2 21 -4 8 -7 13 -8 13 -1
0 5 -6 15 -14 21 -11 9 -15 8 -20 -6z"/>
<path d="M11620 15806 c0 -8 4 -17 9 -20 5 -4 7 3 4 14 -6 23 -13 26 -13 6z"/>
<path d="M14805 15769 c-4 -5 0 -18 9 -28 19 -21 21 -35 4 -25 -7 4 -10 3 -5
-1 4 -5 16 -9 27 -10 17 -1 17 1 -6 28 -13 16 -22 33 -18 38 3 5 3 9 0 9 -3 0
-8 -5 -11 -11z"/>
<path d="M14861 15725 c15 -16 24 -36 22 -42 -3 -7 -3 -13 0 -13 3 0 7 6 10
14 3 8 -9 26 -26 42 l-32 29 26 -30z"/>
<path d="M11731 15686 c-8 -10 -9 -16 -1 -21 6 -4 9 -1 8 7 -2 7 3 12 10 10 8
-1 11 2 7 8 -8 13 -10 13 -24 -4z"/>
<path d="M14930 15629 c-13 -9 -13 -10 1 -6 9 3 23 0 30 -6 11 -10 11 -9 0 6
-7 9 -14 17 -15 17 0 0 -8 -5 -16 -11z"/>
<path d="M11787 15591 c-11 -14 -10 -15 7 -1 18 14 19 13 13 -2 -4 -11 -2 -15
7 -12 17 6 16 31 -1 31 -7 0 -19 -7 -26 -16z"/>
<path d="M14966 15583 c-6 -14 -5 -15 5 -6 7 7 10 15 7 18 -3 3 -9 -2 -12 -12z"/>
<path d="M14990 15570 c-8 -5 -12 -12 -9 -15 4 -3 12 1 19 10 14 17 11 19 -10
5z"/>
<path d="M11876 15523 c-6 -14 -5 -15 5 -6 7 7 10 15 7 18 -3 3 -9 -2 -12 -12z"/>
<path d="M15040 15481 c0 -6 4 -13 10 -16 6 -3 7 1 4 9 -7 18 -14 21 -14 7z"/>
<path d="M15129 15403 c-13 -16 -12 -17 4 -4 16 13 21 21 13 21 -2 0 -10 -8
-17 -17z"/>
<path d="M11945 15370 c3 -5 8 -10 11 -10 2 0 4 5 4 10 0 6 -5 10 -11 10 -5 0
-7 -4 -4 -10z"/>
<path d="M15200 15343 c0 -4 5 -15 10 -23 8 -13 10 -13 10 2 0 9 -4 20 -10 23
-5 3 -10 3 -10 -2z"/>
<path d="M15238 15290 c5 -14 18 -27 28 -28 17 -3 17 -2 4 10 -8 7 -21 20 -28
28 -11 13 -12 11 -4 -10z"/>
<path d="M15210 15290 c0 -17 17 -47 23 -40 2 3 -2 16 -10 30 -7 14 -13 18
-13 10z"/>
<path d="M15270 15240 c-12 -7 -10 -9 7 -7 12 0 19 5 17 9 -6 10 -6 10 -24 -2z"/>
<path d="M15207 15229 c7 -7 15 -10 18 -7 3 3 -2 9 -12 12 -14 6 -15 5 -6 -5z"/>
<path d="M12120 15201 c0 -5 5 -13 10 -16 6 -3 10 -2 10 4 0 5 -4 13 -10 16
-5 3 -10 2 -10 -4z"/>
<path d="M12100 15180 c0 -5 5 -10 11 -10 5 0 7 5 4 10 -3 6 -8 10 -11 10 -2
0 -4 -4 -4 -10z"/>
<path d="M12205 15110 c-3 -5 -1 -10 4 -10 6 0 11 5 11 10 0 6 -2 10 -4 10 -3
0 -8 -4 -11 -10z"/>
<path d="M12155 15100 c3 -5 8 -10 11 -10 2 0 4 5 4 10 0 6 -5 10 -11 10 -5 0
-7 -4 -4 -10z"/>
<path d="M12180 15088 c0 -9 5 -20 10 -23 13 -8 13 5 0 25 -8 13 -10 13 -10
-2z"/>
<path d="M12219 15047 c6 -8 9 -17 6 -21 -3 -3 0 -2 6 3 12 10 4 31 -13 31 -7
0 -7 -4 1 -13z"/>
<path d="M15497 15006 c-3 -8 -2 -18 3 -21 13 -8 20 9 11 24 -6 10 -10 9 -14
-3z"/>
<path d="M15440 15006 c0 -2 7 -7 16 -10 8 -3 12 -2 9 4 -6 10 -25 14 -25 6z"/>
<path d="M12256 14968 c3 -5 10 -6 15 -3 13 9 11 12 -6 12 -8 0 -12 -4 -9 -9z"/>
<path d="M15566 14931 c-4 -5 -2 -12 3 -15 5 -4 12 -2 15 3 4 5 2 12 -3 15 -5
4 -12 2 -15 -3z"/>
<path d="M12347 14886 c-9 -22 12 -55 34 -53 18 1 15 12 -14 51 -13 17 -14 17
-20 2z m33 -38 c0 -6 -7 -5 -15 2 -8 7 -15 17 -15 22 0 6 7 5 15 -2 8 -7 15
-17 15 -22z"/>
<path d="M12436 14823 c-6 -14 -5 -15 5 -6 7 7 10 15 7 18 -3 3 -9 -2 -12 -12z"/>
<path d="M12386 14807 c3 -10 9 -15 12 -12 3 3 0 11 -7 18 -10 9 -11 8 -5 -6z"/>
<path d="M12410 14790 c0 -5 5 -10 11 -10 5 0 7 5 4 10 -3 6 -8 10 -11 10 -2
0 -4 -4 -4 -10z"/>
<path d="M15684 14758 c-6 -9 -6 -9 22 -12 11 -1 21 3 21 9 0 12 -36 15 -43 3z"/>
<path d="M12566 14568 c3 -5 10 -6 15 -3 13 9 11 12 -6 12 -8 0 -12 -4 -9 -9z"/>
<path d="M12616 14568 c3 -5 10 -6 15 -3 13 9 11 12 -6 12 -8 0 -12 -4 -9 -9z"/>
<path d="M12675 14490 c-3 -6 1 -7 9 -4 9 3 16 1 16 -5 0 -6 -5 -11 -12 -11
-6 0 -8 -3 -5 -6 4 -4 14 -1 22 6 13 11 13 15 3 21 -17 11 -26 11 -33 -1z"/>
<path d="M16005 14450 c10 -11 20 -20 23 -20 3 0 -3 9 -13 20 -10 11 -20 20
-23 20 -3 0 3 -9 13 -20z"/>
<path d="M12760 14405 c0 -8 2 -15 4 -15 2 0 6 7 10 15 3 8 1 15 -4 15 -6 0
-10 -7 -10 -15z"/>
<path d="M12781 14364 c0 -11 3 -14 6 -6 3 7 2 16 -1 19 -3 4 -6 -2 -5 -13z"/>
<path d="M12770 14316 c0 -2 8 -10 18 -17 15 -13 16 -12 3 4 -13 16 -21 21
-21 13z"/>
<path d="M16116 14302 c-4 -7 -11 -10 -16 -7 -5 3 -12 0 -16 -7 -4 -7 -4 -10
1 -6 4 4 15 2 23 -5 13 -10 14 -9 7 2 -6 11 -4 13 8 8 9 -3 19 -1 23 5 4 6 3
8 -4 4 -5 -3 -12 -1 -14 6 -3 9 -6 9 -12 0z"/>
<path d="M16323 14036 c0 -7 11 -12 24 -12 15 0 20 3 13 10 -14 14 -37 16 -37
2z"/>
<path d="M16490 13900 c0 -5 5 -10 11 -10 5 0 7 5 4 10 -3 6 -8 10 -11 10 -2
0 -4 -4 -4 -10z"/>
<path d="M12696 13788 c3 -5 10 -6 15 -3 13 9 11 12 -6 12 -8 0 -12 -4 -9 -9z"/>
<path d="M12590 13710 c-9 -6 -10 -10 -3 -10 6 0 15 5 18 10 8 12 4 12 -15 0z"/>
<path d="M12551 13634 c0 -11 3 -14 6 -6 3 7 2 16 -1 19 -3 4 -6 -2 -5 -13z"/>
<path d="M16760 13591 c0 -5 5 -13 10 -16 6 -3 10 -2 10 4 0 5 -4 13 -10 16
-5 3 -10 2 -10 -4z"/>
<path d="M16740 13571 c0 -6 4 -13 10 -16 6 -3 7 1 4 9 -7 18 -14 21 -14 7z"/>
<path d="M12440 13534 c0 -7 9 -22 20 -35 25 -31 26 -12 0 21 -11 14 -20 20
-20 14z"/>
<path d="M12386 13493 c-6 -14 -5 -15 5 -6 7 7 10 15 7 18 -3 3 -9 -2 -12 -12z"/>
<path d="M16805 13490 c-3 -5 -1 -10 4 -10 6 0 11 5 11 10 0 6 -2 10 -4 10 -3
0 -8 -4 -11 -10z"/>
<path d="M12339 13442 c-17 -21 -14 -48 8 -56 13 -6 14 -4 3 10 -11 13 -11 19
-1 36 16 26 9 33 -10 10z"/>
<path d="M16886 13401 c-4 -5 -2 -12 3 -15 5 -4 12 -2 15 3 4 5 2 12 -3 15 -5
4 -12 2 -15 -3z"/>
<path d="M12208 13265 c-3 -6 2 -18 11 -27 16 -16 17 -16 17 2 0 10 -3 17 -7
14 -4 -2 -9 1 -11 8 -3 7 -7 8 -10 3z"/>
<path d="M17030 13242 c0 -5 7 -9 15 -9 8 0 12 4 9 9 -3 4 -9 8 -15 8 -5 0 -9
-4 -9 -8z"/>
<path d="M16848 13203 c7 -3 16 -2 19 1 4 3 -2 6 -13 5 -11 0 -14 -3 -6 -6z"/>
<path d="M16898 13203 c7 -3 16 -2 19 1 4 3 -2 6 -13 5 -11 0 -14 -3 -6 -6z"/>
<path d="M16948 13193 c7 -3 16 -2 19 1 4 3 -2 6 -13 5 -11 0 -14 -3 -6 -6z"/>
<path d="M12090 13175 c-9 -11 -9 -15 -1 -15 7 0 10 -4 7 -8 -3 -5 1 -9 9 -9
11 0 12 4 4 13 -6 7 -8 18 -4 24 9 15 -1 12 -15 -5z"/>
<path d="M16808 13163 c6 -2 18 -2 25 0 6 3 1 5 -13 5 -14 0 -19 -2 -12 -5z"/>
<path d="M16498 13123 c7 -3 16 -2 19 1 4 3 -2 6 -13 5 -11 0 -14 -3 -6 -6z"/>
<path d="M16548 13113 c6 -2 18 -2 25 0 6 3 1 5 -13 5 -14 0 -19 -2 -12 -5z"/>
<path d="M12005 13077 c-16 -17 -20 -23 -7 -12 12 10 22 14 22 9 0 -5 5 -1 11
9 17 30 6 27 -26 -6z"/>
<path d="M16308 13053 c7 -3 16 -2 19 1 4 3 -2 6 -13 5 -11 0 -14 -3 -6 -6z"/>
<path d="M16218 13043 c6 -2 18 -2 25 0 6 3 1 5 -13 5 -14 0 -19 -2 -12 -5z"/>
<path d="M11937 13006 c-15 -22 -15 -24 0 -22 9 2 17 12 18 24 2 28 1 27 -18
-2z"/>
<path d="M15860 12960 c-18 -12 -2 -12 25 0 13 6 15 9 5 9 -8 0 -22 -4 -30 -9z"/>
<path d="M15488 12893 c7 -3 16 -2 19 1 4 3 -2 6 -13 5 -11 0 -14 -3 -6 -6z"/>
<path d="M15513 12873 c9 -2 23 -2 30 0 6 3 -1 5 -18 5 -16 0 -22 -2 -12 -5z"/>
<path d="M15200 12801 c0 -10 30 -24 37 -17 3 2 -5 9 -16 16 -12 6 -21 7 -21
1z"/>
<path d="M15148 12783 c7 -3 16 -2 19 1 4 3 -2 6 -13 5 -11 0 -14 -3 -6 -6z"/>
<path d="M11661 12661 c-8 -14 -7 -22 7 -32 14 -11 15 -11 5 1 -8 9 -9 19 -2
32 5 10 7 18 5 18 -3 0 -10 -9 -15 -19z"/>
<path d="M14490 12630 c8 -5 22 -9 30 -9 10 0 8 3 -5 9 -27 12 -43 12 -25 0z"/>
<path d="M14238 12553 c6 -2 18 -2 25 0 6 3 1 5 -13 5 -14 0 -19 -2 -12 -5z"/>
<path d="M14198 12543 c7 -3 16 -2 19 1 4 3 -2 6 -13 5 -11 0 -14 -3 -6 -6z"/>
<path d="M11797 12488 c7 -8 10 -17 7 -21 -3 -3 0 -5 8 -4 14 3 23 22 11 22
-5 0 -15 4 -23 10 -12 7 -13 6 -3 -7z"/>
<path d="M13863 12485 c0 -7 6 -11 14 -8 7 3 13 6 13 8 0 2 -6 5 -13 8 -8 3
-14 -1 -14 -8z"/>
<path d="M13795 12480 c-3 -6 1 -7 9 -4 18 7 21 14 7 14 -6 0 -13 -4 -16 -10z"/>
<path d="M13950 12480 c8 -5 20 -10 25 -10 6 0 3 5 -5 10 -8 5 -19 10 -25 10
-5 0 -3 -5 5 -10z"/>
<path d="M11889 12403 c-13 -16 -12 -17 4 -4 10 8 17 9 17 3 0 -6 -4 -13 -8
-16 -13 -8 -8 -39 10 -65 11 -16 17 -19 21 -9 4 10 10 8 21 -6 9 -11 16 -15
16 -9 0 7 -5 15 -10 18 -6 4 -8 10 -6 14 3 4 -1 8 -9 8 -8 0 -15 -5 -15 -10 0
-5 -6 -5 -13 2 -15 12 -16 38 -3 60 14 21 -9 34 -25 14z"/>
<path d="M11855 12400 c-8 -13 3 -30 18 -30 8 0 7 3 -2 9 -7 5 -10 14 -7 20 4
6 5 11 2 11 -3 0 -8 -4 -11 -10z"/>
<path d="M13577 12399 c7 -7 15 -10 18 -7 3 3 -2 9 -12 12 -14 6 -15 5 -6 -5z"/>
<path d="M13468 12393 c7 -3 16 -2 19 1 4 3 -2 6 -13 5 -11 0 -14 -3 -6 -6z"/>
<path d="M13133 12303 c9 -2 23 -2 30 0 6 3 -1 5 -18 5 -16 0 -22 -2 -12 -5z"/>
<path d="M11940 12294 c0 -6 8 -18 18 -27 16 -15 19 -15 30 4 12 18 11 19 -7
10 -16 -9 -22 -8 -30 6 -6 10 -11 13 -11 7z"/>
<path d="M13148 12283 c7 -3 16 -2 19 1 4 3 -2 6 -13 5 -11 0 -14 -3 -6 -6z"/>
<path d="M12880 12256 c0 -2 7 -7 16 -10 8 -3 12 -2 9 4 -6 10 -25 14 -25 6z"/>
<path d="M12011 12243 c3 -20 -2 -27 -11 -13 -5 8 -10 10 -10 4 0 -7 11 -19
23 -27 23 -15 24 -15 19 9 -2 13 -8 27 -13 30 -5 3 -9 2 -8 -3z"/>
<path d="M12048 12209 c2 -16 7 -31 11 -34 4 -2 5 9 3 26 -2 16 -7 31 -11 34
-4 2 -5 -9 -3 -26z"/>
<path d="M12500 12166 c0 -2 7 -7 16 -10 8 -3 12 -2 9 4 -6 10 -25 14 -25 6z"/>
<path d="M12106 12126 c21 -15 30 -14 19 3 -3 6 -14 11 -23 11 -13 0 -13 -2 4
-14z"/>
<path d="M5289 10158 c4 -28 6 -29 9 -9 2 13 0 27 -5 32 -6 6 -7 -3 -4 -23z"/>
<path d="M5311 10154 c0 -11 3 -14 6 -6 3 7 2 16 -1 19 -3 4 -6 -2 -5 -13z"/>
<path d="M5256 10125 c-3 -8 -1 -15 4 -15 6 0 10 7 10 15 0 8 -2 15 -4 15 -2
0 -6 -7 -10 -15z"/>
<path d="M5270 10042 c0 -7 -7 -9 -17 -5 -15 5 -16 3 -5 -8 9 -10 15 -10 24
-1 6 6 9 15 5 19 -4 3 -7 1 -7 -5z"/>
<path d="M5177 9909 c4 -13 8 -18 11 -10 2 7 -1 18 -6 23 -8 8 -9 4 -5 -13z"/>
<path d="M1568 9823 c7 -3 16 -2 19 1 4 3 -2 6 -13 5 -11 0 -14 -3 -6 -6z"/>
<path d="M1980 9816 c0 -2 7 -7 16 -10 8 -3 12 -2 9 4 -6 10 -25 14 -25 6z"/>
<path d="M2040 9816 c0 -2 11 -6 25 -8 13 -3 22 -1 19 3 -5 9 -44 13 -44 5z"/>
<path d="M2378 9813 c7 -3 16 -2 19 1 4 3 -2 6 -13 5 -11 0 -14 -3 -6 -6z"/>
<path d="M2625 9800 c-13 -5 -14 -9 -5 -9 8 0 24 4 35 9 13 5 14 9 5 9 -8 0
-24 -4 -35 -9z"/>
<path d="M2128 9793 c12 -2 30 -2 40 0 9 3 -1 5 -23 4 -22 0 -30 -2 -17 -4z"/>
<path d="M2368 9793 c7 -3 16 -2 19 1 4 3 -2 6 -13 5 -11 0 -14 -3 -6 -6z"/>
<path d="M4298 9743 c7 -3 16 -2 19 1 4 3 -2 6 -13 5 -11 0 -14 -3 -6 -6z"/>
<path d="M4711 9741 c-12 -8 -9 -11 11 -16 15 -4 35 -5 45 -2 10 3 2 5 -17 6
-27 1 -31 4 -20 11 8 5 11 10 5 10 -5 0 -17 -4 -24 -9z"/>
<path d="M4788 9743 c7 -3 16 -2 19 1 4 3 -2 6 -13 5 -11 0 -14 -3 -6 -6z"/>
<path d="M4870 9740 c-8 -5 -10 -10 -5 -10 6 0 17 5 25 10 8 5 11 10 5 10 -5
0 -17 -5 -25 -10z"/>
<path d="M4808 9723 c6 -2 18 -2 25 0 6 3 1 5 -13 5 -14 0 -19 -2 -12 -5z"/>
<path d="M5050 9720 c0 -5 -7 -7 -15 -4 -8 4 -15 4 -15 1 0 -13 30 -14 40 -1
9 10 9 14 1 14 -6 0 -11 -4 -11 -10z"/>
<path d="M5087 9717 c-3 -8 1 -14 9 -14 7 0 11 4 8 8 -2 4 2 10 8 12 8 4 7 6
-3 6 -9 1 -19 -5 -22 -12z"/>
<path d="M4968 9713 c6 -2 18 -2 25 0 6 3 1 5 -13 5 -14 0 -19 -2 -12 -5z"/>
<path d="M5210 9559 c0 -5 5 -7 10 -4 6 3 10 8 10 11 0 2 -4 4 -10 4 -5 0 -10
-5 -10 -11z"/>
<path d="M387 9270 c3 -11 7 -20 9 -20 2 0 4 9 4 20 0 11 -4 20 -9 20 -5 0 -7
-9 -4 -20z"/>
<path d="M382 9200 c0 -14 2 -19 5 -12 2 6 2 18 0 25 -3 6 -5 1 -5 -13z"/>
<path d="M312 8900 c0 -14 2 -19 5 -12 2 6 2 18 0 25 -3 6 -5 1 -5 -13z"/>
<path d="M290 8676 c0 -8 4 -17 9 -20 5 -4 7 3 4 14 -6 23 -13 26 -13 6z"/>
<path d="M5057 8431 c-4 -17 -3 -21 5 -13 5 5 8 16 6 23 -3 8 -7 3 -11 -10z"/>
<path d="M5051 8264 c0 -11 3 -14 6 -6 3 7 2 16 -1 19 -3 4 -6 -2 -5 -13z"/>
<path d="M218 8243 c7 -3 16 -2 19 1 4 3 -2 6 -13 5 -11 0 -14 -3 -6 -6z"/>
<path d="M338 8233 c7 -3 16 -2 19 1 4 3 -2 6 -13 5 -11 0 -14 -3 -6 -6z"/>
<path d="M378 8223 c7 -3 16 -2 19 1 4 3 -2 6 -13 5 -11 0 -14 -3 -6 -6z"/>
<path d="M475 8210 c-3 -6 1 -7 9 -4 18 7 21 14 7 14 -6 0 -13 -4 -16 -10z"/>
<path d="M1081 8164 c0 -11 3 -14 6 -6 3 7 2 16 -1 19 -3 4 -6 -2 -5 -13z"/>
<path d="M938 8163 c7 -3 16 -2 19 1 4 3 -2 6 -13 5 -11 0 -14 -3 -6 -6z"/>
<path d="M1110 8161 c12 -9 13 -11 1 -11 -8 0 -12 -2 -10 -5 3 -2 18 0 35 4
16 5 21 10 12 10 -9 1 -25 4 -35 7 -15 5 -15 4 -3 -5z"/>
<path d="M975 8150 c-16 -7 -17 -9 -3 -9 9 -1 20 4 23 9 7 11 7 11 -20 0z"/>
<path d="M1678 8083 c7 -3 16 -2 19 1 4 3 -2 6 -13 5 -11 0 -14 -3 -6 -6z"/>
<path d="M1718 8073 c6 -2 18 -2 25 0 6 3 1 5 -13 5 -14 0 -19 -2 -12 -5z"/>
<path d="M1768 8073 c6 -2 18 -2 25 0 6 3 1 5 -13 5 -14 0 -19 -2 -12 -5z"/>
<path d="M1678 8063 c7 -3 16 -2 19 1 4 3 -2 6 -13 5 -11 0 -14 -3 -6 -6z"/>
<path d="M1781 8046 c2 -2 18 -6 34 -10 22 -5 26 -4 15 4 -14 9 -59 15 -49 6z"/>
<path d="M4971 7794 c0 -11 3 -14 6 -6 3 7 2 16 -1 19 -3 4 -6 -2 -5 -13z"/>
<path d="M2196 7758 c3 -5 10 -6 15 -3 13 9 11 12 -6 12 -8 0 -12 -4 -9 -9z"/>
<path d="M2296 7705 c-6 -18 29 -41 39 -25 4 6 3 10 -2 9 -22 -4 -32 2 -27 16
4 8 4 15 1 15 -3 0 -7 -7 -11 -15z"/>
<path d="M2498 7603 c6 -2 18 -2 25 0 6 3 1 5 -13 5 -14 0 -19 -2 -12 -5z"/>
<path d="M2535 7580 c3 -5 8 -10 11 -10 2 0 4 5 4 10 0 6 -5 10 -11 10 -5 0
-7 -4 -4 -10z"/>
<path d="M4975 7539 c-4 -6 -5 -12 -2 -15 2 -3 7 2 10 11 7 17 1 20 -8 4z"/>
<path d="M2576 7523 c-4 -11 -1 -11 14 -3 24 13 25 17 5 17 -8 0 -16 -6 -19
-14z"/>
<path d="M2680 7453 c8 -3 22 -11 30 -17 13 -10 13 -9 1 7 -7 9 -21 17 -30 16
-13 0 -14 -1 -1 -6z"/>
<path d="M2830 7376 c0 -2 7 -7 16 -10 8 -3 12 -2 9 4 -6 10 -25 14 -25 6z"/>
<path d="M2845 7330 c-3 -6 1 -7 9 -4 18 7 21 14 7 14 -6 0 -13 -4 -16 -10z"/>
<path d="M2913 7285 c0 -6 8 -11 17 -11 9 0 17 5 17 11 0 6 -8 11 -17 11 -9 0
-17 -5 -17 -11z"/>
<path d="M3298 7033 c7 -3 16 -2 19 1 4 3 -2 6 -13 5 -11 0 -14 -3 -6 -6z"/>
<path d="M3560 6861 c0 -5 5 -13 10 -16 6 -3 10 -2 10 4 0 5 -4 13 -10 16 -5
3 -10 2 -10 -4z"/>
<path d="M3527 6849 c7 -7 15 -10 18 -7 3 3 -2 9 -12 12 -14 6 -15 5 -6 -5z"/>
<path d="M4855 6630 c-3 -5 -1 -10 4 -10 6 0 11 5 11 10 0 6 -2 10 -4 10 -3 0
-8 -4 -11 -10z"/>
<path d="M4822 6600 c0 -14 2 -19 5 -12 2 6 2 18 0 25 -3 6 -5 1 -5 -13z"/>
<path d="M4125 6485 c-16 -8 -23 -14 -14 -15 8 0 24 7 35 15 23 18 18 18 -21
0z"/>
<path d="M4465 6211 c-3 -5 -2 -12 3 -15 5 -3 9 1 9 9 0 17 -3 19 -12 6z"/>
<path d="M4530 6159 c0 -5 5 -7 10 -4 6 3 10 8 10 11 0 2 -4 4 -10 4 -5 0 -10
-5 -10 -11z"/>
<path d="M4775 6010 c-3 -5 -1 -10 4 -10 6 0 11 5 11 10 0 6 -2 10 -4 10 -3 0
-8 -4 -11 -10z"/>
<path d="M4635 5310 c-3 -5 -1 -10 4 -10 6 0 11 5 11 10 0 6 -2 10 -4 10 -3 0
-8 -4 -11 -10z"/>
<path d="M4530 5281 c0 -5 5 -13 10 -16 6 -3 10 -2 10 4 0 5 -4 13 -10 16 -5
3 -10 2 -10 -4z"/>
<path d="M4552 5210 c2 -8 -2 -14 -9 -15 -6 0 -15 -3 -18 -7 -4 -4 5 -5 21 -2
36 7 38 8 19 24 -13 11 -16 11 -13 0z"/>
<path d="M4498 5203 c7 -3 16 -2 19 1 4 3 -2 6 -13 5 -11 0 -14 -3 -6 -6z"/>
<path d="M15650 23165 c0 -2 6 -8 13 -14 10 -8 14 -7 14 2 0 8 -6 14 -14 14
-7 0 -13 -1 -13 -2z"/>
<path d="M15784 23125 c36 -19 47 -19 22 0 -11 8 -27 15 -35 15 -9 0 -3 -7 13
-15z"/>
<path d="M15870 23050 c-9 -6 -10 -10 -3 -10 6 0 15 5 18 10 8 12 4 12 -15 0z"/>
<path d="M15935 22971 c-3 -5 0 -13 6 -17 8 -5 9 -3 4 6 -5 8 -3 11 6 8 8 -3
13 -10 12 -16 -2 -6 4 -9 12 -5 13 5 13 7 -2 19 -22 16 -30 17 -38 5z"/>
<path d="M16055 22891 c-3 -5 -2 -12 3 -15 5 -3 9 1 9 9 0 17 -3 19 -12 6z"/>
<path d="M16080 22892 c0 -10 50 -35 57 -28 3 2 -9 12 -26 21 -17 8 -31 12
-31 7z"/>
<path d="M16385 22730 c6 -10 4 -12 -8 -7 -21 8 -22 3 -3 -12 10 -9 15 -8 19
3 4 9 1 18 -5 22 -7 5 -8 2 -3 -6z"/>
<path d="M16358 22688 c-7 -16 18 -35 30 -23 3 3 0 5 -6 5 -6 0 -12 8 -14 18
-3 15 -4 16 -10 0z"/>
<path d="M1945 370 l-20 -9 20 0 c17 -1 17 -3 5 -11 -21 -13 -6 -12 25 2 18 8
22 14 13 20 -15 9 -17 9 -43 -2z"/>
<path d="M2029 362 c12 -8 11 -11 -3 -15 -15 -4 -15 -5 1 -3 19 1 21 19 1 24
-10 3 -10 1 1 -6z"/>
<path d="M2070 346 c0 -2 8 -10 18 -17 15 -13 16 -12 3 4 -13 16 -21 21 -21
13z"/>
<path d="M2119 322 c11 -21 10 -22 -13 -18 -20 4 -23 1 -19 -12 5 -11 8 -12
11 -4 2 8 8 10 15 3 8 -6 16 -5 23 3 7 8 5 17 -9 31 -20 20 -20 20 -8 -3z"/>
<path d="M1658 273 c7 -3 16 -2 19 1 4 3 -2 6 -13 5 -11 0 -14 -3 -6 -6z"/>
<path d="M2134 268 c-4 -7 -4 -10 1 -6 4 4 14 3 21 -3 9 -7 14 -6 20 3 4 7 4
10 -1 6 -4 -4 -14 -3 -21 3 -9 7 -14 6 -20 -3z"/>
<path d="M2193 219 c10 -14 14 -30 10 -34 -5 -5 -1 -4 8 3 9 6 19 8 24 4 4 -4
2 4 -4 16 -7 13 -15 21 -18 18 -4 -3 -13 0 -21 7 -12 9 -12 6 1 -14z"/>
<path d="M1518 223 c7 -3 16 -2 19 1 4 3 -2 6 -13 5 -11 0 -14 -3 -6 -6z"/>
<path d="M2174 200 c0 -13 4 -16 10 -10 7 7 7 13 0 20 -6 6 -10 3 -10 -10z"/>
<path d="M1290 150 c-13 -8 -13 -10 2 -10 9 0 20 5 23 10 8 13 -5 13 -25 0z"/>
<path d="M1298 123 c7 -3 16 -2 19 1 4 3 -2 6 -13 5 -11 0 -14 -3 -6 -6z"/>
<path d="M1070 50 c-21 -7 -21 -8 -5 -9 11 0 27 4 35 9 18 11 5 11 -30 0z"/>
<path d="M2335 30 c-3 -5 -1 -10 4 -10 6 0 11 5 11 10 0 6 -2 10 -4 10 -3 0
-8 -4 -11 -10z"/>
</g>
</svg>
