<?xml version="1.0" encoding="UTF-8" standalone="no"?>
<!-- Created with Inkscape (http://www.inkscape.org/) -->

<svg
   version="1.1"
   id="svg1"
   width="409.17059"
   height="405.74548"
   viewBox="0 0 409.17059 405.74548"
   sodipodi:docname="ICon3.svg"
   inkscape:version="1.3.2 (091e20e, 2023-11-25)"
   xmlns:inkscape="http://www.inkscape.org/namespaces/inkscape"
   xmlns:sodipodi="http://sodipodi.sourceforge.net/DTD/sodipodi-0.dtd"
   xmlns="http://www.w3.org/2000/svg"
   xmlns:svg="http://www.w3.org/2000/svg">
  <defs
     id="defs1" />
  <sodipodi:namedview
     id="namedview1"
     pagecolor="#ffffff"
     bordercolor="#000000"
     borderopacity="0.25"
     inkscape:showpageshadow="2"
     inkscape:pageopacity="0.0"
     inkscape:pagecheckerboard="0"
     inkscape:deskcolor="#d1d1d1"
     inkscape:zoom="0.93152929"
     inkscape:cx="456.77576"
     inkscape:cy="640.88162"
     inkscape:window-width="1392"
     inkscape:window-height="971"
     inkscape:window-x="501"
     inkscape:window-y="25"
     inkscape:window-maximized="0"
     inkscape:current-layer="g1" />
  <g
     inkscape:groupmode="layer"
     inkscape:label="Image"
     id="g1"
     transform="translate(-145.36005,-447.15436)">
    <g
       id="g12"
       inkscape:export-filename="../../../Desktop/icon3.jpg"
       inkscape:export-xdpi="96"
       inkscape:export-ydpi="96">
      <g
         id="g13">
        <g
           id="g19">
          <path
             style="fill:#0b233f;fill-opacity:1"
             d="m 336.44964,852.31245 c -63.32547,-3.99271 -120.52567,-36.28875 -154.86323,-87.43796 -26.66703,-39.7232 -37.9826,-78.43425 -36.00696,-123.18137 2.41143,-54.61756 20.84199,-97.29643 58.18088,-134.72702 27.94567,-28.0143 64.18054,-47.88443 102.40569,-56.15625 16.12198,-3.48875 51.52313,-4.7733 70.55892,-2.56027 67.21971,7.8147 129.01561,50.6226 157.02626,108.77687 14.92295,30.98227 20.81824,56.85421 20.77927,91.1915 -0.0581,51.20312 -18.24593,101.05811 -49.42938,135.49197 -18.39824,20.31597 -39.17965,36.26837 -61.98479,47.58127 -17.30342,8.58368 -24.61722,11.22293 -43.33333,15.63722 -23.7046,5.59084 -39.18337,6.90671 -63.33333,5.38404 z m 39.33333,-9.8982 c 62.68277,-9.54994 112.45179,-42.1356 142.63391,-93.3878 9.07677,-15.41323 14.79324,-28.82507 19.98027,-46.87721 5.53509,-19.26345 7.04317,-30.67849 7.10628,-53.78946 0.0614,-22.47184 -1.82211,-36.39829 -9.18899,-59.48606 -4.36621,-13.68367 -6.94253,-19.77528 -12.32294,-30.2551 -11.95797,-23.58355 -34.26334,-48.83391 -58.99696,-66.78633 -21.33793,-15.48773 -53.07938,-28.50398 -81.87824,-33.57589 -17.90338,-3.15305 -49.93101,-3.13297 -67.92291,0.0426 -22.08831,3.89857 -47.43179,13.49806 -68.07709,25.78594 -38.81834,23.10429 -71.88551,65.83888 -84.58288,109.31124 -10.56937,36.18667 -10.58623,75.38606 -0.0478,111.20138 3.41849,11.61789 17.49989,41.58363 24.4317,51.5597 16.32576,23.49559 -2.25463,-3.36593 10.74267,15.55876 0.47763,0.69546 7.65652,8.2163 13.36325,14.05046 16.94996,17.32847 37.75806,31.8443 58.75976,40.99107 13.89989,6.05376 38.41402,13.07558 52,14.89487 6.6,0.8838 12.9,1.78491 14,2.00247 5.85939,1.15888 28.95139,0.44267 40,-1.24063 z m -41.24219,-8.95323 c -25.83294,-2.42872 -55.63093,-11.54022 -76.72536,-23.46075 -27.04841,-15.28515 -52.60975,-40.86956 -68.57577,-68.63769 -26.99617,-46.95175 -32.14834,-99.88427 -14.86897,-152.76119 21.80346,-66.72115 84.96647,-115.53026 159.25164,-123.06143 42.98443,-4.35784 94.09181,10.02239 129.57318,36.45837 38.55055,28.72273 62.65249,69.02549 70.77326,118.3456 3.33228,20.23802 1.86553,53.48611 -3.23581,73.34919 -4.58991,17.87169 -11.56424,35.50365 -19.25013,48.66666 -12.25122,20.98171 -33.30255,43.92525 -53.17417,57.95376 -34.41456,24.2952 -82.0962,37.06528 -123.76787,33.14748 z"
             id="path9"
             sodipodi:nodetypes="sssssssssssssssssssssssssssssssssssssssssss" />
        </g>
      </g>
    </g>
    <g
       id="g9"
       transform="matrix(0.3798808,0,0,0.42225489,228.1536,360.44899)"
       style="fill:#ffffff;fill-opacity:1">
      <path
         d="m 409.90792,717.8528 c 4.17924,-3.9078 3.45747,-9.255 -1.53642,-11.3826 -2.24221,-0.9553 -14.87687,-1.4902 -35.19734,-1.4902 -35.21223,0 -38.03792,0.5928 -38.03792,7.9804 0,7.772 1.17188,8.0196 37.95439,8.0196 33.2148,0 33.49862,-0.024 36.81729,-3.1272 z M 253.85697,699.6467 c 2.75229,-2.5736 2.85191,-4.4445 2.85191,-53.5617 0,-56.6246 0.14389,-55.7717 -9.40883,-55.7717 -9.10732,0 -9.12854,0.1295 -9.12854,55.6906 v 49.764 l 3.50005,3.2727 c 4.24352,3.9679 8.37054,4.1732 12.18541,0.6061 z m 248.97165,1.6462 c 4.46801,-2.7896 4.84781,-7.2125 4.84781,-56.4536 0,-55.2438 0.12387,-54.526 -9.40883,-54.526 -9.10732,0 -9.12854,0.1295 -9.12854,55.6906 v 49.764 l 3.50007,3.2727 c 3.49885,3.2716 7.2344,4.0973 10.18949,2.2523 z m -45.84074,-10.9557 c 5.1211,-1.8205 7.23336,-7.4226 4.35013,-11.5372 l -2.20968,-3.1533 H 420.46188 381.7954 l 0.89921,-7 c 0.49456,-3.85 0.90479,-8.8864 0.9116,-11.192 l 0.0124,-4.1919 27.44957,-0.4922 c 25.24027,-0.4526 27.99444,-0.7417 34.21905,-3.592 17.73318,-8.12 26.56844,-31.454 18.42654,-48.6646 -6.21855,-13.1449 -21.60294,-23.528 -34.87467,-23.5372 -4.09935,0 -5.00801,-0.7675 -8.64461,-7.2754 -10.64745,-19.05398 -32.88827,-29.65538 -54.74737,-26.09602 -11.30634,1.84103 -15.84749,3.915 -24.04774,10.98272 -7.72755,6.6604 -11.64159,12.476 -14.78006,21.9607 l -2.42827,7.3384 -7.71746,0.241 c -31.6571,0.9888 -47.02385,38.0096 -24.51384,59.0575 8.66284,8.1002 12.32986,8.9001 43.53297,9.4969 l 28.16255,0.5385 v 11.2128 11.2128 h -37.31895 c -32.72461,0 -37.63999,0.2716 -39.92666,2.2066 -3.71806,3.1463 -3.23234,7.8071 1.14949,11.0299 3.70088,2.7221 4.9709,2.7635 84.75132,2.7635 49.55911,0 82.42366,-0.5082 84.67741,-1.3095 z M 322.61995,620.2377 c -6.30097,-4.1267 -2.47358,-15.2577 5.24638,-15.2577 5.10867,0 9.17118,4.2256 9.17118,9.5393 0,7.0135 -7.74793,10.0866 -14.41756,5.7184 z m 50.52502,-11.0294 c -3.37302,-3.485 -2.91706,-7.8286 1.22869,-11.705 2.44955,-2.2905 4.48074,-3.0908 6.39924,-2.5215 2.46852,0.7326 2.70908,0.3595 1.97643,-3.0658 -1.78972,-8.3674 7.60446,-16.5311 15.70786,-13.6503 5.5446,1.9712 9.70171,8.052 9.15685,13.3942 -0.47051,4.6133 -0.38536,4.6979 4.22426,4.1947 8.70381,-0.9501 13.92552,8.2948 7.67331,13.5854 -5.6877,4.813 -15.92967,1.2534 -15.92967,-5.5364 0,-2.5946 -0.3476,-2.7183 -3.6654,-1.3048 -2.71936,1.1585 -4.74356,1.181 -7.84273,0.087 -3.8788,-1.369 -4.17735,-1.2512 -4.17735,1.6479 0,6.6895 -9.8459,9.943 -14.75149,4.8744 z M 252.07454,569.3189 c 0.98033,-1.2001 1.78243,-5.6672 1.78243,-9.9271 v -7.74509 h 6.9718 c 7.95273,0 12.36036,-2.65294 13.78928,-8.29978 0.73696,-2.91228 0.0635,-4.43339 -3.39438,-7.66667 -3.62345,-3.3881 -5.41517,-4.02887 -11.19671,-4.00427 -8.34151,0.0355 -17.42176,3.6698 -21.61105,8.64969 -2.64455,3.14364 -3.09631,5.39111 -3.09631,15.40402 0,11.1557 0.18692,11.8609 3.85965,14.5622 4.30395,3.1656 9.85656,2.7466 12.89529,-0.973 z m 255.70982,0.2128 c 3.07176,-3.0641 3.44934,-4.6227 3.38862,-13.9878 -0.0805,-12.41934 -2.27235,-16.21057 -12.08139,-20.8972 -13.47301,-6.43721 -27.06396,-2.57654 -27.06396,7.68784 0,6.65072 3.81224,9.31217 13.33861,9.31217 h 7.00023 l -0.78213,5.45249 c -0.97794,6.8175 1.03642,12.4418 5.1162,14.2849 4.96708,2.2439 7.38179,1.8404 11.08382,-1.8524 z"
         style="mix-blend-mode:normal;fill:#ffffff;fill-opacity:1;stroke-width:1.03415"
         id="path1" />
    </g>
    <path
       d="m 423.21979,786.0662 c -1.07993,-2.07112 -1.24123,-3.20176 -0.67766,-4.75018 1.5324,-4.21021 4.3621,-5.30856 9.16908,-3.55896 3.71291,1.35138 5.30164,4.63977 3.98686,8.2521 -2.08217,5.72073 -9.50739,5.75468 -12.47828,0.057 z m 15.56226,-10.28136 c -2.75834,-3.50547 -6.81887,-5.27031 -11.8266,-5.14022 -2.52173,0.0655 -2.73433,-0.0209 -3.57275,-1.45162 -0.4903,-0.83669 -0.61877,-2.01316 -0.28549,-2.61436 0.75896,-1.36909 5.50998,-2.00955 9.12146,-1.22962 5.77623,1.24741 12.28795,6.94867 12.76755,11.17849 0.16865,1.48725 -0.018,1.79387 -1.28053,2.1037 -2.0435,0.50146 -2.4945,0.24073 -4.92364,-2.84637 z m 10.10772,-5.12643 c -0.961,-1.63676 -2.85194,-3.9719 -4.2021,-5.18919 -3.38067,-3.04798 -9.81816,-5.81767 -13.50533,-5.81058 -3.55161,0.007 -5.80788,-1.68201 -5.0455,-3.77659 1.22894,-3.37652 13.74948,-1.1808 20.04879,3.51595 3.89299,2.90258 8.06259,8.10155 8.47364,10.56555 0.92284,5.53196 -2.6751,5.96531 -5.76951,0.69488 z m 9.39693,-6.94103 c -4.794,-8.29323 -16.02525,-15.05841 -25.60197,-15.42141 -2.85013,-0.10803 -4.17086,-0.41937 -4.87285,-1.14864 -1.21763,-1.26501 -0.44614,-3.48398 1.44592,-4.15886 3.81678,-1.36132 17.03999,2.22425 23.09724,6.26302 6.81816,4.54608 13.15117,13.20142 11.99122,16.38838 -1.07065,2.94156 -3.73685,2.09566 -6.0596,-1.9225 z m 9.65979,-6.72702 c -2.60079,-4.5111 -7.80499,-9.88796 -12.67367,-13.09416 -5.25479,-3.46046 -17.32092,-7.38533 -22.78386,-7.41114 -4.40266,-0.0208 -6.22552,-0.52177 -6.94929,-1.90981 -1.48725,-2.85229 1.39547,-4.05799 8.73902,-3.6551 4.7762,0.26202 6.4989,0.68092 14.19723,3.4522 7.96277,2.8665 9.1289,3.4446 12.79255,6.34221 4.89831,3.87412 8.86488,8.3086 11.72269,13.10556 2.28927,3.84266 2.56459,6.28112 0.81339,7.20421 -1.86229,0.98161 -3.69335,-0.2793 -5.85806,-4.03397 z"
       style="fill:#ffffff;fill-opacity:1;stroke-width:0.477198"
       id="path1-0" />
    <g
       id="g11"
       transform="translate(9.3949712,-27.090345)">
      <g
         id="g10"
         transform="matrix(0.25265797,0,0,0.3064126,391.92897,404.17282)">
        <path
           d="m -528.32004,980.5766 c 2.88046,-2.88195 5.23705,-6.71384 5.23705,-8.51535 0,-2.89588 -1.52337,-3.27537 -13.14871,-3.27537 h -13.14854 v -32.60872 -32.60875 l 11.62152,-8.89172 11.62155,-8.89171 7.95989,5.73615 c 4.37791,3.15486 10.2815,4.48475 11.37502,5.73615 l 12.00448,-7.43369 c -4.32312,-3.12778 -17.90545,-14.51505 -17.99966,-15.32228 -0.0941,-0.80722 8.9864,-9.23159 20.1792,-18.72086 l 20.35034,-17.25318 12.62169,-9.18573 -13.54473,-12.24862 13.99866,-11.79302 14.62181,-9.24062 -12.40156,-12.78095 -14.96882,10.55522 -17.46072,13.10764 -30.17497,-24.91729 -30.17487,-24.91729 -31.67465,26.54643 -31.67463,26.54644 -23.57836,-13.1001 -11.51252,12.29281 c 15.33689,8.32977 23.82906,11.76504 22.93303,15.71124 -0.54876,2.41679 -2.38568,8.57711 -1.03618,9.94606 2.1441,2.17504 -7.89595,2.54975 -79.59494,2.97058 -75.61485,0.4438 -82.33167,0.71998 -85.65901,3.52215 -3.33315,2.80706 -3.61045,7.80462 -3.61045,65.07157 v 62.03094 l -12.13722,0.49638 c -10.59582,0.43324 -12.21484,0.95412 -12.74842,4.10202 -0.39889,2.35304 1.58764,5.16347 5.71808,8.08951 l 6.32932,4.48386 h 137.22021 137.22019 z M -772.5517,960.854 c -1.69131,-1.42394 -1.77732,-93.64158 -0.0922,-98.93527 l 1.21975,-3.83188 h 83.24967 83.24969 l 17.50371,14.90178 17.50371,14.9018 -0.62541,36.61583 -0.6254,36.61585 -100.00809,0.44142 c -55.00444,0.24282 -100.62335,-0.0768 -101.37535,-0.70953 z m 119.60044,-17.95472 c 1.46214,-1.23091 2.42745,-7.19064 2.42745,-14.98689 0,-7.79624 -0.96531,-13.75597 -2.42745,-14.98695 -0.69055,-0.58137 -35.337,-8.89896 -35.22011,2.36052 0.11285,10.87759 0.42795,26.47602 3.55199,28.14252 4.18458,2.23246 28.87812,1.81975 31.66812,-0.5292 z m -74.30868,-6.53148 c 3.61671,-1.6296 3.91276,-3.81295 3.91276,-28.85551 0,-26.066 -0.17032,-27.19296 -4.49584,-29.74366 -6.168,-3.63723 -9.02752,-3.34207 -14.81338,1.52908 -4.80606,4.04624 -4.96522,4.95643 -4.96522,28.3922 0,20.13952 0.5631,24.7358 3.34781,27.32641 3.71955,3.46026 11.04265,4.04195 17.01387,1.35148 z m 130.71755,-24.07984 c 5.87697,-4.64824 5.9896,-11.08459 0.28349,-16.19822 -5.68746,-5.0969 -12.7244,-5.00833 -18.95661,0.23859 -6.06585,5.10686 -6.27846,9.28242 -0.77267,15.1753 5.18194,5.54627 13.02513,5.86261 19.44579,0.78433 z m -43.52064,-19.5523 c 8.00899,-6.10211 1.6444,-19.32126 -9.30252,-19.32126 -5.30528,0 -13.29549,7.07475 -13.29549,11.77217 0,1.53864 1.41705,4.50078 3.14901,6.58258 3.82079,4.59253 14.02437,5.0996 19.449,0.96651 z m 36.06527,-62.97929 c -1.62711,-1.43653 44.72283,-37.01383 54.48692,-44.8371 1.03492,-0.82922 48.82453,38.83133 52.64988,43.04412 2.54912,2.80745 0.35152,5.15382 -24.32467,25.9717 -14.91984,12.58699 -27.81399,23.25358 -28.25104,22.88544 -17.95007,-15.11992 -32.82224,-27.87115 -54.56109,-47.06416 z m 78.89195,0.97394 c 0,-1.60772 -21.92641,-20.33868 -23.72363,-20.26626 -9.787,5.73888 -18.37675,12.99264 -27.18886,19.76879 8.53095,6.89665 8.57949,7.12875 26.5794,21.00957 0.90084,0.69467 24.33309,-19.10396 24.33309,-20.5121 z"
           style="fill:#ffffff;fill-opacity:1;stroke-width:1.39207"
           id="path1-7"
           sodipodi:nodetypes="ssscccccsccssccccccccccccccssssscssscccssscccccccsssssssssssssssssssssssssssssssssccss" />
      </g>
      <ellipse
         style="fill:#ffffff;fill-opacity:1;stroke-width:0.813672"
         id="path10"
         cx="267.46439"
         cy="681.08136"
         rx="5.398788"
         ry="4.750772" />
      <ellipse
         style="fill:#ffffff;fill-opacity:1;stroke-width:0.813672"
         id="path10-3"
         cx="226.20305"
         cy="647.81354"
         rx="5.398788"
         ry="4.750772" />
      <ellipse
         style="fill:#ffffff;fill-opacity:1;stroke-width:0.813672"
         id="path10-8"
         cx="277.49118"
         cy="646.66235"
         rx="5.398788"
         ry="4.750772" />
    </g>
    <path
       d="m 229.00882,777.42125 c 1.73367,1.45011 1.7585,1.45159 2.83,0.17056 0.95108,-1.13704 1.31177,-1.21495 3.00122,-0.64827 1.71555,0.57545 1.96768,0.78544 2.3651,1.97043 0.24485,0.7293 0.53751,1.4032 0.65038,1.49761 0.3441,0.28783 5.41648,-1.87045 5.36602,-2.28322 -0.026,-0.2121 -0.27751,-0.89047 -0.55907,-1.50749 -0.28157,-0.61702 -0.38273,-1.22643 -0.22479,-1.35423 0.15788,-0.12782 0.83575,-0.88836 1.50636,-1.69011 0.99438,-1.18882 1.42303,-1.36744 2.32384,-0.96838 2.25369,0.9984 2.63667,0.75183 3.20948,-2.06636 0.57382,-2.82314 0.30641,-3.33431 -2.05196,-3.92233 -1.3183,-0.3287 -1.58554,-0.57176 -2.15496,-1.95999 -0.57139,-1.39306 -0.48683,-1.75309 0.69909,-2.97633 l 1.34913,-1.39157 -2.37518,-1.9867 -2.37518,-1.98669 -1.22346,1.22199 c -1.03568,1.0344 -1.52634,1.12989 -3.19642,0.62206 -1.95845,-0.59553 -1.97307,-0.61227 -1.98777,-2.27568 l -0.0147,-1.67575 -2.94084,0.566 c -3.38605,0.65169 -3.77114,0.96262 -3.45518,2.78965 0.36918,2.13475 -1.76446,4.29676 -4.42888,4.48782 l -2.14967,0.15418 -0.0515,2.12971 c -0.0284,1.17135 -0.10204,2.47527 -0.16368,2.89759 -0.0931,0.63761 0.13968,0.80497 1.37243,0.98655 1.37284,0.20223 1.54718,0.35062 2.31664,1.97174 1.01496,2.13836 0.99533,2.73629 -0.13462,4.10308 -0.67478,0.81609 1.53605,2.31993 2.498,3.12454 z m 2.18092,-7.5895 c -0.93471,-1.71939 -0.67064,-4.33675 0.58955,-5.84335 1.48822,-1.77925 3.85854,-2.20264 6.26511,-1.11909 2.4706,1.11237 3.44779,3.0783 2.86127,5.75649 -0.36093,1.64813 -0.69308,2.14573 -1.91681,2.87159 -2.75441,1.63378 -6.43249,0.84824 -7.79912,-1.66564 z m -22.41766,-12.66447 c 1.18427,-0.8605 1.90725,-0.97885 3.24278,-0.53086 0.94529,0.31707 1.9948,0.49387 2.33223,0.39286 0.40547,-0.1214 0.80182,0.54175 1.1689,1.95538 0.30753,1.18447 0.81079,2.09853 1.12771,2.0483 1.88609,-0.29899 7.02575,-1.82786 7.31756,-2.17672 0.19101,-0.22836 0.17283,-0.99191 -0.0404,-1.69678 -0.35681,-1.17959 -0.25168,-1.36769 1.32133,-2.3639 1.02404,-0.64854 2.44424,-1.00224 3.54344,-0.88249 3.07151,0.33459 4.53774,-2.46251 2.74363,-5.23397 -1.34891,-2.08373 -0.95983,-2.90858 1.47567,-3.12841 l 2.03643,-0.18385 -0.38315,-2.43708 c -0.73954,-4.70394 -0.69044,-4.63676 -3.31088,-4.53082 -2.34443,0.0948 -2.3506,0.0916 -3.62174,-1.87108 -1.15282,-1.78001 -1.18414,-2.14565 -0.33091,-3.86428 l 0.9424,-1.89825 -2.00028,-1.26113 c -4.03248,-2.54237 -3.96247,-2.53501 -5.58984,-0.58938 -1.38672,1.65788 -1.62537,1.74251 -3.96966,1.40779 -2.26032,-0.32271 -2.59987,-0.51024 -3.62015,-1.99929 -0.61924,-0.90374 -1.2402,-1.73878 -1.37991,-1.85563 -0.26085,-0.2182 -6.27474,2.17166 -6.67799,2.65375 -0.12346,0.14761 0.11089,1.13433 0.52078,2.19275 0.70832,1.82893 0.66057,2.0256 -0.96248,3.96604 -1.57571,1.88384 -1.83402,2.01002 -3.34105,1.63222 -0.89834,-0.2252 -1.88743,-0.3334 -2.19802,-0.24042 -0.54558,0.16329 -1.57692,6.49282 -1.21825,7.47658 0.0971,0.26644 1.09567,0.66291 2.21896,0.88109 l 2.04234,0.39665 0.97404,2.49394 c 0.88829,2.27432 0.86901,2.61956 -0.21886,3.92012 -1.17704,1.40719 -1.17217,1.44688 0.36402,2.98338 3.35425,3.35481 3.8237,3.55516 5.49128,2.34348 z m 0.60895,-10.27976 c -1.07915,-2.03804 -1.12162,-5.27693 -0.094,-7.16328 1.16242,-2.13368 4.48971,-3.69233 7.56084,-3.54184 4.68852,0.22945 7.86656,4.63081 6.7994,9.41602 -0.94686,4.24579 -4.2705,6.21656 -8.87104,5.26016 -2.53457,-0.52691 -4.23378,-1.77759 -5.39522,-3.97106 z m 52.86649,47.23774 c 0.82389,0.47461 1.22766,0.34216 2.08631,-0.6844 0.90217,-1.07858 1.34139,-1.19381 2.87706,-0.75481 1.39496,0.39876 1.98816,0.81661 2.57574,1.8144 0.814,1.38224 1.60277,1.75537 2.21782,1.04913 0.20769,-0.23895 1.07522,-0.55973 1.92731,-0.71327 2.05345,-0.37004 2.36818,-0.82512 1.60591,-2.32216 -0.54306,-1.06651 -0.42958,-1.49737 0.77303,-2.93515 1.20302,-1.43826 1.59038,-1.61819 2.64398,-1.22817 0.67896,0.25135 1.50005,0.3775 1.82468,0.28033 0.53751,-0.16088 1.09565,-5.42099 0.61762,-5.82084 -0.11236,-0.094 -0.86641,-0.15436 -1.67568,-0.13423 l -1.47142,0.0367 -0.94747,-2.2174 c -0.81072,-1.89736 -0.80251,-2.39165 0.0569,-3.42481 1.06064,-1.27428 1.04509,-1.30993 -1.48732,-3.45699 -1.51756,-1.28668 -1.62302,-1.29173 -2.9094,-0.14136 -0.98367,0.87963 -1.79774,1.11239 -3.09501,0.88489 -1.62653,-0.28524 -1.80547,-0.42198 -2.35519,-1.79947 -0.55596,-1.39318 -0.67435,-1.47647 -1.80881,-1.27243 -0.66764,0.12013 -1.90674,0.46862 -2.75354,0.77451 -1.49157,0.53882 -1.52573,0.6053 -1.09467,2.12945 0.59132,2.09087 -1.32035,4.54633 -3.70158,4.75446 -1.59208,0.13917 -1.60505,0.15291 -1.93978,2.05003 -0.50085,2.83885 -0.24262,3.49142 1.48248,3.74553 1.35421,0.19948 1.53784,0.35888 2.36503,2.05265 0.6927,1.41848 0.71229,2.057 0.0861,2.80565 -1.35556,1.62062 -0.77543,2.87142 2.09994,4.52781 z m 1.49452,-9.38898 c -0.59637,-1.97149 0.50123,-4.37643 2.42663,-5.31688 2.20151,-1.07533 3.65027,-0.90971 5.48795,0.6274 1.2323,1.03074 1.59393,1.71511 1.66025,3.14201 0.11944,2.57047 -2.02876,5.1151 -4.43192,5.24977 -2.02845,0.11368 -4.53425,-1.6902 -5.14289,-3.70228 z m -6.07694,-19.31895 c 1.98798,0.97796 1.96171,0.98939 2.91357,-1.26603 0.6348,-1.50417 0.84878,-1.62002 3.17013,-1.71634 2.36594,-0.0982 2.53204,-0.0278 3.34957,1.41984 1.82561,3.23259 1.64095,3.18875 5.81685,1.38103 2.14707,-0.92945 4.15124,-1.65876 4.45372,-1.62068 0.3025,0.0381 0.10932,-0.97827 -0.4293,-2.25851 l -0.97927,-2.3277 1.84545,-2.44787 c 1.81349,-2.40554 1.88863,-2.4472 4.34284,-2.40766 l 2.49738,0.0403 0.40207,-3.26511 c 0.62816,-5.10104 0.4833,-5.46019 -2.43034,-6.02488 l -2.43868,-0.47265 -0.68785,-2.22273 c -0.62956,-2.03437 -0.56482,-2.37245 0.76393,-3.98896 1.61347,-1.9628 1.65711,-1.82575 -1.82258,-5.71872 -1.00939,-1.12931 -2.01021,-2.0009 -2.22401,-1.93692 -0.21383,0.0639 -1.06824,0.69463 -1.89874,1.40139 -1.42138,1.20962 -1.6159,1.22037 -3.31537,0.18321 -1.6175,-0.9871 -1.8381,-1.33852 -2.11955,-3.37619 l -0.31419,-2.27442 -3.08397,-0.11934 c -1.6962,-0.0656 -3.50221,-0.15455 -4.01338,-0.19726 -0.80539,-0.0678 -0.96074,0.19764 -1.16442,1.98961 -0.22739,2.00068 -0.28574,2.08276 -1.79486,2.52468 -0.8579,0.25122 -1.69137,0.48227 -1.85215,0.51342 -0.16076,0.0312 -1.28942,-0.62938 -2.50813,-1.46789 l -2.21583,-1.52456 -2.79248,2.60322 c -3.10829,2.89761 -3.20374,3.37114 -1.04985,5.20803 1.66815,1.42268 1.70015,1.92928 0.29377,4.65577 -1.24586,2.41532 -1.25317,2.42059 -3.31548,2.39765 l -2.06685,-0.023 -0.0764,4.0421 c -0.0421,2.22316 0.166,4.25198 0.4623,4.50848 0.2961,0.25679 1.82604,0.60121 3.39932,0.76605 2.65162,0.27782 2.91818,0.4067 3.65032,1.76484 0.43441,0.80582 1.36248,1.95693 2.06238,2.558 0.74684,0.64123 1.11307,1.28479 0.88649,1.55742 -0.21247,0.25539 -0.4897,1.32828 -0.61639,2.38394 -0.24912,2.0761 0.0632,2.37942 4.89996,4.75877 z m -1.8736,-15.28873 c -2.78743,-5.45933 -0.23158,-11.33914 5.54556,-12.75766 3.21375,-0.78912 6.3246,-0.0464 8.95018,2.13677 3.13044,2.60303 4.07789,5.40757 3.23055,9.56287 -0.5809,2.84872 -3.8885,6.05768 -6.82881,6.62518 -4.25639,0.82153 -8.82798,-1.51396 -10.89748,-5.56716 z"
       style="fill:#ffffff;fill-opacity:1;stroke-width:0.374547"
       id="path1-09" />
    <g
       id="g18"
       transform="rotate(179.95153,497.28579,718.40309)"
       style="fill:#ffffff;fill-opacity:1">
      <path
         d="m 649.02106,958.93121 c 1.76974,-1.76973 -0.36987,-8.57143 -4.4,-8.57143 -2.88822,0 -5.50476,2.53506 -5.50476,5.33334 0,5.00342 6.13407,7.00879 9.90476,3.23809 z m -25.93423,-7.57143 c 0.77495,-0.91666 2.76056,-3.76666 4.41248,-6.33333 4.1918,-6.51302 10.7007,-9.61741 18.71631,-8.92668 7.56794,0.65215 12.54944,3.93867 16.23402,10.71028 1.46666,2.69549 3.61213,5.20413 4.76771,5.57477 1.15557,0.37063 7.00688,-0.25674 13.0029,-1.39417 38.46351,-7.2964 73.51345,-28.62543 98.90177,-60.18493 12.9005,-16.03625 16.42901,-25.35896 10.7486,-28.39902 -1.73189,-0.92689 -49.65649,-1.38025 -145.90476,-1.38025 -128.51836,0 -143.54221,0.21647 -145.42099,2.09524 -2.62586,2.62586 -2.65933,6.79167 -0.0941,11.7102 l 9.04834,13.77569 c 12.70652,16.78492 33.0847,34.40203 52.06222,45.00821 11.12254,6.21618 31.16873,13.82252 44.18561,16.76582 12.99694,2.93879 17.49026,3.16605 19.33989,0.97817 z"
         style="fill:#ffffff;fill-opacity:1"
         id="path1-2" />
    </g>
    <g
       id="g20"
       transform="translate(-8.05645,8.05645)">
      <path
         d="m 370.72454,809.01794 c 12.92176,-6.40986 29.26748,-26.11293 39.13877,-47.1777 8.63011,-18.41619 12.02946,-33.74029 12.74492,-57.45357 l 0.61411,-20.35405 -10.21166,-4.71808 c -18.44778,-8.5234 -27.82698,-10.35017 -53.40757,-10.4021 -21.05854,-0.0428 -23.51802,0.21591 -34.66666,3.64599 -6.6,2.03061 -15.9,5.60233 -20.66667,7.93715 -8.58086,4.2031 -8.67105,4.30454 -9.109,10.24513 -0.70877,9.6139 2.25463,33.65229 5.85849,47.52281 6.51049,25.05751 15.90423,42.04193 32.16129,58.14948 10.4696,10.37331 13.71092,12.79833 20.31777,15.20087 5.47123,1.98957 9.07787,1.44607 17.22621,-2.59593 z m -20.58804,-8.75136 c -6.73577,-4.93191 -18.81665,-17.78312 -24.40359,-25.95966 -12.00634,-17.57139 -19.87334,-43.11574 -21.07184,-68.42079 l -0.76669,-16.18791 6.31579,-2.79377 c 19.07886,-8.43949 41.30181,-11.88144 61.81173,-9.57356 13.43372,1.51163 31.3966,6.2304 39.43618,10.35971 l 3.85496,1.98 -0.75501,16.20172 c -1.54538,33.16193 -12.86243,61.69434 -32.76355,82.60304 -9.55297,10.03662 -17.59899,15.59868 -22.56488,15.59868 -2.17898,0 -6.18259,-1.67639 -9.0931,-3.80746 z m 18.02028,-37.25377 c 30.60014,-31.75723 30.80871,-32.05258 26.01776,-36.84353 -4.68445,-4.68445 -8.55353,-2.7321 -22.87948,11.54511 l -13.68692,13.64034 -5.79047,-6.30701 c -4.54142,-4.94655 -6.69164,-6.30701 -9.96827,-6.30701 -3.30401,0 -4.61541,0.84623 -6.27008,4.04601 -1.94837,3.76773 -1.91439,4.29503 0.49406,7.66667 4.50883,6.31201 19.87152,20.28732 22.30132,20.28732 1.28466,0 5.68659,-3.47756 9.78208,-7.7279 z m 2.55781,-54.73395 c 3.05536,-2.82069 5.55519,-5.82069 5.55519,-6.66667 0,-2.57672 -4.17066,-1.72448 -8.78518,1.79519 -4.09785,3.12558 -5.3628,3.33333 -20.29593,3.33333 -12.31666,0 -16.29087,0.44 -17.53708,1.94159 -3.22471,3.88553 -0.0605,4.72508 17.80836,4.72508 h 17.69946 z m 14.88852,-6.20482 c 0,-1.1 -0.6,-2 -1.33333,-2 -0.73333,0 -1.33333,0.9 -1.33333,2 0,1.1 0.6,2 1.33333,2 0.73333,0 1.33333,-0.9 1.33333,-2 z m -40.23982,-4.33929 c 0.54269,-3.82173 -3.21371,-5.44527 -6.04589,-2.61309 -2.83219,2.83219 -1.20864,6.58859 2.61308,6.0459 1.93595,-0.27491 3.15791,-1.49687 3.43281,-3.43281 z m 11.76417,1.65565 c 0.91573,-2.38635 -1.72698,-5.98302 -4.39612,-5.98302 -2.27016,0 -3.70232,3.24744 -2.64606,6 0.99775,2.60008 6.04258,2.58792 7.04218,-0.017 z m 56.21282,98.50639 c 0.51755,-3.60987 -3.01651,-5.0196 -5.74461,-2.2915 -1.63982,1.63983 -1.74534,2.4934 -0.49453,4.00053 2.2036,2.65517 5.75282,1.68297 6.23914,-1.70903 z"
         style="fill:#ffffff;fill-opacity:1"
         id="path1-21" />
    </g>
    <g
       id="g21"
       transform="translate(-182.31128,-185.57715)"
       style="fill:#ffffff;fill-opacity:1">
      <path
         d="m 448.71213,897.6543 c -0.41963,-2.95464 -0.75719,-3.00556 -22.32526,-3.36748 -21.97458,-0.36874 -25.21145,0.21668 -23.65303,4.27785 0.6848,1.78456 4.13068,2.08963 23.60311,2.08963 h 22.80125 z m -67.77349,-6.98302 c 0,-3.46906 0.73971,-6.01698 -2.65258,-6.01698 -3.02502,0 -4.71449,2.88155 -3.51783,6 0.98223,2.55964 6.17041,3.33223 6.17041,0.017 z m 12.68076,-3.35032 c 0,-3.80083 -4.20837,-5.4124 -5.48002,-2.09854 -1.21306,3.16119 0.50334,6.35378 3.14265,5.84549 1.47603,-0.28425 2.33737,-1.66503 2.33737,-3.74695 z"
         style="fill:#ffffff;fill-opacity:1"
         id="path1-5" />
    </g>
    <path
       d="m 500.55255,716.49266 c 2.562,-1.97978 2.562,-2.02022 0,-4 -2.06411,-1.59503 -7.10699,-2 -24.90477,-2 -19.13412,0 -22.63646,0.31988 -24.55969,2.2431 -2.10191,2.10191 -2.09186,2.35369 0.15961,4 3.68128,2.69182 45.77539,2.48427 49.30485,-0.2431 z m -22.0785,-11.37518 c 0,-3.14479 -3.52606,-4.96542 -5.6,-2.89149 -2.07393,2.07394 -0.2533,5.6 2.89149,5.6 1.83357,0 2.70851,-0.87494 2.70851,-2.70851 z m -33.38649,-1.8941 c 2.255,-2.71711 1.16985,-6.73072 -1.81979,-6.73072 -3.64244,0 -5.75649,3.90003 -3.55314,6.5549 2.17108,2.61599 3.31666,2.65348 5.37293,0.17582 z m 70.05316,-6.06405 -2.49848,-2.76079 -2.66666,2.66667 c -2.60982,2.60981 -2.6134,2.72553 -0.16819,5.42745 l 2.49847,2.76079 2.66667,-2.66667 c 2.60981,-2.60981 2.6134,-2.72553 0.16819,-5.42745 z m -23.89695,-0.15307 c 8.72121,-3.26302 16.95672,-10.82565 20.65237,-18.96497 3.41162,-7.51379 3.41886,-22.23437 0.0146,-29.7313 -8.33317,-18.35153 -29.18247,-27.28989 -49.72539,-21.3179 -17.76431,5.16422 -29.97651,26.56005 -25.22124,44.18774 6.1191,22.68341 31.01723,34.53002 54.27966,25.82643 z m -27.65471,-6.96115 c -7.54033,-2.81826 -12.69793,-7.56011 -16.56991,-15.23421 -7.06074,-13.99412 -1.56032,-30.51401 12.62774,-37.92594 21.38916,-11.17383 46.82716,3.15345 46.82716,26.37415 0,10.22508 -4.99523,19.47495 -13.07384,24.20933 -7.15508,4.19316 -22.04325,5.47999 -29.81115,2.57667 z m 9.55166,-7.55245 c 0,-3.55555 -0.44445,-4 -4,-4 -4.54269,0 -4.86371,0.8402 -1.9244,5.03666 3.01387,4.3029 5.9244,3.79361 5.9244,-1.03666 z m 10.70299,0.33333 2.89654,-3.66666 -2.89673,-0.43878 c -4.27002,-0.64679 -6.55143,0.62257 -6.03228,3.3563 0.25233,1.3287 0.50469,2.86581 0.5608,3.41581 0.21149,2.07317 2.67631,0.87192 5.47167,-2.66667 z m 13.00171,-4.11411 c 0.67844,-2.03531 -2.72243,-2.00149 -4.77137,0.0475 -0.88,0.88 -1.6,2.45318 -1.6,3.49596 0,1.62465 0.41884,1.61786 2.92693,-0.0474 1.60981,-1.06888 3.15981,-2.64206 3.44444,-3.49597 z m -36.51631,1.88387 c -0.97429,-2.53897 -4.52172,-3.8074 -4.52172,-1.6168 0,2.21111 1.3026,3.51371 3.5137,3.51371 0.95477,0 1.40838,-0.85361 1.00802,-1.89691 z m 12.55124,-10.9487 c 0.37854,-3.89342 0.0813,-4.21688 -4.35115,-4.73434 -6.47259,-0.75564 -7.86456,0.37708 -6.74232,5.4866 0.86263,3.92753 1.29046,4.20984 5.80919,3.83323 4.38746,-0.36566 4.91884,-0.82677 5.28428,-4.58549 z m 15.62265,0.71383 c 1.14189,-5.19902 -0.47652,-6.84512 -6.19274,-6.29868 -4.14967,0.3967 -4.53533,0.82266 -4.91669,5.43046 l -0.41382,5 h 5.30788 c 4.85114,0 5.38596,-0.35553 6.21537,-4.13178 z m 9.78346,2.35781 c 0.80975,-0.97568 1.63322,-3.20963 1.82993,-4.96433 0.34625,-3.0886 -0.34,-3.42449 -5.64234,-2.7617 -0.73333,0.0917 -1.33333,2.26667 -1.33333,4.83333 0,4.90784 2.36837,6.23923 5.14574,2.8927 z m -41.14574,-3.40385 c 0,-3.96713 -3.42094,-6.16148 -6.57074,-4.2148 -2.48968,1.53871 0.64231,8.05929 3.87107,8.05929 2.08648,0 2.69967,-0.87323 2.69967,-3.84449 z m 0.0182,-11.15551 c 0.01,-0.91667 0.37999,-3.01667 0.82217,-4.66667 0.64611,-2.41094 0.25655,-3 -1.98397,-3 -2.81744,0 -7.57558,6.83639 -5.91435,8.49762 1.5184,1.51839 7.05759,0.86792 7.07615,-0.83095 z m 15.73293,-3.33334 c 0.40761,-4.2275 0.28929,-4.33333 -4.84456,-4.33333 -4.67931,0 -5.33988,0.40542 -5.96185,3.65907 -0.96494,5.04775 -0.11445,5.88305 5.51247,5.41403 4.42664,-0.36897 4.91465,-0.80589 5.29394,-4.73977 z m 15.5443,3.72799 c 0.43238,-0.69961 0.40274,-2.79961 -0.0659,-4.66667 -0.73032,-2.90982 -1.59308,-3.39465 -6.04079,-3.39465 -5.04116,0 -5.18879,0.13278 -5.18879,4.66667 0,4.54391 0.13822,4.66666 5.25464,4.66666 2.89006,0 5.60841,-0.5724 6.0408,-1.27201 z m 12.70456,-1.13981 c 0,-3.73414 -3.22069,-7.27049 -6.08813,-6.68483 -2.44749,0.49989 -2.81225,2.7146 -1.22371,7.42999 0.91873,2.72711 7.31184,2.07558 7.31184,-0.74516 z m -41.33332,-12.87966 c 0,-1.19279 -0.78172,-1.65818 -2,-1.19068 -1.1,0.42211 -2,1.30327 -2,1.95815 0,0.65487 0.9,1.19068 2,1.19068 1.1,0 2,-0.88117 2,-1.95815 z m 13.08447,-3.04185 c 0.51766,-5.36891 -1.37449,-5.54352 -4.99368,-0.46084 -3.60056,5.05653 -3.48463,5.72164 0.90921,5.21607 3.05527,-0.35155 3.73633,-1.14445 4.08447,-4.75523 z m 12.24886,3.84648 c 0,-1.72275 -5.339,-8.17981 -6.76344,-8.17981 -1.40831,0 -1.70029,7.09182 -0.34767,8.44444 1.30203,1.30203 7.11111,1.08585 7.11111,-0.26463 z m 8.66667,-1.51315 c -1.32732,-1.46666 -2.94142,-2.66666 -3.5869,-2.66666 -0.64548,0 -0.53137,1.2 0.25356,2.66666 0.78494,1.46667 2.39904,2.66667 3.5869,2.66667 1.90624,0 1.87648,-0.313 -0.25356,-2.66667 z m 37.76443,16.84953 c 0.33362,-1.68928 -0.62843,-2.18286 -4.25465,-2.18286 -5.4862,0 -7.57404,2.34717 -4.24994,4.77781 2.84127,2.07759 7.88578,0.53839 8.50459,-2.59495 z m -5.14732,-28.75693 c 2.16084,-2.68291 -1.49639,-7.10563 -4.55261,-5.93285 -2.89142,1.10954 -3.62921,4.37023 -1.24595,6.46834 1.98904,1.75105 4.25523,1.38072 5.79856,-0.53549 z m -21.28378,-10.0926 c 0.86543,-1.21327 0.9419,-2.93966 0,-4 -0.94935,-1.06872 -2.41292,-2 -3.33333,-2 -0.92042,0 -2.46448,0.86488 -3.33334,2 -0.63602,0.83093 -0.55955,2.93967 0,4 0.66716,1.26425 2.41292,2 3.33334,2 0.92041,0 2.50322,-0.83624 3.33333,-2 z m -27.03753,-2.16247 c 2.04835,-2.04835 -6.80657,-3.09174 -5.78913,-0.44034 0.88545,2.30745 3.70738,2.5221 5.78913,0.44034 z"
       style="fill:#ffffff;fill-opacity:1"
       id="path1-59" />
    <text
       xml:space="preserve"
       style="font-style:normal;font-variant:normal;font-weight:900;font-stretch:normal;font-size:29.3333px;font-family:'Gill Sans';-inkscape-font-specification:'Gill Sans, Heavy';font-variant-ligatures:normal;font-variant-caps:normal;font-variant-numeric:normal;font-variant-east-asian:normal;fill:#0b233f;fill-opacity:1;stroke:#000000;stroke-width:1.00157;stroke-opacity:1"
       x="245.81795"
       y="531.18542"
       id="text17"><tspan
         sodipodi:role="line"
         id="tspan17"
         x="245.81795"
         y="531.18542">  Technical </tspan><tspan
         sodipodi:role="line"
         x="245.81795"
         y="567.85205"
         id="tspan18">Proficiency</tspan></text>
  </g>
</svg>
