<?xml version="1.0" encoding="UTF-8" standalone="no"?>
<!-- Created with Inkscape (http://www.inkscape.org/) -->

<svg
   width="107.48233mm"
   height="105.02894mm"
   viewBox="0 0 107.48233 105.02894"
   version="1.1"
   id="svg1"
   inkscape:version="1.3.2 (091e20e, 2023-11-25)"
   sodipodi:docname="ICon1.svg"
   xmlns:inkscape="http://www.inkscape.org/namespaces/inkscape"
   xmlns:sodipodi="http://sodipodi.sourceforge.net/DTD/sodipodi-0.dtd"
   xmlns="http://www.w3.org/2000/svg"
   xmlns:svg="http://www.w3.org/2000/svg">
  <sodipodi:namedview
     id="namedview1"
     pagecolor="#ffffff"
     bordercolor="#000000"
     borderopacity="0.25"
     inkscape:showpageshadow="2"
     inkscape:pageopacity="0.0"
     inkscape:pagecheckerboard="0"
     inkscape:deskcolor="#d1d1d1"
     inkscape:document-units="mm"
     inkscape:zoom="0.92876623"
     inkscape:cx="184.65357"
     inkscape:cy="648.17171"
     inkscape:window-width="1824"
     inkscape:window-height="971"
     inkscape:window-x="4"
     inkscape:window-y="25"
     inkscape:window-maximized="0"
     inkscape:current-layer="layer1" />
  <defs
     id="defs1" />
  <g
     inkscape:label="Layer 1"
     inkscape:groupmode="layer"
     id="layer1"
     transform="translate(-10.754674,-103.66227)">
    <path
       d="m 59.297436,208.56004 c -7.605765,-1.06275 -11.258002,-1.97793 -16.423391,-4.11539 -9.144743,-3.78415 -15.876653,-8.97646 -21.995413,-16.96504 -9.352843,-12.21096 -12.4818161,-29.10159 -8.310334,-44.86032 5.071186,-19.15757 22.462219,-34.78533 42.551889,-38.23754 4.992587,-0.85793 13.339206,-0.96565 17.904182,-0.23107 11.902916,1.91537 21.326773,6.73351 29.748051,15.2093 7.64058,7.69002 12.48877,16.75932 14.79008,27.66716 0.96783,4.58735 0.87821,15.22286 -0.16648,19.75555 -2.60562,11.30524 -6.79338,19.18899 -13.96068,26.28195 -7.695842,7.616 -16.589884,12.38611 -27.318476,14.65162 -3.292541,0.69528 -14.027907,1.23383 -16.819428,0.84378 z m 16.107331,-3.306 c 12.803642,-2.72597 23.626733,-9.5211 30.996553,-19.46077 4.35628,-5.87532 8.17018,-15.46803 9.19342,-23.12329 0.55328,-4.13931 0.20677,-12.08773 -0.69733,-15.99562 -2.92159,-12.62827 -9.65653,-23.19065 -19.531736,-30.63155 -9.899814,-7.45943 -23.160664,-11.20368 -35.384959,-9.99108 -12.59432,1.24931 -23.856389,6.63666 -32.260299,15.43213 -6.937894,7.26114 -11.132748,14.72994 -13.273376,23.63278 -0.954812,3.97106 -1.009803,4.62306 -0.994232,11.78827 0.01598,7.35725 0.04965,7.70906 1.122388,11.73025 0.608251,2.28003 1.690709,5.45503 2.405465,7.05555 0.679405,2.41285 1.895806,4.31016 3.241061,6.35854 1.426464,2.31516 4.129516,5.88184 6.436955,8.49357 1.310802,1.48367 6.873248,5.91176 9.708206,7.72841 6.141175,3.93528 12.628107,6.34306 20.28472,7.52917 4.384871,0.67927 14.361713,0.3886 18.753164,-0.54636 z M 60.179382,203.47455 C 48.554615,202.54174 38.497556,198.0971 30.238516,190.24241 23.596435,183.92553 19.345962,176.76403 17.152286,168.1938 c -2.68224,-10.47893 -1.381313,-23.08108 3.353199,-32.48256 7.159818,-14.2175 19.99402,-23.73391 35.969731,-26.67112 4.300778,-0.79072 12.338111,-0.77807 16.756943,0.0264 17.246955,3.1398 31.555601,15.2913 37.351621,31.72056 1.839,5.21279 2.58912,9.6276 2.61869,15.4123 0.0302,5.9185 -0.45344,9.42488 -1.94487,14.09875 -2.73202,8.56164 -6.10811,14.11565 -12.154612,19.99552 -5.096934,4.95647 -12.020608,8.95535 -19.520829,11.27455 -5.145484,1.59108 -13.321294,2.39437 -19.402777,1.90637 z m 15.345834,-5.44279 c 6.737297,-1.8011 14.803881,-5.90529 18.609026,-9.46807 2.021327,-1.89258 4.360013,-4.19439 1.270691,-7.48007 -1.40869,-1.49823 -2.654726,-2.62565 -3.009487,-2.62565 -0.354761,0 -4.143799,2.07117 -5.112978,2.91898 -4.610269,4.03295 -12.236675,7.05022 -19.27311,7.62512 -9.967923,0.8144 -18.036415,-1.39542 -25.422185,-6.96268 -1.838174,-1.38558 -5.759149,-4.21138 -6.044504,-3.95857 -3.826447,3.39014 -5.270913,4.53901 -5.511533,5.52748 -0.309617,1.27191 3.636362,5.11633 7.547367,7.78967 5.159235,3.52655 9.818912,5.52865 16.132823,6.93168 3.71942,0.8265 4.092244,0.85189 10.93611,0.74467 5.573863,-0.0873 6.781189,-0.21474 9.87778,-1.04256 z M 63.124094,185.83269 c 0.662956,-0.58208 1.392164,-1.05833 1.620462,-1.05833 0.228299,0 1.026621,0.49144 1.77405,1.09209 0.971029,0.78034 1.569352,1.02532 2.095979,0.85817 1.157671,-0.36743 0.897456,-1.6547 -0.800823,-3.96165 l -1.53784,-2.08901 -1.708877,0.19812 c -1.501873,0.17411 -1.849785,0.38309 -2.872124,1.72516 -2.592155,3.40284 -1.521653,5.82631 1.429173,3.23545 z m -4.708601,-2.39082 c 0,-0.15079 0.472575,-0.79156 1.050168,-1.42395 2.36724,-2.59179 2.831841,-3.42686 2.770963,-4.98048 -0.04764,-1.21584 -0.213532,-1.55655 -0.881573,-1.81053 -1.008383,-0.38339 -1.092031,-1.60847 -0.130662,-1.9136 0.380727,-0.12084 0.993195,-0.0586 1.36104,0.13823 0.55067,0.29471 0.740654,0.20025 1.075539,-0.53474 0.500277,-1.09799 1.585169,-0.99986 1.749957,0.15827 0.08736,0.61399 0.262758,0.75318 0.705554,0.55989 0.324109,-0.14147 0.986166,-0.27267 1.471237,-0.29155 1.154483,-0.0449 1.219597,1.22865 0.08819,1.72502 -0.657188,0.28832 -0.79375,0.62667 -0.79375,1.96655 0,1.45631 0.196184,1.84525 1.959645,3.8851 1.077804,1.24673 2.085255,2.31155 2.238779,2.36628 0.153525,0.0547 0.424847,-0.40857 0.602938,-1.02954 0.261901,-0.91318 0.627798,-1.23571 1.913885,-1.687 0.874543,-0.30688 1.78513,-0.68639 2.023525,-0.84336 0.881272,-0.58027 0.433245,-1.58796 -1.107466,-2.49087 -1.150848,-0.67444 -1.597361,-1.18526 -1.76389,-2.0179 -0.398447,-1.99223 -0.2384,-3.07065 0.606462,-4.0864 1.02674,-1.23443 0.878218,-1.72657 -0.67583,-2.23945 -0.666565,-0.21999 -1.214369,-0.5861 -1.217338,-0.81359 -0.003,-0.22749 -0.148656,-0.63997 -0.323744,-0.91662 -0.258863,-0.40903 -0.552669,-0.29727 -1.572456,0.59811 -2.774952,2.43644 -7.776167,2.45223 -10.196205,0.0322 -0.572498,-0.5725 -1.079442,-0.9941 -1.12654,-0.93688 -0.0471,0.0572 -0.271616,0.46147 -0.498925,0.89835 -0.227309,0.43689 -0.963187,1.0241 -1.635287,1.30492 -1.387228,0.57962 -1.539377,1.20834 -0.516442,2.13408 0.530632,0.48022 0.705556,1.08655 0.705556,2.44563 0,2.07254 -0.57104,3.08777 -2.090886,3.71731 -1.169659,0.48448 -1.728739,1.6201 -1.108223,2.25105 0.219313,0.223 1.222722,0.64952 2.229792,0.94783 1.670376,0.49478 1.858214,0.65728 2.140776,1.85208 0.170357,0.72034 0.45272,1.30971 0.627475,1.30971 0.174752,0 0.317733,-0.12337 0.317733,-0.27415 z M 30.54605,181.07019 c 0,-0.29104 0.313105,-0.84227 0.695793,-1.22496 0.692541,-0.69254 0.692129,-0.70154 -0.08819,-1.92535 -0.802224,-1.25814 -1.313156,-1.58544 -1.313156,-0.84117 0,0.23002 -0.348207,0.78888 -0.773798,1.2419 l -0.773795,0.82367 0.773795,0.54199 c 0.425591,0.29809 0.773798,0.85048 0.773798,1.22754 0,0.37705 0.15875,0.68555 0.352777,0.68555 0.19403,0 0.35278,-0.23813 0.35278,-0.52917 z m 20.094267,0.017 c 0.676331,-0.81493 0.301271,-1.78084 -0.691491,-1.78084 -0.559146,0 -0.916135,0.22771 -0.994439,0.63431 -0.122147,0.63427 0.49204,1.65875 0.994439,1.65875 0.146513,0 0.457684,-0.2305 0.691491,-0.51222 z m 29.427218,-0.27491 c 0.29587,-0.46983 0.249862,-0.74549 -0.199417,-1.19477 -1.05682,-1.05682 -2.63353,0.32437 -1.680784,1.47236 0.548532,0.66094 1.365089,0.54038 1.880201,-0.27759 z m 21.277245,-3.01962 c -0.32777,-0.36219 -0.59674,-0.88415 -0.59771,-1.15992 -0.002,-0.49412 -1.724373,1.35694 -1.749447,1.87986 -0.007,0.14553 0.265125,0.56044 0.604676,0.92204 0.600951,0.63998 0.640221,0.63565 1.477901,-0.16301 0.81311,-0.77523 0.8277,-0.85674 0.26458,-1.47897 z m -36.112094,-0.21591 c 0.253505,-0.66062 -0.605827,-1.79577 -1.119233,-1.47847 -0.699484,0.4323 -0.495257,1.97335 0.261517,1.97335 0.367298,0 0.753269,-0.22269 0.857716,-0.49488 z M 39.56656,175.18703 c 1.796204,-1.89713 3.018703,-2.55241 4.113528,-2.20492 0.381492,0.12108 1.563134,1.00758 2.62587,1.96999 2.640386,2.39115 3.08677,2.2309 3.215809,-1.15445 l 0.102108,-2.6788 -2.461712,-2.014 c -2.42153,-1.98113 -2.476182,-2.00452 -3.348424,-1.43301 -0.526126,0.34474 -1.388417,0.53313 -2.120442,0.46329 -1.061281,-0.10125 -1.555903,0.1535 -3.538651,1.82257 l -2.304923,1.94028 -0.006,2.31069 c -0.0095,3.65669 0.948605,3.90849 3.722841,0.97836 z m 53.775874,1.6475 c 0.972675,-1.172 -0.547565,-6.1129 -2.91044,-9.45914 l -0.702469,-0.99482 -0.752155,1.07345 c -1.089758,1.55527 -1.603102,1.6138 -2.924116,0.33342 l -1.171351,-1.13532 -0.974177,0.85095 c -3.973547,3.47091 -3.97279,3.46976 -3.97279,5.98531 0,2.13666 0.367276,3.1721 1.125154,3.1721 0.15317,0 1.154975,-0.79375 2.226236,-1.76389 1.581883,-1.43256 2.187432,-1.76389 3.223749,-1.76389 1.09919,0 1.556827,0.2933 3.30264,2.11667 2.095432,2.18851 2.775506,2.49393 3.529719,1.58516 z m -60.019133,-3.61364 c 0.31164,-0.76851 -0.474879,-0.45658 -0.972997,-2.11362 -0.345845,-1.15049 -0.07422,-3.10114 -0.297876,-3.17569 -0.539345,-0.17978 -1.506722,1.73479 -1.505061,2.97873 0.0016,1.19065 1.206286,3.28071 1.890975,3.28071 0.270353,0 0.668586,-0.43656 0.884959,-0.97013 z m 64.959947,-0.17639 c 0.952896,-1.56287 0.879541,-2.82131 -0.242163,-4.15438 l -0.943853,-1.1217 -0.668132,1.30232 c -0.844253,1.64562 -0.889743,3.06728 -0.135006,4.21916 0.774973,1.18276 1.146321,1.13694 1.989154,-0.2454 z m -72.637403,-2.25553 c 0.189402,-0.30068 1.049149,-0.53282 1.049149,-0.53282 -0.0596,0.13666 -1.024099,-0.60716 -1.100055,-0.65518 -0.110919,-0.0701 -0.697929,-1.48071 -0.697929,-1.48071 0,0 -0.54788,1.42769 -0.428635,1.55731 0.05362,0.0583 -1.300078,0.40329 -1.181831,0.58566 0.05597,0.0863 0.97418,0.57361 1.136055,0.42458 0.04953,-0.0456 0.58225,1.55604 0.526987,1.57112 -0.109866,0.03 0.576101,-1.2792 0.696259,-1.46996 z m 79.276045,-0.11965 0.77797,-1.05226 -0.71163,-0.71163 c -0.39139,-0.3914 -0.71163,-0.9057 -0.71163,-1.1429 0,-0.2372 -0.26823,-0.0388 -0.59607,0.44097 -0.32783,0.47974 -0.8175,1.0067 -1.08813,1.17104 -0.40104,0.24352 -0.35604,0.42552 0.24329,0.98388 0.40445,0.3768 0.73536,0.83766 0.73536,1.02413 0,0.64061 0.57395,0.33757 1.35084,-0.71323 z m -66.202499,-5.18559 c -0.09675,-0.82876 0.02331,-1.42892 0.335963,-1.6792 0.267591,-0.21421 0.661826,-0.70213 0.876077,-1.08425 0.546503,-0.9747 2.383772,-1.44516 3.556694,-0.91074 0.893945,0.40731 1.039013,0.3109 3.503064,-2.32805 2.423959,-2.59602 2.57148,-2.84755 2.587681,-4.41206 0.01987,-1.9192 -0.570373,-3.45618 -1.327269,-3.45618 -0.289102,0 -1.41805,0.9525 -2.508777,2.11666 -2.670434,2.85025 -3.358954,2.85008 -6.00175,-0.002 -1.874057,-2.0221 -2.889027,-2.54742 -3.381697,-1.75026 -0.124045,0.20071 -0.371655,1.39671 -0.550244,2.65778 -0.64734,4.57104 -1.076224,5.01819 -5.757725,6.00298 -2.686568,0.56513 -3.385915,0.96353 -3.385915,1.92887 0,0.49729 0.718085,0.85654 3.263194,1.6325 l 3.263196,0.99489 1.183873,2.4194 1.183872,2.4194 1.655165,-1.63027 c 1.483251,-1.46095 1.639528,-1.76424 1.504598,-2.91999 z m 55.999834,2.32098 c 0.589482,-1.84713 1.623169,-2.61751 4.794877,-3.57348 2.269148,-0.68393 2.843738,-0.99684 2.932028,-1.59673 0.14516,-0.98626 -1.04436,-1.72649 -3.284804,-2.04412 -4.254683,-0.60319 -4.955691,-1.36618 -5.622142,-6.1192 -0.493356,-3.51852 -0.945147,-3.608 -3.898392,-0.77215 -1.371166,1.31666 -2.540609,2.14755 -3.022582,2.14755 -0.488992,0 -1.591153,-0.80005 -2.915957,-2.11667 -1.171405,-1.16416 -2.320255,-2.11666 -2.552996,-2.11666 -0.558234,0 -1.113158,1.52076 -1.351642,3.70416 -0.189643,1.73625 -0.168215,1.78479 1.367477,3.09754 1.214676,1.03833 1.753119,1.28521 2.431632,1.11491 0.693979,-0.17418 1.194234,0.0788 2.455966,1.24179 l 1.584473,1.46051 1.705136,-1.59931 c 1.862709,-1.74711 3.257257,-2.0719 4.411388,-1.02743 1.080439,0.97779 0.795747,2.23498 -0.903579,3.99016 l -1.548714,1.59961 1.24139,2.22996 c 0.682768,1.22648 1.360511,2.09961 1.506101,1.94028 0.14559,-0.15933 0.447241,-0.86165 0.67034,-1.56072 z m -40.581973,-1.3627 c 2.101395,-0.56585 1.922015,-1.62352 -0.484259,-2.85534 -1.402575,-0.718 -1.787673,-1.1069 -1.88,-1.89854 -0.105238,-0.90237 -0.03018,-0.97916 0.801656,-0.82014 0.747773,0.14294 1.120206,-0.0802 2.010722,-1.20453 l 1.092957,-1.37997 -1.012669,-1.03227 c -0.556966,-0.56774 -1.174922,-1.03667 -1.373232,-1.04206 -0.556964,-0.0151 -6.064978,5.71337 -6.319936,6.57293 -0.124293,0.41903 -0.457964,0.95441 -0.741495,1.18972 -1.010861,0.83894 -0.549187,1.71528 1.812301,3.44008 l 2.327807,1.70019 1.133086,-1.13309 c 0.623197,-0.62319 1.808075,-1.31484 2.633062,-1.53698 z m 27.318369,0.76098 2.027761,-2.04914 -1.068668,-0.95219 c -0.77692,-0.69224 -1.068665,-1.26652 -1.068665,-2.10358 0,-0.98447 -0.382913,-1.49819 -2.641365,-3.54366 l -2.641361,-2.39227 -1.221132,0.97436 c -1.320078,1.05331 -1.320088,1.05324 0.428273,2.99139 0.543936,0.60298 1.07727,0.86758 1.516949,0.7526 0.560464,-0.14656 0.678079,0.011 0.678079,0.90856 0,0.96396 -0.154688,1.12753 -1.377717,1.45686 -1.734603,0.46708 -3.037617,1.49531 -2.772018,2.18745 0.110691,0.28845 1.167688,0.87684 2.348883,1.30753 1.211054,0.44157 2.418168,1.15505 2.767992,1.63606 0.341199,0.46915 0.704704,0.85799 0.807791,0.86409 0.10309,0.006 1.099926,-0.91103 2.215198,-2.03806 z m -14.74348,-0.22384 c 0.772768,-0.32288 1.608251,-1.12377 2.284198,-2.18963 l 1.065771,-1.68054 -0.972614,-0.80144 c -1.266039,-1.04322 -1.918052,-0.90272 -2.279237,0.49113 -0.312071,1.20433 -1.444964,2.22013 -2.47604,2.22013 -0.913603,0 -2.03817,-1.27131 -2.03817,-2.30413 0,-1.00908 -0.791207,-1.48429 -1.481222,-0.88964 -0.252481,0.21759 -0.760725,0.60395 -1.129432,0.85859 -0.652545,0.45065 -0.647854,0.50335 0.17639,1.98153 1.365461,2.44878 4.220014,3.41303 6.850356,2.314 z m -23.272763,-1.40752 c 0.437459,-0.66765 0.475689,-1.02026 0.172109,-1.5875 -0.729068,-1.36228 -2.834884,-0.72472 -2.834884,0.85828 0,1.65505 1.743329,2.13247 2.662775,0.72922 z m 49.080176,-4.60314 c -0.230582,-0.69175 -0.937419,-0.34485 -3.004225,1.47443 l -2.083348,1.83384 -0.838107,-0.89819 c -0.460957,-0.49401 -1.288222,-1.22063 -1.838367,-1.61473 -0.871583,-0.62436 -1.065753,-0.65105 -1.509342,-0.20746 -0.44359,0.4436 -0.209503,0.79676 1.819629,2.74523 l 2.328709,2.23614 2.622428,-2.60492 c 1.442334,-1.43271 2.568515,-2.76666 2.502623,-2.96434 z m -28.812395,-3.54548 c 0,-0.97624 -0.171672,-1.6478 -0.440973,-1.72501 -3.6132,-1.03598 -5.944465,-2.79932 -7.354199,-5.56263 -0.574263,-1.12564 -0.765003,-2.11535 -0.753761,-3.91103 0.02759,-4.40743 2.716906,-8.13518 6.70547,-9.29469 l 1.879648,-0.54643 -0.106289,-1.6454 -0.106285,-1.64541 -1.459947,0.0275 c -1.875624,0.0354 -5.41922,1.72869 -5.41922,2.58957 0,0.82596 -1.323713,1.99599 -2.111124,1.86602 -0.766929,-0.12659 -1.854046,1.62227 -2.854499,4.59207 -0.793893,2.35663 -0.705935,3.09564 0.36844,3.09564 1.071364,0 1.000699,1.67447 -0.07712,1.82755 -0.673124,0.0956 -0.779097,0.30037 -0.697336,1.34745 0.152014,1.94671 2.479488,6.62347 3.023148,5.99722 0.34871,-0.40168 2.697488,1.21366 2.313096,1.67569 -0.469651,0.56452 3.940326,2.83904 5.944425,2.88444 1.12866,0.0256 1.146527,10e-4 1.146527,-1.57259 z m 6.683412,0.55012 c 0.792001,-0.40405 3.168491,-1.0556 2.603664,-1.95018 -0.232875,-0.36882 1.412219,-1.74107 1.887673,-1.5869 0.548862,0.17798 2.158674,-3.35909 2.53407,-5.38044 0.280959,-1.51286 0.160864,-2.11848 -0.434633,-2.13961 -0.59644,-0.0212 -0.664761,-0.45691 -0.670592,-0.98067 -0.0096,-0.86334 0.473673,-0.97893 0.802373,-0.95994 0.404566,0.0234 0.03831,-1.90854 -0.505746,-3.7108 -0.618694,-2.0495 -1.970048,-3.88976 -2.163757,-3.77129 -0.684358,0.41851 -2.404483,-1.02616 -2.00582,-1.46069 0.298628,-0.32549 -4.250616,-3.09314 -5.996617,-3.10821 -0.928002,-0.008 -0.970137,0.067 -0.970137,1.72716 v 1.73554 l 1.735849,0.57656 c 2.109618,0.7007 4.737415,2.93893 5.726367,4.87743 1.022863,2.00498 1.235823,5.01294 0.50969,7.19912 -1.079534,3.25017 -3.222767,5.32973 -6.356828,6.16796 l -1.615078,0.43197 v 1.73986 1.73986 l 1.73976,-0.20605 c 0.956871,-0.11333 2.387764,-0.53664 3.179762,-0.94068 z m 34.238809,-0.77585 c 0,-0.22726 0.22804,-0.66518 0.50675,-0.97315 0.44287,-0.48937 0.42318,-0.67074 -0.15622,-1.43886 l -0.66297,-0.87892 -0.72572,0.77898 c -0.88013,0.9447 -0.88248,0.98935 -0.10837,2.05394 0.67037,0.92192 1.14653,1.11213 1.14653,0.45801 z m -78.507367,-1.26422 c 0.347466,-0.90548 -0.629722,-1.64974 -1.532031,-1.16684 -0.88655,0.47447 -0.935058,0.84162 -0.207335,1.56934 0.615061,0.61506 1.420405,0.4287 1.739366,-0.4025 z m 6.953895,-0.31755 c 0.784021,-0.70952 0.843396,-2.34022 0.107447,-2.951 -0.29573,-0.24544 -0.585263,-0.38394 -0.643408,-0.30778 -1.596496,2.09104 -1.724544,2.46017 -1.094798,3.15603 0.754369,0.83357 0.81874,0.83762 1.630759,0.10275 z m 65.856976,-0.28834 c 0.159732,-0.82942 -1.375156,-3.76628 -1.881992,-3.60101 -0.197455,0.0644 -0.506005,0.70004 -0.685662,1.41257 -0.285112,1.13077 -0.219797,1.40926 0.513622,2.18995 0.95403,1.01552 1.858299,1.01485 2.054032,-0.002 z m -32.305667,-1.97124 c 4.191437,-1.16398 6.553335,-6.5331 4.570587,-10.38997 -3.095423,-6.02127 -11.119016,-5.76749 -13.717714,0.43387 -1.083773,2.58625 -0.302265,6.30288 1.69482,8.06009 2.426954,2.13546 4.599583,2.68821 7.452307,1.89601 z m -3.755371,-3.6613 c -0.396253,-0.60476 -0.950328,-0.89292 -1.865387,-0.97014 -1.477459,-0.12469 -1.827768,-0.64627 -0.994018,-1.48002 0.830543,-0.83054 2.187586,-0.6982 3.197622,0.31183 1.060127,1.06013 1.027639,1.05696 1.899235,0.18537 1.467331,-1.46734 4.242305,-1.2172 4.242305,0.3824 0,0.67133 -0.143616,0.73597 -1.239933,0.55806 -1.077661,-0.17488 -1.340271,-0.0655 -2.006621,0.83578 -0.97889,1.32402 -2.42951,1.40331 -3.233203,0.17672 z m 42.460964,0.077 c -0.38689,-0.36044 -0.70343,-0.83804 -0.70343,-1.06135 0,-0.2233 -0.48305,0.0881 -1.07344,0.69194 l -1.07345,1.09794 0.80886,0.84533 0.80887,0.84533 0.968,-0.88193 c 0.96375,-0.87804 0.96491,-0.88481 0.26459,-1.53726 z m -79.240275,0.3489 c 0.295871,-0.46983 0.249862,-0.74549 -0.199416,-1.19477 -1.05682,-1.05681 -2.63353,0.32437 -1.680784,1.47236 0.548531,0.66094 1.365088,0.54038 1.8802,-0.27759 z m 63.518592,-1.53112 c 0.681093,-0.68109 0.681093,-0.67962 7.93e-4,-1.36002 -0.417927,-0.41793 -0.720632,-0.4643 -1.23472,-0.18917 -0.776343,0.41548 -0.875567,1.06238 -0.257723,1.68022 0.557901,0.5579 0.826395,0.53432 1.491745,-0.13103 z m -47.984235,-0.37229 c 0.247081,-0.64389 -0.351113,-1.54279 -1.026676,-1.54279 -0.660588,0 -1.342673,0.97373 -1.108874,1.58301 0.273584,0.71294 1.857981,0.6831 2.13555,-0.0402 z m 41.57124,-0.7978 c 0.491757,-0.0314 0.61736,-0.3661 0.61736,-1.64506 v -1.60563 l -1.940276,0.0785 c -2.010733,0.0813 -2.136492,0.20117 -1.991982,1.89803 0.115533,1.35661 0.356849,1.58359 1.538676,1.44727 0.637374,-0.0735 1.436672,-0.15142 1.776222,-0.17311 z m -34.307639,-1.67309 v -1.63366 l -1.322917,0.21866 c -0.727604,0.12027 -1.600729,0.22041 -1.940277,0.22255 -0.484423,0.003 -0.617363,0.30774 -0.617363,1.41499 v 1.41111 h 1.94028 1.940277 z m 54.416527,-9.50208 c -5.450747,-11.28124 -14.137245,-17.96897 -26.4246,-21.61926 -5.173443,-1.53692 -8.572622,-1.94316 -14.36651,-1.71696 -7.743251,0.3023 -15.551809,2.62133 -21.229103,6.30473 -5.910088,3.83444 -10.139577,7.95508 -13.52215,13.17417 -1.730095,2.66942 -4.306596,6.42029 -4.309369,7.41738 -0.0011,0.4259 1.106651,1.02805 3.414668,2.56574 2.895699,1.92924 4.571104,3.06858 5.865486,1.34228 3.31996,-4.42781 7.798615,-12.50786 13.086789,-15.67534 2.751323,-1.64798 7.049754,-3.45453 10.332508,-4.34256 3.613111,-0.97739 11.68395,-1.08206 15.532635,-0.20144 7.986765,1.82747 16.08401,7.03475 20.447528,13.14967 1.850654,2.50347 1.344559,3.34406 4.833939,3.51971 0.519488,-0.14899 0.426265,0.28344 3.319199,-1.7777 3.06757,-2.05197 0.18661,-0.10125 3.01898,-2.14042 z m -62.414087,4.82145 c 0.123623,-0.61811 0.498443,-1.12966 0.92751,-1.26584 0.96072,-0.30492 0.907991,-0.68766 -0.161894,-1.17513 -0.517353,-0.23572 -0.881946,-0.69664 -0.881946,-1.11496 0,-0.92054 -0.591391,-0.92301 -0.883171,-0.004 -0.123841,0.39018 -0.71804,0.9643 -1.320443,1.27581 l -1.09528,0.56639 1.120281,0.47104 c 0.813075,0.34188 1.12028,0.70144 1.12028,1.31123 0,1.65865 0.839229,1.61231 1.174663,-0.0649 z m 47.743495,0.28947 c 0.139616,-0.69808 0.514464,-1.19896 1.049515,-1.40238 1.067834,-0.40599 1.055219,-0.82467 -0.03989,-1.32363 -0.479716,-0.21857 -0.973174,-0.79968 -1.096576,-1.29134 -0.123402,-0.49167 -0.348697,-0.89395 -0.500655,-0.89395 -0.151961,0 -0.377254,0.40228 -0.500655,0.89395 -0.123402,0.49166 -0.616861,1.07277 -1.096577,1.29134 -1.095356,0.49908 -1.094621,0.76284 0.0041,1.48277 0.481989,0.31581 0.975447,0.96907 1.096576,1.45168 0.301662,1.20191 0.822068,1.10186 1.084128,-0.20844 z m -40.263833,-2.10152 c 0.633047,-0.69951 0.629912,-0.73789 -0.121714,-1.48951 l -0.771498,-0.7715 -0.771502,0.7715 c -0.751625,0.75162 -0.754761,0.79 -0.121713,1.48951 0.357383,0.3949 0.75933,0.718 0.893215,0.718 0.133881,0 0.535828,-0.3231 0.893212,-0.718 z m 33.961231,0.29467 c 0.5789,-0.5789 0.530981,-1.18251 -0.147762,-1.86126 -0.526278,-0.52627 -0.623179,-0.52396 -1.234723,0.0295 -0.807522,0.7308 -0.823923,0.98608 -0.109263,1.70075 0.665353,0.66535 0.933845,0.68893 1.491748,0.13103 z m -27.817403,-4.55132 1.094092,-1.09409 -1.155149,-1.34549 c -0.635334,-0.74002 -1.234525,-1.35427 -1.33154,-1.36501 -0.09701,-0.0107 -0.7107,0.46626 -1.363744,1.05998 l -1.187358,1.0795 1.347147,1.3796 c 0.740929,0.75878 1.382091,1.3796 1.424803,1.3796 0.04271,0 0.569997,-0.49233 1.171749,-1.09409 z m 22.857119,-0.29517 1.142772,-1.37656 -1.081645,-0.91014 c -0.594903,-0.50058 -1.197073,-0.91015 -1.338152,-0.91015 -0.141078,0 -0.781748,0.54192 -1.423712,1.20426 l -1.167207,1.20425 1.186199,1.07846 c 0.652407,0.59316 1.26557,1.08026 1.362585,1.08245 0.09701,0.002 0.690637,-0.61547 1.31916,-1.37257 z m -11.196939,-6.01907 v -1.76389 h -1.5875 -1.5875 v 1.76389 1.76389 h 1.5875 1.5875 z m -6.888615,0.841 c 0.653902,-0.6539 0.573249,-1.16016 -0.269513,-1.69176 -0.912545,-0.57562 -1.867521,0.51185 -1.330565,1.51516 0.479213,0.89542 0.841295,0.93538 1.600078,0.1766 z m 13.018434,-0.21702 c 0.295873,-0.46983 0.249864,-0.74549 -0.199417,-1.19476 -1.056817,-1.05682 -2.633527,0.32436 -1.680784,1.47235 0.548532,0.66094 1.365091,0.54038 1.880201,-0.27759 z"
       style="fill:#0b233f;fill-opacity:1;stroke-width:0.264583"
       id="path1"
       sodipodi:nodetypes="ssssssssssssssssssssssccssssssssscscssssssssssssssssssssssscsssssssscsssssssssssssssssssssssssssssssssssscssssssssssssssscsssssssssssscsssscssssscsscssssssssssssssscsssscscsssssscssssssscssssssscssssscccsccssssssssssssscssscsssssssscscssscssscssscsssssssscssscsssssssssssssscsssscssccsssccccsssssssssccsssscssssssscsssscccssssscssssssssscsscsssccssssssssssssssssscccssssssccssccsssssssccsssccscscccccsssscssssssscccssscscsscccssssssssccsscssssssssssscscscsssscssscscscccccccccssssssss" />
    <text
       xml:space="preserve"
       style="font-weight:900;font-size:8.46667px;font-family:'Gill Sans';-inkscape-font-specification:'Gill Sans, Heavy';fill:#0b233f;stroke:#000000;stroke-width:0.264999"
       x="-98.112816"
       y="106.47974"
       id="text4"
       transform="rotate(-55.277428)"><tspan
         sodipodi:role="line"
         id="tspan4"
         style="stroke-width:0.265"
         x="-98.112816"
         y="106.47974">C</tspan></text>
    <text
       xml:space="preserve"
       style="font-weight:900;font-size:8.46667px;font-family:'Gill Sans';-inkscape-font-specification:'Gill Sans, Heavy';fill:#0b233f;stroke:#000000;stroke-width:0.264999"
       x="-69.26944"
       y="120.37047"
       id="text5"
       transform="rotate(-45.226925)"><tspan
         sodipodi:role="line"
         id="tspan5"
         style="stroke-width:0.265"
         x="-69.26944"
         y="120.37047">U</tspan></text>
    <text
       xml:space="preserve"
       style="font-weight:900;font-size:8.46667px;font-family:'Gill Sans';-inkscape-font-specification:'Gill Sans, Heavy';fill:#0b233f;stroke:#000000;stroke-width:0.264999"
       x="-19.720598"
       y="133.23376"
       id="text6"
       transform="rotate(-26.83323)"><tspan
         sodipodi:role="line"
         id="tspan6"
         style="stroke-width:0.265"
         x="-19.720598"
         y="133.23376">S</tspan></text>
    <text
       xml:space="preserve"
       style="font-weight:900;font-size:8.46667px;font-family:'Gill Sans';-inkscape-font-specification:'Gill Sans, Heavy';fill:#0b233f;stroke:#000000;stroke-width:0.264999"
       x="15.82645"
       y="132.34421"
       id="text7"
       transform="rotate(-15.207641)"><tspan
         sodipodi:role="line"
         id="tspan7"
         style="stroke-width:0.265"
         x="15.82645"
         y="132.34421">T</tspan></text>
    <text
       xml:space="preserve"
       style="font-weight:900;font-size:8.46667px;font-family:'Gill Sans';-inkscape-font-specification:'Gill Sans, Heavy';fill:#0b233f;stroke:#000000;stroke-width:0.264999"
       x="57.472553"
       y="121.11494"
       id="text8"><tspan
         sodipodi:role="line"
         id="tspan8"
         style="stroke-width:0.265"
         x="57.472553"
         y="121.11494">O</tspan></text>
    <text
       xml:space="preserve"
       style="font-weight:900;font-size:8.46667px;font-family:'Gill Sans';-inkscape-font-specification:'Gill Sans, Heavy';fill:#0b233f;stroke:#000000;stroke-width:0.264999"
       x="81.272903"
       y="110.50906"
       id="text9"
       transform="rotate(7.8509564)"><tspan
         sodipodi:role="line"
         id="tspan9"
         style="stroke-width:0.265"
         x="81.272903"
         y="110.50906">M</tspan></text>
    <text
       xml:space="preserve"
       style="font-weight:900;font-size:8.46667px;font-family:'Gill Sans';-inkscape-font-specification:'Gill Sans, Heavy';fill:#0b233f;stroke:#000000;stroke-width:0.264999"
       x="119.84337"
       y="80.401901"
       id="text10"
       transform="rotate(24.280882)"><tspan
         sodipodi:role="line"
         id="tspan10"
         style="stroke-width:0.265"
         x="119.84337"
         y="80.401901">I</tspan></text>
    <text
       xml:space="preserve"
       style="font-weight:900;font-size:8.46667px;font-family:'Gill Sans';-inkscape-font-specification:'Gill Sans, Heavy';fill:#0b233f;stroke:#000000;stroke-width:0.264999"
       x="142.44774"
       y="46.554169"
       id="text11"
       transform="rotate(38.657793)"
       inkscape:transform-center-x="-1.1316398"
       inkscape:transform-center-y="-0.48498849"><tspan
         sodipodi:role="line"
         id="tspan11"
         style="stroke-width:0.265"
         x="142.44774"
         y="46.554169">Z</tspan></text>
    <text
       xml:space="preserve"
       style="font-weight:900;font-size:8.46667px;font-family:'Gill Sans';-inkscape-font-specification:'Gill Sans, Heavy';fill:#0b233f;stroke:#000000;stroke-width:0.264999"
       x="158.02066"
       y="17.375145"
       id="text12"
       transform="rotate(49.225208)"><tspan
         sodipodi:role="line"
         id="tspan12"
         style="stroke-width:0.265"
         x="158.02066"
         y="17.375145">E</tspan></text>
    <text
       xml:space="preserve"
       style="font-weight:900;font-size:8.46667px;font-family:'Gill Sans';-inkscape-font-specification:'Gill Sans, Heavy';fill:#0b233f;stroke:#000000;stroke-width:0.264999"
       x="133.90437"
       y="132.84471"
       id="text13"
       transform="rotate(35.001966)"><tspan
         sodipodi:role="line"
         id="tspan13"
         style="stroke-width:0.265"
         x="133.90437"
         y="132.84471">Y</tspan></text>
    <text
       xml:space="preserve"
       style="font-weight:900;font-size:8.46667px;font-family:'Gill Sans';-inkscape-font-specification:'Gill Sans, Heavy';fill:#0b233f;stroke:#000000;stroke-width:0.264999"
       x="102.29094"
       y="172.38776"
       id="text14"
       transform="rotate(16.906072)"><tspan
         sodipodi:role="line"
         id="tspan14"
         style="stroke-width:0.265"
         x="102.29094"
         y="172.38776">U</tspan></text>
    <text
       xml:space="preserve"
       style="font-weight:900;font-size:8.46667px;font-family:'Gill Sans';-inkscape-font-specification:'Gill Sans, Heavy';fill:#0b233f;stroke:#000000;stroke-width:0.264999"
       x="41.151241"
       y="192.57825"
       id="text15"><tspan
         sodipodi:role="line"
         id="tspan15"
         style="stroke-width:0.265"
         x="41.151241"
         y="192.57825">O</tspan></text>
    <text
       xml:space="preserve"
       style="font-weight:900;font-size:8.46667px;font-family:'Gill Sans';-inkscape-font-specification:'Gill Sans, Heavy';fill:#0b233f;stroke:#000000;stroke-width:0.264999"
       x="74.464417"
       y="191.13573"
       id="text16"
       transform="rotate(5.004753)"><tspan
         sodipodi:role="line"
         id="tspan16"
         style="stroke-width:0.265"
         x="74.464417"
         y="191.13573">R</tspan></text>
    <text
       xml:space="preserve"
       style="font-weight:900;font-size:8.46667px;font-family:'Gill Sans';-inkscape-font-specification:'Gill Sans, Heavy';fill:#0b233f;stroke:#000000;stroke-width:0.264999"
       x="-25.715332"
       y="209.44386"
       id="text17"
       transform="rotate(-27.259258)"><tspan
         sodipodi:role="line"
         id="tspan17"
         style="stroke-width:0.265"
         x="-25.715332"
         y="209.44386">Q</tspan></text>
    <text
       xml:space="preserve"
       style="font-weight:900;font-size:8.46667px;font-family:'Gill Sans';-inkscape-font-specification:'Gill Sans, Heavy';fill:#0b233f;stroke:#000000;stroke-width:0.264999"
       x="-12.364298"
       y="210.08084"
       id="text18"
       transform="rotate(-25.839977)"><tspan
         sodipodi:role="line"
         id="tspan18"
         style="stroke-width:0.265"
         x="-12.364298"
         y="210.08084">M</tspan></text>
    <text
       xml:space="preserve"
       style="font-weight:900;font-size:8.46667px;font-family:'Gill Sans';-inkscape-font-specification:'Gill Sans, Heavy';fill:#0b233f;stroke:#000000;stroke-width:0.264999"
       x="-34.799995"
       y="206.97299"
       id="text19"
       transform="rotate(-34.933693)"
       inkscape:export-filename="../../../Desktop/icon1.jpg"
       inkscape:export-xdpi="96"
       inkscape:export-ydpi="96"><tspan
         sodipodi:role="line"
         id="tspan19"
         style="stroke-width:0.265"
         x="-34.799995"
         y="206.97299">S</tspan></text>
  </g>
</svg>
