<?xml version="1.0" encoding="UTF-8" standalone="no"?>
<!-- Created with Inkscape (http://www.inkscape.org/) -->

<svg
   version="1.1"
   id="svg1"
   width="407.1698"
   height="396.633"
   viewBox="0 0 407.1698 396.633"
   sodipodi:docname="ICon2.svg"
   inkscape:version="1.3.2 (091e20e, 2023-11-25)"
   inkscape:export-filename="../../../Desktop/ICon2.jpg"
   inkscape:export-xdpi="96"
   inkscape:export-ydpi="96"
   xmlns:inkscape="http://www.inkscape.org/namespaces/inkscape"
   xmlns:sodipodi="http://sodipodi.sourceforge.net/DTD/sodipodi-0.dtd"
   xmlns="http://www.w3.org/2000/svg"
   xmlns:svg="http://www.w3.org/2000/svg">
  <defs
     id="defs1" />
  <sodipodi:namedview
     id="namedview1"
     pagecolor="#ffffff"
     bordercolor="#000000"
     borderopacity="0.25"
     inkscape:showpageshadow="2"
     inkscape:pageopacity="0.0"
     inkscape:pagecheckerboard="0"
     inkscape:deskcolor="#d1d1d1"
     inkscape:zoom="1.7613971"
     inkscape:cx="830.59067"
     inkscape:cy="187.91901"
     inkscape:window-width="1392"
     inkscape:window-height="971"
     inkscape:window-x="501"
     inkscape:window-y="25"
     inkscape:window-maximized="0"
     inkscape:current-layer="g1" />
  <g
     inkscape:groupmode="layer"
     inkscape:label="Image"
     id="g1"
     transform="translate(-622.18567,-22.468496)">
    <g
       id="g12"
       transform="translate(4.3463891,-3.4771111)">
      <g
         id="g13">
        <path
           style="fill:#0b233f;fill-opacity:1"
           d="m 805.78297,422.22851 c -34.42202,-3.43946 -60.54895,-11.12987 -86.57247,-25.48244 -50.62519,-27.92095 -84.59933,-72.48038 -97.63622,-128.05662 -3.36524,-14.34603 -3.6791,-17.96123 -3.73274,-42.99633 -0.0654,-30.50448 1.23495,-39.36105 9.36832,-63.80834 13.44866,-40.42397 43.49568,-78.478819 81.54975,-103.283541 58.85195,-38.36138 138.65043,-43.530295 202.35669,-12.291264 13.54728,6.643051 12.88647,6.37678 33.65372,19.569827 0.84678,0.537943 19.02069,16.378519 24.47926,22.091941 65.38532,68.438117 74.23592,171.792797 21.41427,250.071037 -29.05845,43.06275 -74.68905,71.67198 -130.21391,81.64081 -11.71825,2.10388 -44.02757,3.60798 -54.66667,2.54492 z m 42.45118,-10.53507 c 35.01843,-4.59052 59.70781,-14.02234 90.12987,-34.43138 38.37019,-25.74113 67.20828,-72.39852 75.47588,-122.11297 2.7737,-16.67843 2.0506,-49.50518 -1.4412,-65.43048 -5.3443,-24.3741 -15.51301,-48.59544 -28.83855,-68.69216 C 974.70255,107.66799 952.01388,84.107557 937.1163,72.798103 916.16587,56.89364 884.25658,43.339973 854.21964,37.587239 840.9513,35.046059 836.2004,34.784728 815.1163,35.436294 c -26.30624,0.812947 -36.84872,2.678531 -60,10.617517 -63.78069,21.871542 -112.52693,77.620079 -125.87023,143.951249 -4.85106,24.11522 -4.66639,46.81056 0.59001,72.50967 11.41075,55.78841 50.4648,105.44504 102.61356,130.47159 36.49777,17.51553 76.08394,23.91141 115.78451,18.70712 z M 787.12502,400.94345 C 758.75898,395.61294 727.8782,382.04287 705.14639,364.91924 652.18053,325.02062 626.5754,257.55481 639.18018,191.10785 c 6.88724,-36.30663 22.29044,-64.74949 49.86658,-92.081399 28.14087,-27.891638 58.02682,-43.785161 96.94153,-51.554055 16.60793,-3.315592 54.10841,-3.319 69.79468,-0.0063 47.14786,9.95678 86.46783,34.448495 114.49185,71.314944 47.55008,62.55354 47.63798,153.39322 0.20786,214.66544 -25.57292,33.03615 -59.58486,54.23858 -105.36638,65.68348 -15.23319,3.80815 -61.63525,4.88713 -77.99128,1.81353 z m 67.24918,-17.41609 c 43.75894,-7.34595 86.07949,-34.11747 108.45843,-68.60963 13.07388,-20.15047 15.03238,-25.60623 10.61701,-29.57564 -2.80863,-2.52494 -23.26645,-11.64897 -26.11923,-11.64897 -2.46987,0 -6.4651,4.92224 -10.11508,12.46211 -5.68502,11.74368 -21.74469,28.46593 -37.86796,39.43029 -9.15184,6.22356 -26.26151,13.99008 -40.2384,18.26524 -11.17363,3.41772 -14.66981,5.32836 -37.65186,5.40902 -21.77139,0.0764 -25.08266,-1.9354 -35.67414,-4.70076 -22.55231,-5.88825 -44.56756,-18.13222 -60.33058,-33.55337 -10.24496,-10.02276 -14.1495,-15.07107 -21.035,-27.19679 -4.2266,-7.44327 -6.09744,-9.53481 -8.81328,-9.85295 -3.4952,-0.40945 -24.11157,8.81673 -27.71607,12.40341 -2.85549,2.84137 -0.23311,9.85852 9.02745,24.15632 31.25637,48.25812 89.73457,78.01027 148.86748,75.73979 8.8,-0.33789 21.66605,-1.56552 28.59123,-2.72807 z m -26.73294,-49.50091 c 8.14465,-6.6401 11.63857,-10.58861 15.03606,-16.99239 l 2.82553,-5.32573 2.06109,4.35205 c 1.13361,2.39363 2.69663,4.15059 3.4734,3.90436 0.77676,-0.24622 2.47257,-3.40807 3.76847,-7.02632 2.65949,-7.42553 2.46353,-21.4433 -0.38497,-27.53683 -1.74768,-3.73867 -3.9712,-3.81137 -3.9712,-0.12984 0,1.14835 -1.59391,5.63962 -3.54203,9.98059 l -3.54202,7.89268 -4.25287,-4.12204 -4.25286,-4.12204 -2.36892,6.20293 c -1.30291,3.41161 -4.1825,8.26848 -6.39909,10.79304 l -4.03017,4.5901 -3.92813,-3.73028 c -4.22777,-4.01482 -9.01725,-12.34169 -9.01725,-15.67716 0,-3.21687 -2.18267,-2.42459 -5.69924,2.06875 l -3.22585,4.12187 -2.99521,-6.37204 c -1.64737,-3.50462 -3.32009,-8.37403 -3.71717,-10.82091 -1.01826,-6.27483 -2.43415,-6.48709 -4.72816,-0.70881 -4.79112,12.06817 -3.43876,27.13512 2.95489,32.9213 2.5735,2.32899 2.69794,2.29678 4.245,-1.09864 2.08668,-4.57978 3.14019,-4.41234 5.25618,0.83536 1.52314,3.77742 17.56941,21 19.56568,21 0.40475,0 3.49572,-2.25 6.86884,-5 z m -59.25041,-13.60171 c 2.25461,-2.49131 2.24285,-2.74368 -0.27711,-5.94729 l -2.63164,-3.34558 -3.06886,3.26665 c -2.97875,3.17074 -2.99763,3.34536 -0.64291,5.94729 3.00777,3.32355 3.67696,3.33153 6.62052,0.0789 z m 112,0 c 2.25461,-2.49131 2.24285,-2.74368 -0.27711,-5.94729 l -2.63164,-3.34558 -3.06886,3.26665 c -2.97875,3.17074 -2.99763,3.34536 -0.64291,5.94729 3.00777,3.32355 3.67696,3.33153 6.62052,0.0789 z m -55.5836,-50.27877 c 0.31304,-27.03127 0.0877,-31.15041 -1.80793,-33.04602 -1.67292,-1.67292 -2.58837,-1.81463 -4.02428,-0.62293 -1.49173,1.23803 -1.85874,7.6532 -1.85874,32.49047 0,17.02132 0.42531,31.37316 0.94513,31.89298 0.51983,0.51983 2.16983,0.76983 3.66667,0.55556 2.63834,-0.37767 2.73247,-1.33362 3.07915,-31.27006 z m -62.35761,11.08866 c 7.49166,-4.96155 7.24004,-4.74591 6.45455,-5.5314 -1.12224,-1.12224 -23.12896,8.32131 -22.98789,9.86459 0.54075,5.9156 0.31569,5.80748 5.53334,2.6583 2.75,-1.65981 7.7,-4.80598 11,-6.99149 z m 44.05399,5.54108 c 3.90612,-2.88793 3.94601,-3.04964 3.94601,-16 0,-10.71567 -0.36033,-13.08259 -1.99164,-13.08259 -3.27863,0 -10.00836,10.49608 -10.00836,15.60962 0,4.65953 2.53764,16.39038 3.54561,16.39038 0.3093,0 2.33807,-1.31284 4.50838,-2.91741 z m 37.25813,-6.29019 c 1.7993,-10.66748 0.76875,-13.72939 -7.19837,-21.38729 l -4.78042,-4.59489 v 14.79729 14.79728 l 4.33333,2.77514 c 2.38334,1.52633 4.72912,2.78525 5.21287,2.79761 0.48374,0.0124 1.57841,-4.12096 2.43259,-9.18514 z m 53.35454,6.7133 c 0,-1.84528 -2.951,-3.80923 -11.34115,-7.54774 -6.23764,-2.77938 -11.78264,-4.61195 -12.32223,-4.07236 -0.53959,0.53959 -0.0861,1.49625 1.00782,2.12592 1.09389,0.62966 5.8889,3.55644 10.65556,6.50395 9.75027,6.02915 12,6.58975 12,2.99023 z m 0.64732,-17.83904 c -1.2298,-10.81219 -3.86186,-18.56963 -9.43784,-27.81604 -4.8168,-7.9875 -21.82627,-25.04403 -28.32764,-28.40602 -3.74392,-1.93606 -3.96211,-1.89308 -4.71876,0.92941 -1.05048,3.91857 -1.04622,26.49698 0.007,36.57275 l 0.83665,8.0046 19.24187,8.44536 c 10.58304,4.64495 19.54196,8.93089 19.90871,9.52432 0.36676,0.59343 1.29034,1.07896 2.0524,1.07896 0.91183,0 1.06149,-2.84918 0.43771,-8.33334 z M 767.1163,267.63515 c 9.53334,-4.18412 17.71106,-7.98277 18.17273,-8.44143 0.46167,-0.45867 1.16225,-11.18394 1.55685,-23.83394 0.57452,-18.41752 0.37009,-23 -1.02605,-23 -2.76129,0 -16.96532,10.99631 -22.54345,17.45243 -10.31594,11.93967 -18.16008,29.86973 -18.16008,41.5102 0,6.3889 -1.54996,6.64867 22,-3.68726 z m -43.41364,-1.1786 c 1.25336,-1.51021 0.87107,-2.97382 -1.85127,-7.08755 -9.66544,-14.60547 -12.12198,-35.41479 -6.22602,-52.74054 2.31131,-6.79196 4.89069,-11.01532 10.28782,-16.84488 7.66036,-8.2741 8.24532,-9.56565 5.40138,-11.92591 -4.81617,-3.99707 -19.48589,14.21504 -24.56921,30.50211 -5.10932,16.37039 -1.90653,38.3562 7.78847,53.46454 4.3559,6.78808 6.48635,7.86442 9.16883,4.63223 z m 203.2927,-2.48636 c 17.91142,-23.48308 16.01248,-59.26012 -4.24319,-79.94374 -6.32485,-6.45848 -10.43343,-7.94764 -11.83688,-4.29029 -0.50122,1.30616 1.4578,4.3118 5.4315,8.33333 11.65043,11.79066 16.8328,29.20295 14.00678,47.06157 -1.21845,7.69986 -6.58542,21.03743 -10.74963,26.71416 -1.90738,2.60017 -0.66398,6.51456 2.06933,6.51456 1.08569,0 3.48064,-1.97531 5.32209,-4.38959 z m -248.43461,-3.72152 c 1.52777,-1.52777 2.57777,-2.88417 2.33333,-3.01421 -0.24444,-0.13003 -1.75654,-1.33872 -3.36021,-2.68597 -2.83939,-2.38538 -2.99313,-2.37746 -5.86986,0.30262 l -2.95409,2.75216 3.20319,2.66723 c 3.94309,3.28333 3.3405,3.28531 6.64764,-0.0218 z m 293.7971,-0.58824 c 2.52743,-1.91198 2.51958,-2.00674 -0.4256,-5.14175 l -3.00049,-3.19387 -3.45005,3.19739 c -1.89752,1.75857 -3.206,3.40295 -2.90772,3.65418 1.08087,0.91042 5.89205,3.4356 6.54231,3.43379 0.36667,-10e-4 1.82537,-0.87841 3.24155,-1.94974 z M 799.15526,254.9834 c 1.34874,-1.49034 4.36379,-3.8911 6.70011,-5.33503 3.55623,-2.19787 4.36323,-3.64903 4.95655,-8.91295 0.75104,-6.66319 5.42569,-12.37564 10.12732,-12.37564 5.00286,0 10.84373,8.30591 10.84373,15.42014 0,1.78559 0.59827,3.24653 1.32949,3.24653 0.73122,0 3.65394,2.1 6.49494,4.66667 2.84099,2.56666 5.88625,4.66666 6.76724,4.66666 2.18887,0 0.51765,-59.8202 -2.02662,-72.54124 -1.01289,-5.06436 -3.65632,-13.08583 -5.87427,-17.82549 -4.69283,-10.02834 -14.62236,-24.20474 -16.99311,-24.26107 -2.574,-0.0612 -11.83426,12.5052 -16.97451,23.03475 -8.34311,17.09046 -9.14217,21.95755 -9.72899,59.25972 -0.31478,20.00883 -0.0316,33.66667 0.69811,33.66667 0.67527,0 2.33127,-1.21937 3.68001,-2.70972 z m 13.52377,-58.68139 c -6.40398,-5.03737 -5.89555,-17.22314 0.9177,-21.99533 4.81059,-3.36946 12.52265,-2.48228 16.95547,1.95054 11.44026,11.44026 -5.15345,30.05012 -17.87317,20.04479 z m 13.05532,-6.55517 c 5.43568,-6.00636 -2.66541,-14.10745 -8.67177,-8.67177 -3.19302,2.88965 -3.3188,5.62812 -0.40629,8.84639 2.85788,3.15793 6.11891,3.09521 9.07806,-0.17462 z m -88.86815,46.26027 c 0.53065,-2.75544 -3.31842,-4.61214 -5.3499,-2.58066 -2.03148,2.03148 -0.17478,5.88055 2.58066,5.3499 1.27713,-0.24595 2.52329,-1.49211 2.76924,-2.76924 z m -60.99558,-3.69424 c 3.65669,-1.957 3.39161,-7.73218 -0.42098,-9.17183 -3.99389,-1.50811 -7.66667,0.56733 -7.66667,4.33232 0,3.04569 2.2221,6.21976 4.35432,6.21976 0.63488,0 2.31488,-0.62111 3.73333,-1.38025 z m 297.81711,-0.71499 c 2.81574,-2.81574 2.63783,-5.00042 -0.64948,-7.97539 -2.02257,-1.83041 -3.30411,-2.13107 -4.87089,-1.14278 -3.43456,2.16647 -4.57068,6.83664 -2.23207,9.17525 2.60459,2.60459 5.10921,2.58615 7.75244,-0.0571 z m -229.90476,-1.90476 c 0,-1.77778 -0.88889,-2.66667 -2.66667,-2.66667 -1.77778,0 -2.66666,0.88889 -2.66666,2.66667 0,1.77778 0.88888,2.66666 2.66666,2.66666 1.77778,0 2.66667,-0.88888 2.66667,-2.66666 z m 162.66667,-5.3973 c 0,-3.49776 -2.56912,-4.60502 -5.01342,-2.16072 -1.68324,1.68325 -1.76926,2.47833 -0.44123,4.07851 2.07844,2.50437 5.45465,1.31733 5.45465,-1.91779 z M 736.1163,221.17039 c 3.02274,-2.29459 2.94384,-3.84481 -0.3473,-6.82325 -2.60251,-2.35523 -2.77733,-2.33511 -5.99801,0.69056 -3.10868,2.92046 -3.17868,3.26977 -1.11271,5.55263 2.59259,2.86478 4.27582,2.9957 7.45802,0.58006 z m 176.98591,-1.46029 c 1.9945,-2.40322 0.85508,-6.01698 -1.89715,-6.01698 -2.86647,0 -5.03163,4.52379 -3.09302,6.4624 2.02768,2.02768 3.01049,1.93995 4.99017,-0.44542 z m -13.56765,-2.35435 c 0.24502,-1.28555 -0.50649,-2.70267 -1.67003,-3.14917 -2.74788,-1.05446 -6.13995,1.78293 -5.16594,4.32118 1.02094,2.66052 6.27726,1.75933 6.83597,-1.17201 z M 786.1163,200.30908 c 0.91667,-0.76327 1.66667,-3.06639 1.66667,-5.11804 0,-2.05165 0.89646,-9.67799 1.99214,-16.94743 1.09568,-7.26944 1.99568,-16.96716 2,-21.55049 l 0.008,-8.33334 -5.66667,-0.23105 c -3.11666,-0.12707 -13.97345,-0.29209 -24.12618,-0.36669 l -18.45951,-0.13565 0.45951,16.73188 c 0.43155,15.71361 0.72266,17.26619 4.78346,25.51125 2.37817,4.82864 7.59711,12.18593 11.59766,16.34952 l 7.27371,7.57017 8.40234,-6.04619 c 4.62129,-3.3254 9.15235,-6.67067 10.06901,-7.43394 z M 762.96169,159.771 c -1.29424,-3.37275 0.094,-6.73193 2.95157,-7.14222 3.57161,-0.51282 6.33344,2.8361 5.22335,6.33369 -1.01697,3.20418 -7.0275,3.79865 -8.17492,0.80853 z m 120.09611,46.92212 c 12.16264,-13.84749 17.1302,-28.28884 16.44869,-47.81852 l -0.39019,-11.18148 h -24 -24 l -0.39391,9.77397 c -0.21665,5.37568 0.53335,14.72244 1.66667,20.77057 1.13332,6.04813 2.06058,12.89985 2.06058,15.22603 0,2.35622 1.03342,5.13965 2.33333,6.28458 4.0096,3.53157 18.28868,13.85295 19.22994,13.90001 0.49313,0.0247 3.66333,-3.10516 7.04489,-6.95516 z M 870.99596,159.8603 c -1.59792,-4.16412 0.0189,-6.83385 4.1386,-6.83385 3.53527,0 3.98174,0.44852 3.98174,4 0,3.37451 -0.57455,4.06609 -3.67425,4.42263 -2.34478,0.26971 -3.95352,-0.30517 -4.44609,-1.58878 z m 35.50921,46.5664 c -0.94346,-1.1368 -2.26075,-2.06692 -2.92731,-2.06692 -2.13004,0 -2.81946,3.96219 -1.0586,6.0839 1.51227,1.82217 1.92352,1.82772 3.7013,0.0499 1.64401,-1.644 1.69467,-2.36791 0.28461,-4.06692 z m -229.13983,-5.62562 c 2.38355,-2.15709 2.3707,-2.31938 -0.41871,-5.28858 l -2.87773,-3.06319 -3.97112,2.82769 -3.97113,2.82769 3.16149,2.43123 c 3.93079,3.02284 4.99152,3.05766 8.0772,0.26516 z m 295.05937,-0.41375 c 2.30773,-2.55002 2.28094,-2.72671 -0.79335,-5.23288 -3.16163,-2.57737 -3.20103,-2.57574 -6.23792,0.25767 l -3.05619,2.85142 3.05619,2.35181 c 3.86323,2.97284 4.14273,2.96377 7.03127,-0.22802 z m -14.69703,-30.19037 c 5.56273,-2.57609 13.38599,-8.05049 15.6251,-8.85876 2.69754,-0.97373 -10.26941,-26.79039 -32.51582,-49.09668 C 916.57698,87.916248 891.81404,74.05525 858.59289,66.205584 801.33431,52.676231 746.8179,67.150368 704.63281,107.08207 c -17.98694,17.02614 -29.3663,33.89934 -37.04301,54.92698 l -3.76611,10.31594 3.07215,2.01295 c 5.64127,3.6963 19.44703,8.68851 24.02774,8.68851 4.35356,0 4.72963,-0.4213 9.8192,-11 6.14342,-12.76913 19.04969,-30.42285 28.08184,-38.41145 14.79374,-13.08454 34.33504,-23.67457 55.62502,-30.14492 11.11694,-3.37862 13.76611,-3.651771 36,-3.711976 22.61518,-0.06124 24.76934,0.157699 37.33333,3.794346 23.46275,6.79129 36.82815,14.11626 53.57454,29.36175 13.30306,12.11077 22.42317,23.07977 25.0146,29.65871 0.8311,2.10995 8.42459,11.15967 9.93215,13.06925 0.45871,0.58103 5.86069,-2.8691 11.42342,-5.4452 z M 782.44964,140.46385 c 0,-0.6761 -3.65344,-3.05491 -8.11876,-5.28626 -7.77081,-3.88312 -8.27081,-3.96393 -11.66667,-1.88566 -1.95135,1.19424 -4.91703,2.99941 -6.59039,4.01151 -1.67337,1.01209 -2.68796,2.4138 -2.25465,3.11492 1.01138,1.63645 28.63047,1.68033 28.63047,0.0455 z m 108,-0.74533 c 0,-1.08603 -1.65,-2.36477 -3.66667,-2.84165 -2.01667,-0.47688 -4.98094,-2.05933 -6.58726,-3.51656 -2.91657,-2.64585 -2.92689,-2.64561 -7.49071,0.17499 -2.51357,1.55346 -5.7293,2.82448 -7.14608,2.82448 -2.62009,0 -5.77595,2.33122 -5.77595,4.26667 0,0.58667 6.9,1.06667 15.33333,1.06667 12.65307,0 15.33334,-0.34516 15.33334,-1.9746 z m -34.16756,-17.17958 c -3.03896,-4.16935 -2.91657,-4.16542 -7.70858,-0.24743 l -3.87613,3.16916 3.87613,3.37372 3.87614,3.37372 3.16577,-3.12024 c 3.13244,-3.08739 3.13946,-3.15635 0.66667,-6.54893 z m 38.78012,6.1477 c 1.16866,-3.04547 -2.37515,-6.12683 -5.79722,-5.04071 -3.37482,1.07113 -3.71507,5.41117 -0.56254,7.17541 2.76232,1.54587 5.27045,0.704 6.35976,-2.1347 z m -101.9459,-8.35321 c -4.19665,-3.24949 -4.15747,-3.25461 -7.2202,0.94433 -2.5433,3.48681 -2.54103,3.51098 0.56687,6.0276 3.09401,2.50538 3.14944,2.49749 6.55353,-0.93208 l 3.43314,-3.45883 z m 34.66667,2.49134 c 0,-0.5886 -1.52231,-2.06764 -3.38292,-3.28675 -3.23703,-2.12099 -3.5286,-2.07972 -6.76099,0.95696 l -3.37807,3.17353 3.59234,3.09001 3.59235,3.09 3.16864,-2.97678 c 1.74276,-1.63724 3.16865,-3.45837 3.16865,-4.04697 z"
           id="path9"
           sodipodi:nodetypes="sssssssssssssssssssssssssssssssssssssssssssssssssssssscsssssscccsscssscsssssssssscsssssscsssssssssssssssssssssssscccsssssssssssssscsssssssssssssssssssssssssssssssscssssscsssssssssssssssssssssssssssssssssssssssssssssssssssssssssssssssscssscsscssscsccsssssscccssssssssssssssssssscccssssscsssssssscssssssssssssssssssssssssssssscccssssscsssscsssscccs" />
      </g>
    </g>
    <path
       d="m 963.72041,139.01679 c 1.20925,1.55358 2.22677,3.33564 3.05251,5.34615 0.40977,1.00115 0.74077,1.97766 0.9933,2.92957 0.25871,0.96013 0.43921,1.89555 0.54112,2.80634 l -8.78828,0.38568 c -0.49966,-2.30391 -1.29978,-4.1628 -2.40032,-5.57665 -0.7358,-0.94528 -1.57423,-1.51371 -2.51535,-1.70519 -0.9246,-0.20448 -1.79386,0.0103 -2.60762,0.64366 -0.79733,0.62064 -1.19201,1.31761 -1.18461,2.09033 0.0159,0.76648 0.42667,1.66766 1.23304,2.70335 l 2.94686,-2.29382 6.48791,8.33506 -10.14761,7.89878 -3.39323,-3.95233 c -0.55118,-0.64022 -1.00998,-1.18729 -1.37652,-1.64123 -0.37458,-0.4476 -0.66444,-0.80286 -0.8692,-1.0659 -2.09863,-2.69619 -3.48138,-5.15098 -4.14823,-7.36436 -0.65604,-2.18232 -0.59782,-4.42 0.1797,-6.71367 0.78029,-2.2706 2.18557,-4.19609 4.21591,-5.77649 1.80839,-1.4076 3.80159,-2.27267 5.97945,-2.59505 2.15507,-0.31799 4.24967,-0.001 6.2837,0.95006 2.02766,0.94299 3.86684,2.47483 5.51761,4.59561 z"
       id="text17"
       style="font-weight:900;font-size:32px;font-family:'Gill Sans';-inkscape-font-specification:'Gill Sans, Heavy';fill:#0b233f;fill-opacity:1;fill-rule:nonzero;stroke:#000000;stroke-width:1.00157"
       aria-label="E M P O W E R I N G"
       sodipodi:nodetypes="sccccscscccccccsccsccss" />
    <path
       d="m 686.07282,142.35534 5.18264,2.99218 -4.62501,8.01071 2.55749,1.47659 3.21873,-5.57503 5.18263,2.99217 -3.21875,5.57507 2.54396,1.46872 4.62501,-8.01074 5.1826,2.99221 -9.89843,17.14458 -20.6493,-11.92188 z"
       style="font-weight:900;font-size:32px;font-family:'Gill Sans';-inkscape-font-specification:'Gill Sans, Heavy';fill:#0b233f;fill-opacity:1;stroke:#000000;stroke-width:1.00157"
       id="path1-1"
       sodipodi:nodetypes="ccccccccccccc" />
    <path
       d="m 700.28215,120.92151 6.57847,0.0998 -0.81643,-6.53869 6.8248,-7.62653 17.76813,15.90024 -7.04361,7.87109 -8.89573,-7.96054 0.76745,6.05454 -6.10224,-0.0931 8.89567,7.96059 -7.04361,7.87108 -17.76811,-15.90028 z"
       style="font-weight:900;font-size:32px;font-family:'Gill Sans';-inkscape-font-specification:'Gill Sans, Heavy';fill:#0b233f;fill-opacity:1;stroke:#000000;stroke-width:1.00157"
       id="path1-2"
       sodipodi:nodetypes="ccccccccccccc" />
    <path
       d="m 750.83243,90.617604 c 0.80999,1.225227 1.2541,2.548704 1.33237,3.970434 0.0815,1.444837 -0.18999,2.791567 -0.81321,4.040091 -0.63475,1.268763 -1.53863,2.290861 -2.71174,3.066391 -0.79072,0.52272 -1.62421,0.88644 -2.5004,1.09098 -0.89634,0.19282 -1.96123,0.25386 -3.19459,0.18272 l 5.41993,8.19859 -8.79815,5.81628 -13.14911,-19.890329 12.20006,-8.065271 c 0.72122,-0.47679 1.45514,-0.868278 2.20169,-1.174521 0.74081,-0.314983 1.48417,-0.531629 2.23003,-0.650056 0.75455,-0.124397 1.49856,-0.141582 2.23202,-0.05233 0.73643,0.07507 1.44931,0.265532 2.13862,0.571551 1.40746,0.617932 2.54493,1.582952 3.41233,2.895067 z m -9.91236,9.287544 c 0.30674,-0.102683 0.57295,-0.228963 0.79884,-0.378266 0.32142,-0.212471 0.58251,-0.460018 0.78296,-0.742347 0.20354,-0.29691 0.33746,-0.603948 0.40222,-0.921496 0.0679,-0.331992 0.0606,-0.67163 -0.0182,-1.018505 -0.0764,-0.361585 -0.227,-0.711552 -0.45069,-1.050593 -0.44806,-0.677786 -0.9766,-1.090115 -1.58561,-1.236901 -0.60036,-0.152605 -1.21335,-0.02212 -1.83901,0.391542 l -0.95148,0.629034 z"
       style="font-weight:900;font-size:32px;font-family:'Gill Sans';-inkscape-font-specification:'Gill Sans, Heavy';fill:#0b233f;fill-opacity:1;stroke:#000000;stroke-width:1.00157"
       id="path1-70"
       sodipodi:nodetypes="cccscccccccccccccscscccscc" />
    <path
       d="m 772.21629,84.854143 c -0.23209,-0.713218 -0.63179,-1.218505 -1.19955,-1.515821 -0.57759,-0.294181 -1.18339,-0.337849 -1.81739,-0.131746 -0.63397,0.206086 -1.098,0.598107 -1.39209,1.175724 -0.28769,0.597441 -0.31873,1.242858 -0.0936,1.936257 0.1128,0.346536 0.27531,0.644382 0.4876,0.892971 0.20576,0.261622 0.44129,0.464412 0.70712,0.607943 0.2658,0.143492 0.56161,0.228202 0.88755,0.253488 0.31588,0.02987 0.63741,-0.0082 0.96438,-0.116377 0.63397,-0.206094 1.09145,-0.601449 1.3724,-1.185724 0.28423,-0.574405 0.31203,-1.213292 0.0815,-1.916671 z m 1.35676,11.79958 c -2.13966,0.695929 -4.27675,0.810464 -6.41126,0.343592 -2.13447,-0.466869 -3.99686,-1.427532 -5.5872,-2.881928 -1.59703,-1.441329 -2.74189,-3.22687 -3.43457,-5.356624 -0.6895,-2.119866 -0.81727,-4.247161 -0.38334,-6.381854 0.424,-2.131523 1.36174,-4.013852 2.8132,-5.647026 1.46456,-1.626534 3.26176,-2.786115 5.39152,-3.478787 2.12975,-0.692714 4.26027,-0.810608 6.39152,-0.353645 2.10822,0.453512 3.97227,1.4191 5.59205,2.896805 1.60671,1.471032 2.75639,3.271419 3.44911,5.40118 0.67659,2.080223 0.80784,4.184498 0.39371,6.312772 -0.42055,2.108459 -1.3599,3.985849 -2.81806,5.632151 -1.45811,1.646333 -3.25701,2.817437 -5.39668,3.513364 z"
       style="font-weight:900;font-size:32px;font-family:'Gill Sans';-inkscape-font-specification:'Gill Sans, Heavy';fill:#0b233f;fill-opacity:1;stroke:#000000;stroke-width:1.00157"
       id="path1-9"
       sodipodi:nodetypes="scscscscccsssscsccsccscss" />
    <path
       d="m 795.2058,66.900087 3.42933,7.51241 2.22119,-8.00375 7.30058,-0.63489 3.70955,7.488 1.92543,-7.97805 10.27372,-0.89341 -5.93534,24.44988 -7.75199,0.67412 -4.5691,-9.07578 -2.66919,9.70526 -7.73642,0.67279 -10.45594,-23.02446 z"
       style="font-weight:900;font-size:32px;font-family:'Gill Sans';-inkscape-font-specification:'Gill Sans, Heavy';fill:#0b233f;fill-opacity:1;stroke:#000000;stroke-width:1.00157"
       id="path1-99"
       sodipodi:nodetypes="cccccccccccccc" />
    <path
       d="m 854.51351,66.375096 -0.41712,5.969837 -9.2275,-0.644719 -0.20583,2.94596 6.42185,0.448678 -0.41709,5.969835 -6.42185,-0.448729 -0.20476,2.930381 9.2275,0.644709 -0.41709,5.969824 -19.74873,-1.379802 1.66188,-23.785775 z"
       style="font-weight:900;font-size:32px;font-family:'Gill Sans';-inkscape-font-specification:'Gill Sans, Heavy';fill:#0b233f;fill-opacity:1;stroke:#000000;stroke-width:1.00157"
       id="path1-26"
       sodipodi:nodetypes="ccccccccccccc" />
    <path
       d="m 886.07409,75.598328 c 1.55909,0.67234 2.81816,1.56699 3.77722,2.68392 0.96314,1.10733 1.53218,2.29996 1.7071,3.57785 0.18331,1.25877 0.0189,2.48119 -0.49247,3.66728 -0.43726,1.01389 -1.04844,1.83934 -1.83364,2.47631 -0.7756,0.64112 -1.69368,1.07331 -2.75422,1.2966 0.61402,1.86429 0.89068,3.827 0.82995,5.88809 -0.0476,2.055683 -0.42051,4.197473 -1.12037,6.425352 l -10.05774,-4.337389 c 1.04485,-2.975283 1.51227,-5.229693 1.40221,-6.763203 -0.10583,-1.5431 -0.80935,-2.59517 -2.11019,-3.15613 l -0.0575,-0.0265 -3.49591,8.10645 -9.68466,-4.1765 9.44198,-21.89461 z m -8.52541,6.66917 0.22942,0.099 c 0.92784,0.40014 1.67229,0.52834 2.2334,0.38461 0.56111,-0.14363 0.99636,-0.57427 1.30571,-1.29166 0.2846,-0.65998 0.31559,-1.27064 0.0926,-1.83194 -0.22299,-0.56126 -0.7124,-1.00486 -1.46804,-1.33073 l -0.57389,-0.24756 z"
       style="font-weight:900;font-size:32px;font-family:'Gill Sans';-inkscape-font-specification:'Gill Sans, Heavy';fill:#0b233f;fill-opacity:1;stroke:#000000;stroke-width:1.00157"
       id="path1-04"
       sodipodi:nodetypes="sccsccccccsccccscssssscc" />
    <path
       d="m 918.90796,93.955118 -13.50535,19.650182 -8.69193,-5.97385 13.50535,-19.650182 z"
       style="font-weight:900;font-size:32px;font-family:'Gill Sans';-inkscape-font-specification:'Gill Sans, Heavy';fill:#0b233f;fill-opacity:1;stroke:#000000;stroke-width:1.00157"
       id="path1-72"
       sodipodi:nodetypes="ccccc" />
    <path
       d="m 936.82605,110.04772 -2.0515,9.46267 0.0426,0.0455 5.81332,-5.45035 7.22437,7.70555 -17.53121,16.4365 -5.47168,-5.83613 1.95179,-8.76948 -0.0427,-0.0456 -5.27759,4.94803 -7.21367,-7.69412 17.39439,-16.30824 z"
       style="font-weight:900;font-size:32px;font-family:'Gill Sans';-inkscape-font-specification:'Gill Sans, Heavy';fill:#0b233f;fill-opacity:1;stroke:#000000;stroke-width:1.00157"
       id="path1-6"
       inkscape:transform-center-x="-0.51501753"
       inkscape:transform-center-y="-0.60392367"
       sodipodi:nodetypes="ccccccccccccc" />
    <text
       xml:space="preserve"
       style="font-weight:900;font-size:29.3333px;font-family:'Gill Sans';-inkscape-font-specification:'Gill Sans, Heavy';fill:#0b233f;fill-opacity:1;fill-rule:nonzero;stroke:#000000;stroke-width:1.00157"
       x="648.84216"
       y="-380.55292"
       id="text1"
       transform="rotate(53.942334)"><tspan
         sodipodi:role="line"
         id="tspan1"
         x="648.84216"
         y="-380.55292">-</tspan></text>
    <text
       xml:space="preserve"
       style="font-weight:900;font-size:29.3333px;font-family:'Gill Sans';-inkscape-font-specification:'Gill Sans, Heavy';fill:#0b233f;fill-opacity:1;fill-rule:nonzero;stroke:#000000;stroke-width:1.00157"
       x="732.76807"
       y="-234.5406"
       id="text2"
       transform="rotate(42.306163)"><tspan
         sodipodi:role="line"
         id="tspan2"
         x="732.76807"
         y="-234.5406">S</tspan></text>
    <text
       xml:space="preserve"
       style="font-weight:900;font-size:29.3333px;font-family:'Gill Sans';-inkscape-font-specification:'Gill Sans, Heavy';fill:#0b233f;fill-opacity:1;fill-rule:nonzero;stroke:#000000;stroke-width:1.00157"
       x="783.56812"
       y="-161.687"
       id="text3"
       transform="rotate(36.840138)"><tspan
         sodipodi:role="line"
         id="tspan3"
         x="783.56812"
         y="-161.687">T</tspan></text>
    <text
       xml:space="preserve"
       style="font-weight:900;font-size:29.3333px;font-family:'Gill Sans';-inkscape-font-specification:'Gill Sans, Heavy';fill:#0b233f;fill-opacity:1;fill-rule:nonzero;stroke:#000000;stroke-width:1.00157"
       x="831.26227"
       y="21.031483"
       id="text4"
       transform="rotate(24.072454)"><tspan
         sodipodi:role="line"
         id="tspan4"
         x="831.26227"
         y="21.031483">A</tspan></text>
    <text
       xml:space="preserve"
       style="font-weight:900;font-size:29.3333px;font-family:'Gill Sans';-inkscape-font-specification:'Gill Sans, Heavy';fill:#0b233f;fill-opacity:1;fill-rule:nonzero;stroke:#000000;stroke-width:1.00157"
       x="831.24475"
       y="258.72754"
       id="text5"
       transform="rotate(8.0126796)"><tspan
         sodipodi:role="line"
         id="tspan5"
         x="831.24475"
         y="258.72754">R</tspan></text>
    <text
       xml:space="preserve"
       style="font-weight:900;font-size:29.3333px;font-family:'Gill Sans';-inkscape-font-specification:'Gill Sans, Heavy';fill:#0b233f;fill-opacity:1;fill-rule:nonzero;stroke:#000000;stroke-width:1.00157"
       x="784.23273"
       y="456.17639"
       id="text6"
       transform="rotate(-5.6176942)"><tspan
         sodipodi:role="line"
         id="tspan6"
         x="784.23273"
         y="456.17639">T</tspan></text>
    <text
       xml:space="preserve"
       style="font-weight:900;font-size:29.3333px;font-family:'Gill Sans';-inkscape-font-specification:'Gill Sans, Heavy';fill:#0b233f;fill-opacity:1;fill-rule:nonzero;stroke:#000000;stroke-width:1.00157"
       x="718.3197"
       y="601.55756"
       id="text7"
       transform="rotate(-16.438446)"><tspan
         sodipodi:role="line"
         id="tspan7"
         x="718.3197"
         y="601.55756">U</tspan></text>
    <text
       xml:space="preserve"
       style="font-weight:900;font-size:29.3333px;font-family:'Gill Sans';-inkscape-font-specification:'Gill Sans, Heavy';fill:#0b233f;fill-opacity:1;fill-rule:nonzero;stroke:#000000;stroke-width:1.00157"
       x="550.62805"
       y="795.21216"
       id="text8"
       transform="rotate(-33.337698)"><tspan
         sodipodi:role="line"
         id="tspan8"
         x="550.62805"
         y="795.21216">P</tspan></text>
    <text
       xml:space="preserve"
       style="font-weight:900;font-size:29.3333px;font-family:'Gill Sans';-inkscape-font-specification:'Gill Sans, Heavy';fill:#0b233f;fill-opacity:1;fill-rule:nonzero;stroke:#000000;stroke-width:1.00157"
       x="424.94904"
       y="892.29706"
       id="text9"
       transform="rotate(-44.160781)"><tspan
         sodipodi:role="line"
         id="tspan9"
         x="424.94904"
         y="892.29706">S</tspan></text>
    <text
       xml:space="preserve"
       style="font-weight:900;font-size:29.3333px;font-family:'Gill Sans';-inkscape-font-specification:'Gill Sans, Heavy';fill:#0b233f;fill-opacity:1;fill-rule:nonzero;stroke:#000000;stroke-width:1.00157"
       x="468.68582"
       y="883.87671"
       id="text10"
       transform="rotate(-43.467438)"
       inkscape:transform-center-x="-10.073293"
       inkscape:transform-center-y="41.774296"
       inkscape:export-filename="../../../Desktop/ICon2.tiff"
       inkscape:export-xdpi="96"
       inkscape:export-ydpi="96"><tspan
         sodipodi:role="line"
         id="tspan10"
         x="468.68582"
         y="883.87671">-</tspan></text>
  </g>
</svg>
