<?xml version="1.0" encoding="UTF-8" standalone="no"?>
<!-- Created with Inkscape (http://www.inkscape.org/) -->

<svg
   width="157.95015mm"
   height="33.276775mm"
   viewBox="0 0 596.97696 125.77049"
   version="1.1"
   id="svg1"
   xml:space="preserve"
   sodipodi:docname="Logo.svg"
   inkscape:version="1.3.2 (091e20e, 2023-11-25)"
   xmlns:inkscape="http://www.inkscape.org/namespaces/inkscape"
   xmlns:sodipodi="http://sodipodi.sourceforge.net/DTD/sodipodi-0.dtd"
   xmlns="http://www.w3.org/2000/svg"
   xmlns:svg="http://www.w3.org/2000/svg"><sodipodi:namedview
     id="namedview1"
     pagecolor="#ffffff"
     bordercolor="#000000"
     borderopacity="0.25"
     inkscape:showpageshadow="2"
     inkscape:pageopacity="0.0"
     inkscape:pagecheckerboard="0"
     inkscape:deskcolor="#d1d1d1"
     inkscape:document-units="mm"
     inkscape:zoom="0.46400452"
     inkscape:cx="298.48847"
     inkscape:cy="62.499391"
     inkscape:window-width="1392"
     inkscape:window-height="971"
     inkscape:window-x="563"
     inkscape:window-y="81"
     inkscape:window-maximized="0"
     inkscape:current-layer="svg1" /><defs
     id="defs1"><rect
       x="46.093803"
       y="440.60254"
       width="515.16602"
       height="51.516598"
       id="rect1" /></defs><g
     id="layer1"
     transform="translate(-112.28844,-585.78894)"
     inkscape:export-filename="logo.tiff"
     inkscape:export-xdpi="96"
     inkscape:export-ydpi="96"><path
       style="fill:#0b233f;fill-opacity:1;stroke-width:0.802114"
       d="m 429.34806,671.06127 c -1.27719,-0.31937 -3.64557,-1.77968 -5.81767,-3.5871 l -2.12622,-1.76924 -4.11538,-0.22457 c -5.41531,-0.29551 -6.50468,-0.47511 -9.98984,-1.64699 -5.31959,-1.78872 -8.10948,-3.36123 -12.0934,-6.81639 -2.0318,-1.76212 -4.35676,-4.14099 -5.16658,-5.28637 -1.8692,-2.64373 -3.95541,-6.91176 -4.72384,-9.66417 -0.2738,-0.98071 -3.2165,-12.43251 5.63928,-22.44065 0.82764,-0.82937 2.21008,-1.92332 3.07213,-2.43099 5.79027,-3.45164 11.80284,-3.94881 18.59614,-4.02238 6.8571,-0.0192 7.66826,0.0374 9.11864,0.63623 l 1.59201,0.65731 -3.24419,0.2078 c -6.16832,0.3951 -10.0463,1.98445 -13.68908,5.6103 -2.05805,2.0485 -2.41864,2.52366 -3.68043,4.84976 -1.46607,2.70272 -2.35387,6.60977 -2.08602,9.18032 0.18984,1.82195 1.05908,4.54837 2.14708,6.73446 0.77851,1.56423 3.59616,4.57686 5.52497,5.90728 3.30264,2.27806 8.73384,4.28508 12.66975,4.68192 2.04826,0.20652 2.03203,-0.0475 -0.26968,-4.2221 -1.00654,-1.82556 -1.87394,-3.7883 -1.92755,-4.36161 -0.095,-1.01627 -0.0422,-1.05653 2.10545,-1.60559 6.97635,-1.78349 6.25938,-1.71815 8.4749,-0.77227 1.40678,0.6006 2.82237,1.6549 4.83454,3.60065 1.56491,1.51327 4.49748,4.34888 6.51682,6.30137 2.01935,1.95248 4.96302,4.66876 6.54151,6.03617 3.24432,2.81048 3.23542,2.76529 1.09981,5.58881 -2.46281,3.25612 -7.43293,6.69844 -11.86358,8.21675 -1.70098,0.5829 -5.87405,0.95773 -7.13956,0.64129 z m -188.55302,-4.89796 c -4.79188,-0.84944 -6.15826,-1.23702 -9.72955,-2.75988 -5.42494,-2.31327 -11.22936,-7.30501 -13.95791,-12.00368 -6.50852,-11.20792 -4.68664,-24.98215 4.52618,-34.22009 1.7866,-1.79147 2.73873,-2.47299 5.76019,-4.12312 1.9506,-1.06529 5.52393,-2.37421 8.56737,-3.13825 3.11788,-0.78273 3.76657,-0.83516 8.78135,-0.70965 6.04978,0.15142 8.27952,0.5936 12.96644,2.57138 3.88393,1.63894 6.30314,3.46399 9.79319,7.38798 2.06455,2.32123 4.55117,6.45808 5.41839,9.01424 1.43571,4.23181 2.47838,12.57171 1.69883,13.58831 -0.29007,0.37827 -3.89032,0.47709 -21.95051,0.60246 -11.88194,0.0825 -21.97527,0.27178 -22.42962,0.42064 -1.26938,0.41592 -1.01138,1.35559 1.05179,3.83088 3.1235,3.74741 7.75513,6.57048 12.11995,7.38733 2.9652,0.55491 10.6475,0.18653 13.29472,-0.63751 2.69426,-0.83868 5.68536,-2.32158 6.83304,-3.38762 0.48507,-0.45056 1.02875,-0.81921 1.20818,-0.81921 0.45434,0 4.39822,3.48905 7.62313,5.94193 1.11064,0.84476 2.0698,1.71424 2.13147,1.93217 0.13675,0.48327 -1.20083,1.38944 -6.3191,4.28101 -4.83219,2.72994 -9.77518,4.2714 -15.98244,4.98405 -5.1752,0.59416 -7.40246,0.56617 -11.40509,-0.14337 z m 17.40974,-32.56879 c 0.64059,-0.21451 0.78508,-1.71079 0.25237,-2.61326 -0.18062,-0.30597 -0.92722,-1.66324 -1.65912,-3.01613 -1.62346,-3.00095 -3.92697,-5.14547 -6.74279,-6.27744 -1.81368,-0.72911 -2.60239,-0.84645 -5.77224,-0.85877 -3.48788,-0.0135 -3.78579,0.0398 -5.95553,1.06599 -1.25621,0.59415 -3.04306,1.74725 -3.97081,2.56245 -1.98107,1.74076 -4.65296,5.15933 -5.3212,6.80827 -0.93094,2.29719 -1.61893,2.18532 14.04109,2.28317 7.73124,0.0483 14.1672,0.12212 14.30214,0.16402 0.13493,0.0419 0.50667,-0.0113 0.82609,-0.1183 z m 347.17326,32.72119 c -7.09901,-0.80765 -12.04091,-2.53157 -19.55837,-6.8227 l -3.58722,-2.04765 0.94055,-0.97541 c 0.51731,-0.53646 1.83888,-2.29085 2.93684,-3.89863 1.09795,-1.60777 2.30501,-3.26537 2.68235,-3.68355 0.68069,-0.75438 0.69441,-0.75568 1.75183,-0.1676 0.58618,0.32601 1.14838,0.68064 1.24935,0.78807 0.40617,0.43217 3.75915,1.98646 5.58443,2.58869 8.93302,2.94735 22.29132,3.3612 26.12528,0.80939 2.44713,-1.62877 2.51482,-3.88164 0.16362,-5.44619 -1.58511,-1.05476 -3.58615,-1.61432 -8.74268,-2.44475 -12.17782,-1.96113 -13.83742,-2.36811 -19.43546,-4.76603 -7.0044,-3.00034 -10.33151,-6.4147 -10.90341,-11.18936 -0.3137,-2.61903 0.4366,-6.44844 1.74133,-8.88741 1.78204,-3.33122 5.78001,-6.86812 9.68916,-8.57174 4.93088,-2.1489 14.75443,-3.61707 19.10294,-2.855 1.17195,0.20538 2.7241,0.37342 3.44922,0.37342 1.69581,0 8.6931,1.93847 11.77664,3.26251 2.29435,0.98517 5.48334,2.84968 6.72069,3.92943 0.76218,1.11874 -5.63897,7.04276 -7.20454,9.04293 l -0.66744,0.74175 -1.67449,-1.11571 c -2.29979,-1.53235 -5.75612,-2.90604 -9.3667,-3.72274 -2.53277,-0.5729 -3.73609,-0.66077 -7.29623,-0.53282 -3.83829,0.13795 -4.5228,0.25761 -6.867,1.20048 -1.43205,0.576 -2.97749,1.39444 -3.43429,1.81875 -1.01091,0.93899 -1.10382,2.7013 -0.18893,3.58347 1.26981,1.2244 8.39518,3.42419 13.79043,4.25746 1.09207,0.16867 2.11102,0.37432 2.26434,0.457 0.15331,0.0827 1.57287,0.36183 3.15456,0.62032 6.38869,1.04409 8.30477,1.48561 11.37582,2.62135 0.63632,0.23533 1.26383,0.42786 1.39447,0.42786 0.51706,0 4.12436,2.20244 5.2198,3.18696 2.93367,2.63661 4.50213,7.17832 3.75413,10.87063 -0.48307,2.3845 -1.40218,4.88405 -2.02654,5.51119 -0.27696,0.27819 -0.50356,0.65233 -0.50356,0.83141 0,0.17908 -0.33043,0.58655 -0.7343,0.90549 -0.40387,0.31894 -0.73431,0.70172 -0.73431,0.85062 0,0.6913 -5.2546,4.31219 -8.01968,5.52627 -6.54525,2.87387 -15.12908,3.92227 -23.92263,2.92184 z m 70.67696,-0.16968 c -4.73597,-0.42082 -11.66761,-2.61286 -14.75014,-4.66454 -0.64461,-0.42904 -1.32634,-0.78007 -1.51495,-0.78007 -0.78923,0 -5.94557,-5.13941 -7.46644,-7.52907 -4.14461,-6.51216 -4.29304,-7.5243 -4.71654,-15.13419 -0.32569,-5.85223 0.39723,-7.79154 2.44457,-12.09862 2.18344,-4.59343 6.52492,-9.41886 10.90851,-12.12448 2.77843,-1.71489 3.98451,-2.24288 7.93551,-3.47393 2.78832,-0.86878 3.69966,-0.98943 8.55417,-1.13242 5.65085,-0.16645 7.60092,0.0685 12.74071,1.53518 5.46891,1.56058 11.20309,5.85584 14.63209,10.96036 1.03938,1.54726 1.89081,2.989 1.89206,3.20385 8.4e-4,0.21487 0.26129,0.82318 0.57789,1.35182 0.31659,0.52864 0.72844,1.60994 0.91522,2.40289 0.18677,0.79296 0.51005,2.18305 0.71841,3.08911 0.20835,0.90605 0.33244,3.50118 0.27576,5.76695 l -0.10305,4.11958 -35.80715,-0.049 c -11.84405,-0.0162 -9.48229,-1.43564 -8.95409,2.99409 0.003,0.0277 0.35407,1.90774 3.92694,5.02551 1.83359,1.60004 3.47437,2.67704 5.22344,3.42865 2.4193,1.03963 2.78542,1.10173 7.13847,1.21085 4.25274,0.1066 7.60771,-0.22983 9.17853,-0.92042 0.31298,-0.13759 1.31253,-0.51717 2.22124,-0.84352 0.9087,-0.32633 2.66228,-1.2576 3.89684,-2.06949 1.23455,-0.81188 2.42462,-1.57321 2.6446,-1.69185 0.21997,-0.11863 1.35772,0.5682 2.52833,1.52629 1.17062,0.95809 3.49145,2.62499 5.15741,3.70424 1.66596,1.07924 3.02137,2.13789 3.01201,2.35254 -0.009,0.21465 -0.62891,0.79328 -1.37682,1.28585 -3.18535,2.09784 -4.81721,3.10925 -5.01662,3.10925 -0.1171,0 -0.9118,0.39101 -1.76601,0.86891 -4.36826,2.44387 -10.26522,4.07058 -16.60638,4.58096 -4.05739,0.32657 -4.71481,0.32616 -8.44452,-0.005 z m 18.17215,-32.83559 c 0.36528,-0.38407 0.33154,-0.80825 -0.17092,-2.14877 -1.55983,-4.16146 -4.50384,-7.38941 -8.28701,-9.08624 -2.75554,-1.23593 -7.58839,-1.46203 -10.72343,-0.50168 -4.38701,1.34386 -7.94478,4.07871 -10.44427,8.0285 -1.61957,2.5593 -1.54982,3.62597 0.25531,3.90427 0.70677,0.10897 7.50182,0.21709 15.10011,0.24029 11.84674,0.0362 13.87992,-0.026 14.27021,-0.43637 z m -389.84218,32.33813 c -5.40124,-1.26854 -9.96576,-3.59498 -13.31056,-6.78411 -5.17382,-4.93302 -7.53809,-8.48658 -9.00951,-13.54157 -0.94212,-3.23658 -0.94563,-11.63064 -0.006,-14.73776 1.73883,-5.75092 3.86259,-9.02219 8.44227,-13.00382 5.43821,-4.72803 10.46376,-6.92056 17.25717,-7.5289 4.12832,-0.36968 8.75672,-0.004 11.79119,0.93247 3.06031,0.9441 6.7993,2.70952 8.50035,4.01357 2.85442,2.18823 2.8366,2.24881 2.5557,-8.68967 -0.38513,-14.99741 -0.38126,-19.92876 0.0159,-20.27536 0.22114,-0.19299 3.14751,-0.28253 7.49575,-0.22936 l 7.13297,0.0872 0.22549,6.24753 c 0.43835,12.14528 0.53369,72.3533 0.11515,72.71863 -0.26031,0.22723 -2.80991,0.31409 -7.52664,0.25641 l -7.13297,-0.0872 -0.19012,-1.60193 c -0.31791,-2.67879 -0.76469,-2.91763 -2.69342,-1.4399 -1.71334,1.31273 -4.88046,2.50346 -9.04893,3.40213 -4.15189,0.89508 -11.36655,1.02425 -14.61367,0.26164 z m 12.96148,-12.43905 c 3.62622,-0.69284 7.48037,-2.91073 9.77544,-5.62534 0.53007,-0.62697 1.33075,-2.09657 1.7793,-3.2658 0.72753,-1.89643 0.80009,-2.62251 0.67238,-6.7281 -0.15761,-5.0664 -0.26663,-5.3918 -3.06249,-9.14072 -2.56159,-3.43479 -7.12641,-5.92334 -11.73173,-6.39567 -2.07829,-0.21315 -6.08638,0.53103 -8.43674,1.56646 -5.15703,2.27185 -8.24856,6.83335 -8.86562,13.08105 -0.27854,2.82024 0.46251,6.31221 1.93527,9.11937 1.66298,3.16974 5.71652,6.45181 9.12252,7.38634 1.92598,0.52844 6.05259,0.52957 8.81167,0.002 z m -197.52835,12.30795 -7.34306,-0.17046 -0.0933,-38.20603 -0.0933,-38.20604 h 8.41516 8.41516 c 7.31888,12.88827 7.5172,12.91298 26.12957,37.17883 4.00064,5.21579 4.41773,4.95603 30.76832,-37.01759 0.1804,-0.28736 3.94483,-0.27893 8.00452,-0.35731 5.70873,-0.11021 7.46728,-0.0497 7.76095,0.26707 0.59966,0.64683 0.83711,75.77613 0.24086,76.20795 -0.29025,0.2102 -3.26565,0.29408 -8.20847,0.23142 -6.40638,-0.0812 -7.81358,-0.18178 -8.10079,-0.57887 -0.64785,-0.89573 0.0585,-49.8247 -0.94014,-48.59306 -27.97307,34.50157 0.0988,-0.33332 -28.15738,34.40795 -0.44309,0.54477 -26.22744,-34.51357 -27.38594,-34.51357 -1.58295,0 0.62408,48.2032 -0.98872,49.23231 -0.36852,0.23514 -0.76237,0.3961 -0.87522,0.35769 -0.11286,-0.0384 -3.50957,-0.14653 -7.54826,-0.24029 z m 339.93827,-0.15414 c -0.48506,-0.29648 -0.8657,-0.98618 -1.01914,-1.84669 -0.13471,-0.75542 -0.46982,-1.95018 -0.74469,-2.65503 -0.27487,-0.70485 -0.77924,-2.14659 -1.12081,-3.20386 -0.34158,-1.05727 -0.78825,-2.35484 -0.9926,-2.88347 -0.20436,-0.52864 -0.50842,-1.46577 -0.67569,-2.08251 -0.24462,-0.90195 -1.51422,-4.13369 -3.02074,-7.68927 -0.37185,-0.87761 -1.41284,-3.67024 -1.7317,-4.6456 -0.41454,-1.26798 -0.60921,-1.75106 -3.87323,-9.61158 -4.35247,-10.48175 -10.05801,-18.66955 -15.48654,-22.22419 -7.54452,-4.9402 -12.39225,-5.8018 -33.46681,-5.94819 -10.31725,-0.0716 -12.67067,-0.16903 -12.9356,-0.53518 -0.44984,-0.62171 -0.36662,-13.04899 0.089,-13.29473 0.51195,-0.27609 32.82328,-0.26277 34.82075,0.0144 9.39453,1.30341 16.73182,3.88563 22.76349,8.01117 1.72172,1.17762 7.35093,6.42105 7.58373,7.06399 0.12768,0.35261 0.6486,1.11834 1.15761,1.70163 6.41495,7.35105 14.3893,29.41014 14.3893,30.1784 0,0.35172 0.34149,0.93749 0.75887,1.3017 0.60324,0.52641 0.86678,0.58407 1.28503,0.28116 0.2894,-0.20958 0.52617,-0.62747 0.52617,-0.92864 0.73414,-2.00721 13.79265,-41.56197 16.37656,-46.53524 l 0.53133,-0.89662 h 6.90444 c 6.79079,0 6.91137,0.0119 7.32497,0.72086 0.40936,0.70172 1.61052,4.22428 2.32151,6.8082 0.53367,1.93943 2.23352,6.72439 6.0323,16.98047 1.89277,5.11015 4.02641,10.94919 4.74144,12.97563 0.71503,2.02645 1.45621,3.97279 1.64708,4.32521 0.19087,0.35243 0.50671,1.14538 0.70187,1.76213 0.19516,0.61674 0.52869,1.55387 0.74116,2.08251 0.21248,0.52864 0.47679,1.35763 0.58735,1.84222 0.15351,0.67276 0.41302,0.88106 1.09769,0.88106 0.74922,0 0.98539,-0.25026 1.43618,-1.52183 0.59733,-1.68492 13.61653,-33.9666 14.19146,-35.32257 0.42414,-0.96917 0.93801,-2.19464 1.14195,-2.72328 0.55113,-1.42864 0.74235,-1.48303 1.79298,-4.32521 0.42339,-1.14538 1.04778,-2.6215 1.38753,-3.28028 l 0.6177,-1.19777 7.61843,-0.0571 c 4.19014,-0.0314 8.37667,-0.38419 8.26095,-0.0838 -25.70319,66.72897 -25.85208,67.09493 -29.4122,75.95916 -0.13037,0.32345 -2.64268,0.43607 -6.72858,0.54875 -7.48591,0.20646 -7.33603,0.26477 -8.55034,-3.3264 -2.89064,-8.5486 -10.29006,-26.92525 -10.29006,-28.13365 0,-0.21417 -0.16482,-0.63974 -0.36627,-0.94573 -0.50316,-0.76425 -1.50742,-3.80706 -3.49749,-8.56598 -0.73687,-1.76212 -1.59195,-3.8245 -1.90017,-4.58305 -0.4491,-1.10526 -0.71479,-1.3598 -1.33774,-1.28154 -0.45867,0.0576 -0.88736,0.426 -1.04571,0.89861 -1.22443,3.6544 -3.51194,9.66254 -4.51334,11.85429 -3.05274,8.02337 -5.94434,16.09782 -8.76724,24.18914 -0.73537,2.11455 -1.51775,4.27716 -1.73861,4.80579 -0.22087,0.52864 -0.55157,1.6 -0.73489,2.38081 -0.18331,0.78081 -0.58433,1.75398 -0.89116,2.1626 -0.54471,0.72545 -0.69545,0.74297 -6.39382,0.74297 -3.20978,0 -6.05725,0.0741 -6.3277,0.16466 -0.27047,0.0906 -0.84015,-0.0483 -1.26598,-0.30854 z m 101.13123,-0.0731 c 0,-16.58862 0.41048,0.2022 -0.421,-53.8544 -0.006,-0.37304 3.5241,-0.37489 7.46182,-0.32487 l 7.15949,0.0909 0.0939,26.66355 0.27362,27.49058 c -0.60685,0.32155 -3.4062,0.054 -7.71058,0.0631 -3.23094,0.007 -6.31671,-0.0511 -6.85724,-0.12888 z m -201.77957,-27.05979 0.0939,-26.95644 7.34307,-0.0744 c 4.03868,-0.0409 7.50827,-0.0195 7.71021,0.0477 0.38911,0.12939 0.71961,52.32931 0.33797,53.37889 -0.18562,0.51046 -0.89239,0.56067 -7.89144,0.56067 h -7.68756 z m 206.86043,-33.45053 c -2.44791,-0.53037 -3.55693,-1.19737 -5.16598,-3.10699 -2.26617,-2.68948 -0.77158,-7.54629 -0.1354,-8.57296 2.68343,-4.3306 10.64451,-5.13603 14.33737,-1.45052 2.37246,2.36774 3.14252,6.29626 1.74333,8.89374 -1.92216,3.56837 -6.16583,5.23631 -10.77932,4.23673 z m -202.5377,-0.81148 c -3.4535,-1.36696 -4.41244,-2.89341 -4.41244,-7.02384 0,-3.22232 0.54106,-4.57353 2.47207,-6.17354 2.20516,-1.82719 7.11252,-1.87297 10.3375,-0.0965 1.77607,0.97837 2.49258,1.96456 3.24418,4.46519 0.54331,1.80762 0.55359,2.24102 0.0929,3.91684 -0.67102,2.44087 -2.29486,4.04258 -4.99075,4.92276 -2.52598,0.82471 -4.64089,0.82128 -6.74343,-0.0109 z"
       id="path15" /><g
       id="g7"
       transform="translate(19.892026,230.98024)"><text
         xml:space="preserve"
         style="font-style:normal;font-variant:normal;font-weight:normal;font-stretch:normal;font-size:29.3333px;font-family:'Euphemia UCAS';-inkscape-font-specification:'Euphemia UCAS, Normal';font-variant-ligatures:normal;font-variant-caps:normal;font-variant-numeric:normal;font-variant-east-asian:normal;fill:#0b233f;fill-opacity:1;stroke-width:1.00157;stroke-dasharray:none"
         x="390.58145"
         y="476.92291"
         id="text6"><tspan
           id="tspan6"
           x="390.58145"
           y="476.92291">&amp;</tspan></text><text
         xml:space="preserve"
         id="text1"
         style="font-style:normal;font-variant:normal;font-weight:300;font-stretch:normal;font-size:32px;font-family:'Gill Sans';-inkscape-font-specification:'Gill Sans, Light';font-variant-ligatures:normal;font-variant-caps:normal;font-variant-numeric:normal;font-variant-east-asian:normal;white-space:pre;shape-inside:url(#rect1);display:inline;fill:#50b1da;fill-opacity:1;stroke-width:1.00157;stroke-dasharray:none"
         transform="translate(104.38891,7.3910195)"><tspan
           x="46.09375"
           y="468.61005"
           id="tspan2">REGULATORY</tspan></text><text
         xml:space="preserve"
         style="font-style:normal;font-variant:normal;font-weight:300;font-stretch:normal;font-size:32px;font-family:'Gill Sans';-inkscape-font-specification:'Gill Sans, Light';font-variant-ligatures:normal;font-variant-caps:normal;font-variant-numeric:normal;font-variant-east-asian:normal;fill:#1a9634;fill-opacity:1;stroke-width:1.00157;stroke-dasharray:none"
         x="460.93805"
         y="476.00107"
         id="text5"><tspan
           id="tspan5"
           x="460.93805"
           y="476.00107">QUALITY</tspan></text></g><ellipse
       style="fill:#50b1da;fill-opacity:1;stroke:none;stroke-width:1.00157;stroke-dasharray:none;stroke-opacity:1"
       id="path61063"
       cx="568.14337"
       cy="597.16522"
       rx="9.2785177"
       ry="8.350666" /><ellipse
       style="fill:#1b9634;fill-opacity:1;stroke:none;stroke-width:1.00157;stroke-dasharray:none;stroke-opacity:1"
       id="path61063-8"
       cx="367.31662"
       cy="596.63116"
       rx="9.2785177"
       ry="8.350666" /></g></svg>
