<?xml version="1.0" encoding="UTF-8" standalone="no"?>
<!-- Created with Inkscape (http://www.inkscape.org/) -->

<svg
   width="68.360306mm"
   height="20.414442mm"
   viewBox="0 0 258.36967 77.156949"
   version="1.1"
   id="svg1"
   xml:space="preserve"
   sodipodi:docname="taplogo.svg"
   inkscape:version="1.3.2 (091e20e, 2023-11-25)"
   xmlns:inkscape="http://www.inkscape.org/namespaces/inkscape"
   xmlns:sodipodi="http://sodipodi.sourceforge.net/DTD/sodipodi-0.dtd"
   xmlns="http://www.w3.org/2000/svg"
   xmlns:svg="http://www.w3.org/2000/svg"><sodipodi:namedview
     id="namedview1"
     pagecolor="#ffffff"
     bordercolor="#000000"
     borderopacity="0.25"
     inkscape:showpageshadow="2"
     inkscape:pageopacity="0.0"
     inkscape:pagecheckerboard="0"
     inkscape:deskcolor="#d1d1d1"
     inkscape:document-units="mm"
     inkscape:zoom="1.0716735"
     inkscape:cx="293.46624"
     inkscape:cy="75.58272"
     inkscape:window-width="1392"
     inkscape:window-height="971"
     inkscape:window-x="0"
     inkscape:window-y="25"
     inkscape:window-maximized="0"
     inkscape:current-layer="layer1" /><defs
     id="defs1" /><g
     id="layer1"
     transform="translate(-295.15033,-433.99236)"><path
       style="fill:#1b9634;fill-opacity:1;stroke-width:0.802114"
       d="m 459.75637,510.81306 c -0.48506,-0.29648 -0.8657,-0.98618 -1.01914,-1.84669 -0.13471,-0.75542 -0.46982,-1.95018 -0.74469,-2.65503 -0.27487,-0.70485 -0.77924,-2.14659 -1.12081,-3.20386 -0.34158,-1.05727 -0.78825,-2.35484 -0.9926,-2.88347 -0.20436,-0.52864 -0.50842,-1.46577 -0.67569,-2.08251 -0.24462,-0.90195 -1.51422,-4.13369 -3.02074,-7.68927 -0.37185,-0.87761 -1.41284,-3.67024 -1.7317,-4.6456 -0.41454,-1.26798 -0.60921,-1.75106 -3.87323,-9.61158 -4.35247,-10.48175 -10.05801,-18.66955 -15.48654,-22.22419 -7.54452,-4.9402 -12.39225,-5.8018 -33.46681,-5.94819 -10.31725,-0.0716 -12.67067,-0.16903 -12.9356,-0.53518 -0.44984,-0.62171 -0.36662,-13.04899 0.089,-13.29473 0.51195,-0.27609 32.82328,-0.26277 34.82075,0.0144 9.39453,1.30341 16.73182,3.88563 22.76349,8.01117 1.72172,1.17762 7.35093,6.42105 7.58373,7.06399 0.12768,0.35261 0.6486,1.11834 1.15761,1.70163 6.41495,7.35105 14.3893,29.41014 14.3893,30.1784 0,0.35172 0.34149,0.93749 0.75887,1.3017 0.60324,0.52641 0.86678,0.58407 1.28503,0.28116 0.2894,-0.20958 0.52617,-0.62747 0.52617,-0.92864 0.73414,-2.00721 13.79265,-41.56197 16.37656,-46.53524 l 0.53133,-0.89662 h 6.90444 c 6.79079,0 6.91137,0.0119 7.32497,0.72086 0.40936,0.70172 1.61052,4.22428 2.32151,6.8082 0.53367,1.93943 2.23352,6.72439 6.0323,16.98047 1.89277,5.11015 4.02641,10.94919 4.74144,12.97563 0.71503,2.02645 1.45621,3.97279 1.64708,4.32521 0.19087,0.35243 0.50671,1.14538 0.70187,1.76213 0.19516,0.61674 0.52869,1.55387 0.74116,2.08251 0.21248,0.52864 0.47679,1.35763 0.58735,1.84222 0.15351,0.67276 0.41302,0.88106 1.09769,0.88106 0.74922,0 0.98539,-0.25026 1.43618,-1.52183 0.59733,-1.68492 13.61653,-33.9666 14.19146,-35.32257 0.42414,-0.96917 0.93801,-2.19464 1.14195,-2.72328 0.55113,-1.42864 0.74235,-1.48303 1.79298,-4.32521 0.42339,-1.14538 1.04778,-2.6215 1.38753,-3.28028 l 0.6177,-1.19777 7.61843,-0.0571 c 4.19014,-0.0314 8.37667,-0.38419 8.26095,-0.0838 -25.70319,66.72897 -25.85208,67.09493 -29.4122,75.95916 -0.13037,0.32345 -2.64268,0.43607 -6.72858,0.54875 -7.48591,0.20646 -7.33603,0.26477 -8.55034,-3.3264 -2.89064,-8.5486 -10.29006,-26.92525 -10.29006,-28.13365 0,-0.21417 -0.16482,-0.63974 -0.36627,-0.94573 -0.50316,-0.76425 -1.50742,-3.80706 -3.49749,-8.56598 -0.73687,-1.76212 -1.59195,-3.8245 -1.90017,-4.58305 -0.4491,-1.10526 -0.71479,-1.3598 -1.33774,-1.28154 -0.45867,0.0576 -0.88736,0.426 -1.04571,0.89861 -1.22443,3.6544 -3.51194,9.66254 -4.51334,11.85429 -3.05274,8.02337 -5.94434,16.09782 -8.76724,24.18914 -0.73537,2.11455 -1.51775,4.27716 -1.73861,4.80579 -0.22087,0.52864 -0.55157,1.6 -0.73489,2.38081 -0.18331,0.78081 -0.58433,1.75398 -0.89116,2.1626 -0.54471,0.72545 -0.69545,0.74297 -6.39382,0.74297 -3.20978,0 -6.05725,0.0741 -6.3277,0.16466 -0.27047,0.0906 -0.84015,-0.0483 -1.26598,-0.30854 z"
       id="path15"
       sodipodi:nodetypes="sssssssssscsscsssssscccssssssssssscssscsccssssssssccsssssss" /><g
       id="g1"
       transform="translate(-21.849673,-191.82521)"><path
         d="m 324.52967,702.72856 -7.34306,-0.17046 -0.0933,-38.20603 -0.0933,-38.20604 h 8.41516 8.41516 c 7.31888,12.88827 7.5172,12.91298 26.12957,37.17883 4.00064,5.21579 4.41773,4.95603 30.76832,-37.01759 0.1804,-0.28736 3.94483,-0.27893 8.00452,-0.35731 5.70873,-0.11021 7.46728,-0.0497 7.76095,0.26707 0.59966,0.64683 0.83711,75.77613 0.24086,76.20795 -0.29025,0.2102 -3.26565,0.29408 -8.20847,0.23142 -6.40638,-0.0812 -7.81358,-0.18178 -8.10079,-0.57887 -0.64785,-0.89573 0.0585,-49.8247 -0.94014,-48.59306 -27.97307,34.50157 0.0988,-0.33332 -28.15738,34.40795 -0.44309,0.54477 -26.22744,-34.51357 -27.38594,-34.51357 -1.58295,0 0.62408,48.2032 -0.98872,49.23231 -0.36852,0.23514 -0.76237,0.3961 -0.87522,0.35769 -0.11286,-0.0384 -3.50957,-0.14653 -7.54826,-0.24029 z"
         style="fill:#50b1da;fill-opacity:1;stroke-width:0.802114"
         id="path1" /></g><g
       id="g2"
       transform="translate(-3.3244557,-193.23832)"
       inkscape:export-filename="tap.svg"
       inkscape:export-xdpi="96"
       inkscape:export-ydpi="96"><path
         d="m 434.05962,704.27236 c -1.27719,-0.31937 -3.64557,-1.77968 -5.81767,-3.5871 l -2.12622,-1.76924 -4.11538,-0.22457 c -5.41531,-0.29551 -6.50468,-0.47511 -9.98984,-1.64699 -5.31959,-1.78872 -8.10948,-3.36123 -12.0934,-6.81639 -2.0318,-1.76212 -4.35676,-4.14099 -5.16658,-5.28637 -1.8692,-2.64373 -3.95541,-6.91176 -4.72384,-9.66417 -0.2738,-0.98071 -3.2165,-12.43251 5.63928,-22.44065 0.82764,-0.82937 2.21008,-1.92332 3.07213,-2.43099 5.79027,-3.45164 11.80284,-3.94881 18.59614,-4.02238 6.8571,-0.0192 7.66826,0.0374 9.11864,0.63623 l 1.59201,0.65731 -3.24419,0.2078 c -6.16832,0.3951 -10.0463,1.98445 -13.68908,5.6103 -2.05805,2.0485 -2.41864,2.52366 -3.68043,4.84976 -1.46607,2.70272 -2.35387,6.60977 -2.08602,9.18032 0.18984,1.82195 1.05908,4.54837 2.14708,6.73446 0.77851,1.56423 3.59616,4.57686 5.52497,5.90728 3.30264,2.27806 8.73384,4.28508 12.66975,4.68192 2.04826,0.20652 2.03203,-0.0475 -0.26968,-4.2221 -1.00654,-1.82556 -1.87394,-3.7883 -1.92755,-4.36161 -0.095,-1.01627 -0.0422,-1.05653 2.10545,-1.60559 6.97635,-1.78349 6.25938,-1.71815 8.4749,-0.77227 1.40678,0.6006 2.82237,1.6549 4.83454,3.60065 1.56491,1.51327 4.49748,4.34888 6.51682,6.30137 2.01935,1.95248 4.96302,4.66876 6.54151,6.03617 3.24432,2.81048 3.23542,2.76529 1.09981,5.58881 -2.46281,3.25612 -7.43293,6.69844 -11.86358,8.21675 -1.70098,0.5829 -5.87405,0.95773 -7.13956,0.64129 z"
         style="fill:#0b233f;fill-opacity:1;stroke-width:0.802114"
         id="path1-6" /></g></g></svg>
